<svg width="29" height="29" viewBox="0 0 29 29" fill="none" xmlns="http://www.w3.org/2000/svg">
<path d="M14.3333 1C17.6684 4.65114 19.5637 9.38938 19.6667 14.3333C19.5637 19.2773 17.6684 24.0155 14.3333 27.6667M14.3333 1C10.9983 4.65114 9.103 9.38938 9 14.3333C9.103 19.2773 10.9983 24.0155 14.3333 27.6667M14.3333 1C6.96954 1 1 6.96954 1 14.3333C1 21.6971 6.96954 27.6667 14.3333 27.6667M14.3333 1C21.6971 1 27.6667 6.96954 27.6667 14.3333C27.6667 21.6971 21.6971 27.6667 14.3333 27.6667M1.66669 10.3333H27M1.66667 18.3333H27" stroke="#2C85FE" stroke-width="2" stroke-linecap="round" stroke-linejoin="round"/>
</svg>
