<svg width="61" height="49" viewBox="0 0 61 49" fill="none" xmlns="http://www.w3.org/2000/svg">
<path d="M30.4009 0.00242684C35.9394 0.00242684 41.476 -0.00303354 47.0145 0.00242684C53.8188 0.00970734 59.462 4.7475 60.634 11.4747C60.8091 12.483 60.8579 13.5278 60.8506 14.5543C60.8218 18.2528 60.9211 21.9495 60.7748 25.6517C60.6791 28.067 60.1157 30.273 58.8209 32.2678C56.2873 36.1684 52.822 38.5618 48.0799 38.8603C47.1174 38.9204 46.1603 38.9732 45.1978 38.9732C34.6031 38.9695 24.0102 38.9677 13.4154 38.9422C12.9044 38.9422 12.5468 39.1424 12.2055 39.4373C9.03631 42.182 5.87072 44.9304 2.71053 47.6879C2.17601 48.1539 1.65232 48.6817 0.883042 48.3632C0.090288 48.0356 0 47.2966 0 46.5322C0.00722327 35.2783 -0.00902799 24.0245 0.0180593 12.7688C0.0307 7.44857 4.42245 2.00639 9.78031 0.563029C11.1509 0.193543 12.5378 -0.00667002 13.968 0.000610486C19.445 0.0242721 24.9239 0.0097089 30.4009 0.0097089V0.00242684ZM50.5611 18.0581C50.5647 14.1976 47.484 11.1562 43.569 11.1543C39.7479 11.1525 36.7087 14.1175 36.7069 17.8524C36.7051 22.0223 39.6124 24.9618 43.7351 24.9545C47.4641 24.9491 50.5593 21.8239 50.5611 18.0581ZM10.313 18.029C10.3094 21.975 13.1807 24.8981 17.0126 24.9673C20.7452 25.0365 23.8603 22.1698 23.9831 18.0253C24.0968 14.2304 20.8879 11.1489 17.0541 11.1471C13.1915 11.1471 10.3166 14.0811 10.313 18.029Z" fill="url(#paint0_linear_106_941)"/>
<defs>
<linearGradient id="paint0_linear_106_941" x1="58.1473" y1="34.3094" x2="2.50515" y2="3.82988" gradientUnits="userSpaceOnUse">
<stop stop-color="#2982FF"/>
<stop offset="1" stop-color="#86E5EC"/>
</linearGradient>
</defs>
</svg>
