<svg width="126" height="44" viewBox="0 0 126 44" fill="none" xmlns="http://www.w3.org/2000/svg">
<path d="M26.9755 0.00215339C31.8899 0.00215339 36.8027 -0.00269174 41.7171 0.00215339C47.7547 0.00861356 52.762 4.21257 53.802 10.1818C53.9574 11.0765 54.0006 12.0035 53.9942 12.9144C53.9686 16.1962 54.0567 19.4763 53.9269 22.7613C53.842 24.9045 53.3421 26.8619 52.1932 28.632C49.9451 32.093 46.8702 34.2168 42.6624 34.4817C41.8084 34.535 40.9592 34.5818 40.1051 34.5818C30.7041 34.5786 21.3048 34.577 11.9038 34.5544C11.4504 34.5544 11.1331 34.732 10.8303 34.9937C8.01814 37.4291 5.20923 39.8679 2.40512 42.3146C1.93083 42.7281 1.46614 43.1965 0.783544 42.9138C0.0801147 42.6231 0 41.9674 0 41.2891C0.00640938 31.3033 -0.00801075 21.3175 0.0160244 11.3301C0.0272409 6.60929 3.92414 1.78032 8.6783 0.499589C9.89448 0.171736 11.1251 -0.00591847 12.3941 0.000541699C17.2541 0.0215372 22.1156 0.00861494 26.9755 0.00861494V0.00215339ZM44.8641 16.0234C44.8673 12.5979 42.1337 9.89913 38.6598 9.89752C35.2692 9.8959 32.5725 12.5268 32.5709 15.8409C32.5693 19.5409 35.1491 22.1492 38.8072 22.1428C42.1161 22.1379 44.8625 19.3649 44.8641 16.0234ZM9.15099 15.9975C9.14779 19.4989 11.6955 22.0927 15.0957 22.1541C18.4077 22.2154 21.1718 19.6718 21.2808 15.9943C21.3817 12.6269 18.5343 9.89267 15.1326 9.89106C11.7051 9.89106 9.1542 12.4945 9.15099 15.9975Z" fill="url(#paint0_linear_286_5763)"/>
<path d="M70.06 29.22C69.0067 29.22 68.0267 29.04 67.12 28.68C66.2267 28.3067 65.44 27.7867 64.76 27.12C64.0933 26.4533 63.5733 25.68 63.2 24.8C62.8267 23.9067 62.64 22.9467 62.64 21.92C62.64 20.8933 62.8267 19.94 63.2 19.06C63.5733 18.1667 64.0933 17.3933 64.76 16.74C65.4267 16.0867 66.2067 15.58 67.1 15.22C68.0067 14.8467 68.9867 14.66 70.04 14.66C71.16 14.66 72.1533 14.84 73.02 15.2C73.9 15.56 74.6667 16.0533 75.32 16.68L73.22 18.8C72.8467 18.4 72.3933 18.0867 71.86 17.86C71.34 17.6333 70.7333 17.52 70.04 17.52C69.4267 17.52 68.86 17.6267 68.34 17.84C67.8333 18.04 67.3933 18.3333 67.02 18.72C66.66 19.1067 66.3733 19.5733 66.16 20.12C65.96 20.6667 65.86 21.2667 65.86 21.92C65.86 22.5867 65.96 23.1933 66.16 23.74C66.3733 24.2867 66.66 24.7533 67.02 25.14C67.3933 25.5267 67.8333 25.8267 68.34 26.04C68.86 26.2533 69.4267 26.36 70.04 26.36C70.76 26.36 71.3867 26.2467 71.92 26.02C72.4533 25.7933 72.9133 25.48 73.3 25.08L75.42 27.2C74.74 27.8267 73.96 28.32 73.08 28.68C72.2133 29.04 71.2067 29.22 70.06 29.22ZM81.5491 29L76.1091 14.88H79.4691L83.6091 26.3H82.2291L86.4291 14.88H89.7491L84.2491 29H81.5491ZM97.6155 29V26.56H100.935C101.549 26.56 102.029 26.38 102.375 26.02C102.722 25.66 102.895 25.22 102.895 24.7C102.895 24.34 102.815 24.02 102.655 23.74C102.495 23.46 102.269 23.24 101.975 23.08C101.695 22.92 101.349 22.84 100.935 22.84H97.6155V20.46H100.675C101.195 20.46 101.615 20.3333 101.935 20.08C102.255 19.8133 102.415 19.4133 102.415 18.88C102.415 18.36 102.255 17.9733 101.935 17.72C101.615 17.4533 101.195 17.32 100.675 17.32H97.6155V14.88H101.275C102.182 14.88 102.949 15.0467 103.575 15.38C104.215 15.7133 104.702 16.16 105.035 16.72C105.369 17.28 105.535 17.9 105.535 18.58C105.535 19.4467 105.255 20.18 104.695 20.78C104.135 21.38 103.309 21.7933 102.215 22.02L102.295 20.96C103.482 21.1867 104.395 21.6467 105.035 22.34C105.689 23.0333 106.015 23.8867 106.015 24.9C106.015 25.6733 105.822 26.3733 105.435 27C105.062 27.6133 104.515 28.1 103.795 28.46C103.089 28.82 102.235 29 101.235 29H97.6155ZM95.2155 29V14.88H98.3155V29H95.2155ZM112.428 29.22C111.428 29.22 110.521 29 109.708 28.56C108.908 28.1067 108.275 27.4933 107.808 26.72C107.341 25.9467 107.108 25.08 107.108 24.12C107.108 23.16 107.341 22.3 107.808 21.54C108.275 20.78 108.908 20.18 109.708 19.74C110.508 19.2867 111.415 19.06 112.428 19.06C113.441 19.06 114.348 19.28 115.148 19.72C115.948 20.16 116.581 20.7667 117.048 21.54C117.515 22.3 117.748 23.16 117.748 24.12C117.748 25.08 117.515 25.9467 117.048 26.72C116.581 27.4933 115.948 28.1067 115.148 28.56C114.348 29 113.441 29.22 112.428 29.22ZM112.428 26.44C112.868 26.44 113.255 26.3467 113.588 26.16C113.921 25.96 114.175 25.6867 114.348 25.34C114.535 24.98 114.628 24.5733 114.628 24.12C114.628 23.6667 114.535 23.2733 114.348 22.94C114.161 22.5933 113.901 22.3267 113.568 22.14C113.248 21.94 112.868 21.84 112.428 21.84C112.001 21.84 111.621 21.94 111.288 22.14C110.955 22.3267 110.695 22.5933 110.508 22.94C110.321 23.2867 110.228 23.6867 110.228 24.14C110.228 24.58 110.321 24.98 110.508 25.34C110.695 25.6867 110.955 25.96 111.288 26.16C111.621 26.3467 112.001 26.44 112.428 26.44ZM120.456 29V15.26H123.516V29H120.456ZM118.256 21.88V19.28H125.716V21.88H118.256Z" fill="#111827"/>
<defs>
<linearGradient id="paint0_linear_286_5763" x1="51.5955" y1="30.4435" x2="2.22288" y2="3.39835" gradientUnits="userSpaceOnUse">
<stop stop-color="#2982FF"/>
<stop offset="1" stop-color="#86E5EC"/>
</linearGradient>
</defs>
</svg>
