<svg width="126" height="44" viewBox="0 0 126 44" fill="none" xmlns="http://www.w3.org/2000/svg">
<path d="M8.06 29.22C7.00667 29.22 6.02667 29.04 5.12 28.68C4.22667 28.3067 3.44 27.7867 2.76 27.12C2.09333 26.4533 1.57333 25.68 1.2 24.8C0.826667 23.9067 0.64 22.9467 0.64 21.92C0.64 20.8933 0.826667 19.94 1.2 19.06C1.57333 18.1667 2.09333 17.3933 2.76 16.74C3.42667 16.0867 4.20667 15.58 5.1 15.22C6.00667 14.8467 6.98667 14.66 8.04 14.66C9.16 14.66 10.1533 14.84 11.02 15.2C11.9 15.56 12.6667 16.0533 13.32 16.68L11.22 18.8C10.8467 18.4 10.3933 18.0867 9.86 17.86C9.34 17.6333 8.73333 17.52 8.04 17.52C7.42667 17.52 6.86 17.6267 6.34 17.84C5.83333 18.04 5.39333 18.3333 5.02 18.72C4.66 19.1067 4.37333 19.5733 4.16 20.12C3.96 20.6667 3.86 21.2667 3.86 21.92C3.86 22.5867 3.96 23.1933 4.16 23.74C4.37333 24.2867 4.66 24.7533 5.02 25.14C5.39333 25.5267 5.83333 25.8267 6.34 26.04C6.86 26.2533 7.42667 26.36 8.04 26.36C8.76 26.36 9.38667 26.2467 9.92 26.02C10.4533 25.7933 10.9133 25.48 11.3 25.08L13.42 27.2C12.74 27.8267 11.96 28.32 11.08 28.68C10.2133 29.04 9.20667 29.22 8.06 29.22ZM19.5491 29L14.1091 14.88H17.4691L21.6091 26.3H20.2291L24.4291 14.88H27.7491L22.2491 29H19.5491ZM35.6155 29V26.56H38.9355C39.5488 26.56 40.0288 26.38 40.3755 26.02C40.7221 25.66 40.8955 25.22 40.8955 24.7C40.8955 24.34 40.8155 24.02 40.6555 23.74C40.4955 23.46 40.2688 23.24 39.9755 23.08C39.6955 22.92 39.3488 22.84 38.9355 22.84H35.6155V20.46H38.6755C39.1955 20.46 39.6155 20.3333 39.9355 20.08C40.2555 19.8133 40.4155 19.4133 40.4155 18.88C40.4155 18.36 40.2555 17.9733 39.9355 17.72C39.6155 17.4533 39.1955 17.32 38.6755 17.32H35.6155V14.88H39.2755C40.1821 14.88 40.9488 15.0467 41.5755 15.38C42.2155 15.7133 42.7021 16.16 43.0355 16.72C43.3688 17.28 43.5355 17.9 43.5355 18.58C43.5355 19.4467 43.2555 20.18 42.6955 20.78C42.1355 21.38 41.3088 21.7933 40.2155 22.02L40.2955 20.96C41.4821 21.1867 42.3955 21.6467 43.0355 22.34C43.6888 23.0333 44.0155 23.8867 44.0155 24.9C44.0155 25.6733 43.8221 26.3733 43.4355 27C43.0621 27.6133 42.5155 28.1 41.7955 28.46C41.0888 28.82 40.2355 29 39.2355 29H35.6155ZM33.2155 29V14.88H36.3155V29H33.2155ZM50.428 29.22C49.428 29.22 48.5213 29 47.708 28.56C46.908 28.1067 46.2746 27.4933 45.808 26.72C45.3413 25.9467 45.108 25.08 45.108 24.12C45.108 23.16 45.3413 22.3 45.808 21.54C46.2746 20.78 46.908 20.18 47.708 19.74C48.508 19.2867 49.4146 19.06 50.428 19.06C51.4413 19.06 52.348 19.28 53.148 19.72C53.948 20.16 54.5813 20.7667 55.048 21.54C55.5146 22.3 55.748 23.16 55.748 24.12C55.748 25.08 55.5146 25.9467 55.048 26.72C54.5813 27.4933 53.948 28.1067 53.148 28.56C52.348 29 51.4413 29.22 50.428 29.22ZM50.428 26.44C50.868 26.44 51.2546 26.3467 51.588 26.16C51.9213 25.96 52.1746 25.6867 52.348 25.34C52.5346 24.98 52.628 24.5733 52.628 24.12C52.628 23.6667 52.5346 23.2733 52.348 22.94C52.1613 22.5933 51.9013 22.3267 51.568 22.14C51.248 21.94 50.868 21.84 50.428 21.84C50.0013 21.84 49.6213 21.94 49.288 22.14C48.9546 22.3267 48.6946 22.5933 48.508 22.94C48.3213 23.2867 48.228 23.6867 48.228 24.14C48.228 24.58 48.3213 24.98 48.508 25.34C48.6946 25.6867 48.9546 25.96 49.288 26.16C49.6213 26.3467 50.0013 26.44 50.428 26.44ZM58.4561 29V15.26H61.5161V29H58.4561ZM56.2561 21.88V19.28H63.7161V21.88H56.2561Z" fill="#111827"/>
<path d="M98.9755 0.00215339C103.89 0.00215339 108.803 -0.00269174 113.717 0.00215339C119.755 0.00861356 124.762 4.21257 125.802 10.1818C125.957 11.0765 126.001 12.0035 125.994 12.9144C125.969 16.1962 126.057 19.4763 125.927 22.7613C125.842 24.9045 125.342 26.8619 124.193 28.632C121.945 32.093 118.87 34.2168 114.662 34.4817C113.808 34.535 112.959 34.5818 112.105 34.5818C102.704 34.5786 93.3048 34.577 83.9038 34.5544C83.4504 34.5544 83.1331 34.732 82.8303 34.9937C80.0181 37.4291 77.2092 39.8679 74.4051 42.3146C73.9308 42.7281 73.4661 43.1965 72.7835 42.9138C72.0801 42.6231 72 41.9674 72 41.2891C72.0064 31.3033 71.992 21.3175 72.016 11.3301C72.0272 6.60929 75.9241 1.78032 80.6783 0.499589C81.8945 0.171736 83.1251 -0.00591847 84.3941 0.000541699C89.2541 0.0215372 94.1156 0.00861494 98.9755 0.00861494V0.00215339ZM116.864 16.0234C116.867 12.5979 114.134 9.89913 110.66 9.89752C107.269 9.8959 104.572 12.5268 104.571 15.8409C104.569 19.5409 107.149 22.1492 110.807 22.1428C114.116 22.1379 116.862 19.3649 116.864 16.0234ZM81.151 15.9975C81.1478 19.4989 83.6955 22.0927 87.0957 22.1541C90.4077 22.2154 93.1718 19.6718 93.2808 15.9943C93.3817 12.6269 90.5343 9.89267 87.1326 9.89106C83.7051 9.89106 81.1542 12.4945 81.151 15.9975Z" fill="url(#paint0_linear_289_17171)"/>
<defs>
<linearGradient id="paint0_linear_289_17171" x1="123.596" y1="30.4435" x2="74.2229" y2="3.39835" gradientUnits="userSpaceOnUse">
<stop stop-color="#2982FF"/>
<stop offset="1" stop-color="#86E5EC"/>
</linearGradient>
</defs>
</svg>
