<svg width="48" height="48" viewBox="0 0 48 48" fill="none" xmlns="http://www.w3.org/2000/svg">
<rect width="48" height="48" rx="24" fill="url(#paint0_linear_251_3025)"/>
<path d="M30.6668 21.916V19.666C30.6668 18.2659 30.6668 17.5658 30.3943 17.031C30.1547 16.5606 29.7722 16.1782 29.3018 15.9385C28.767 15.666 28.067 15.666 26.6668 15.666H21.3335C19.9334 15.666 19.2333 15.666 18.6985 15.9385C18.2281 16.1782 17.8457 16.5606 17.606 17.031C17.3335 17.5658 17.3335 18.2659 17.3335 19.666V28.3327C17.3335 29.7328 17.3335 30.4329 17.606 30.9677C17.8457 31.4381 18.2281 31.8205 18.6985 32.0602C19.2333 32.3327 19.9334 32.3327 21.3335 32.3327H25.6668M25.6668 23.166H20.6668M22.3335 26.4993H20.6668M27.3335 19.8327H20.6668M27.7502 26.5012C27.897 26.0838 28.1868 25.7319 28.5683 25.5077C28.9497 25.2835 29.3982 25.2015 29.8343 25.2763C30.2704 25.3511 30.666 25.5779 30.9509 25.9164C31.2359 26.2549 31.3919 26.6833 31.3912 27.1257C31.3912 28.3748 29.5176 28.9993 29.5176 28.9993M29.5417 31.4993H29.5501" stroke="#FCFCFC" stroke-width="1.5" stroke-linecap="round" stroke-linejoin="round"/>
<defs>
<linearGradient id="paint0_linear_251_3025" x1="5.28019" y1="8.5819" x2="40.0043" y2="42.1638" gradientUnits="userSpaceOnUse">
<stop stop-color="#83E2ED"/>
<stop offset="1" stop-color="#0F6FEF"/>
</linearGradient>
</defs>
</svg>
