<svg width="49" height="39" viewBox="0 0 49 39" fill="none" xmlns="http://www.w3.org/2000/svg">
<path d="M24.0897 0.00192303C28.4784 0.00192303 32.8656 -0.00240378 37.2543 0.00192303C42.6461 0.00769211 47.1177 3.76193 48.0464 9.09256C48.1852 9.89157 48.2238 10.7194 48.2181 11.5329C48.1952 14.4636 48.2739 17.3928 48.158 20.3264C48.0822 22.2403 47.6357 23.9883 46.6097 25.569C44.6021 28.6598 41.8562 30.5564 38.0986 30.793C37.3359 30.8405 36.5775 30.8824 35.8148 30.8824C27.4195 30.8795 19.0257 30.878 10.6304 30.8579C10.2254 30.8579 9.94211 31.0165 9.67167 31.2502C7.16038 33.4251 4.65196 35.6029 2.14783 37.788C1.72427 38.1572 1.3093 38.5754 0.699723 38.323C0.0715443 38.0634 0 37.4779 0 36.8721C0.00572373 27.9546 -0.00715379 19.037 0.0143102 10.118C0.0243267 5.90225 3.50435 1.58986 7.74993 0.446145C8.83601 0.153364 9.93496 -0.00528533 11.0683 0.00048375C15.4083 0.0192333 19.7497 0.00769334 24.0897 0.00769334V0.00192303ZM40.0647 14.3092C40.0675 11.2502 37.6264 8.84016 34.5241 8.83871C31.4962 8.83727 29.088 11.1867 29.0866 14.1463C29.0851 17.4505 31.3889 19.7798 34.6557 19.774C37.6106 19.7697 40.0632 17.2933 40.0647 14.3092ZM8.17205 14.2862C8.16919 17.413 10.4444 19.7293 13.4808 19.7841C16.4385 19.8389 18.9069 17.5673 19.0042 14.2833C19.0944 11.2762 16.5516 8.83439 13.5137 8.83294C10.453 8.83294 8.17491 11.1579 8.17205 14.2862Z" fill="url(#paint0_linear_251_3042)"/>
<defs>
<linearGradient id="paint0_linear_251_3042" x1="46.076" y1="27.1868" x2="1.98509" y2="3.0348" gradientUnits="userSpaceOnUse">
<stop stop-color="#2982FF"/>
<stop offset="1" stop-color="#86E5EC"/>
</linearGradient>
</defs>
</svg>
