<svg width="48" height="48" viewBox="0 0 48 48" fill="none" xmlns="http://www.w3.org/2000/svg">
<rect width="48" height="48" rx="24" fill="url(#paint0_linear_251_3052)"/>
<path d="M19.4167 19.4167H19.425M28.5833 19.4167H28.5917M19.4167 28.5833H19.425M24.8333 24.8333H24.8417M28.5833 28.5833H28.5917M28.1667 31.5H31.5V28.1667M25.6667 27.75V31.5M31.5 25.6667H27.75M27 22.3333H30.1667C30.6334 22.3333 30.8667 22.3333 31.045 22.2425C31.2018 22.1626 31.3293 22.0351 31.4092 21.8783C31.5 21.7001 31.5 21.4667 31.5 21V17.8333C31.5 17.3666 31.5 17.1333 31.4092 16.955C31.3293 16.7982 31.2018 16.6707 31.045 16.5908C30.8667 16.5 30.6334 16.5 30.1667 16.5H27C26.5333 16.5 26.2999 16.5 26.1217 16.5908C25.9649 16.6707 25.8374 16.7982 25.7575 16.955C25.6667 17.1333 25.6667 17.3666 25.6667 17.8333V21C25.6667 21.4667 25.6667 21.7001 25.7575 21.8783C25.8374 22.0351 25.9649 22.1626 26.1217 22.2425C26.2999 22.3333 26.5333 22.3333 27 22.3333ZM17.8333 22.3333H21C21.4667 22.3333 21.7001 22.3333 21.8783 22.2425C22.0351 22.1626 22.1626 22.0351 22.2425 21.8783C22.3333 21.7001 22.3333 21.4667 22.3333 21V17.8333C22.3333 17.3666 22.3333 17.1333 22.2425 16.955C22.1626 16.7982 22.0351 16.6707 21.8783 16.5908C21.7001 16.5 21.4667 16.5 21 16.5H17.8333C17.3666 16.5 17.1333 16.5 16.955 16.5908C16.7982 16.6707 16.6707 16.7982 16.5908 16.955C16.5 17.1333 16.5 17.3666 16.5 17.8333V21C16.5 21.4667 16.5 21.7001 16.5908 21.8783C16.6707 22.0351 16.7982 22.1626 16.955 22.2425C17.1333 22.3333 17.3666 22.3333 17.8333 22.3333ZM17.8333 31.5H21C21.4667 31.5 21.7001 31.5 21.8783 31.4092C22.0351 31.3293 22.1626 31.2018 22.2425 31.045C22.3333 30.8667 22.3333 30.6334 22.3333 30.1667V27C22.3333 26.5333 22.3333 26.2999 22.2425 26.1217C22.1626 25.9649 22.0351 25.8374 21.8783 25.7575C21.7001 25.6667 21.4667 25.6667 21 25.6667H17.8333C17.3666 25.6667 17.1333 25.6667 16.955 25.7575C16.7982 25.8374 16.6707 25.9649 16.5908 26.1217C16.5 26.2999 16.5 26.5333 16.5 27V30.1667C16.5 30.6334 16.5 30.8667 16.5908 31.045C16.6707 31.2018 16.7982 31.3293 16.955 31.4092C17.1333 31.5 17.3666 31.5 17.8333 31.5Z" stroke="#FCFCFC" stroke-width="1.5" stroke-linecap="round" stroke-linejoin="round"/>
<defs>
<linearGradient id="paint0_linear_251_3052" x1="5.28019" y1="8.5819" x2="40.0043" y2="42.1638" gradientUnits="userSpaceOnUse">
<stop stop-color="#83E2ED"/>
<stop offset="1" stop-color="#0F6FEF"/>
</linearGradient>
</defs>
</svg>
