<svg width="32" height="32" viewBox="0 0 32 32" fill="none" xmlns="http://www.w3.org/2000/svg">
<path d="M15.9998 2.66602C19.3349 6.31715 21.2302 11.0554 21.3332 15.9993C21.2302 20.9433 19.3349 25.6815 15.9998 29.3327M15.9998 2.66602C12.6648 6.31715 10.7695 11.0554 10.6665 15.9993C10.7695 20.9433 12.6648 25.6815 15.9998 29.3327M15.9998 2.66602C8.63604 2.66602 2.6665 8.63555 2.6665 15.9993C2.6665 23.3631 8.63604 29.3327 15.9998 29.3327M15.9998 2.66602C23.3636 2.66602 29.3332 8.63555 29.3332 15.9993C29.3332 23.3631 23.3636 29.3327 15.9998 29.3327M3.3332 11.9993H28.6665M3.33317 19.9993H28.6665" stroke="#2C85FE" stroke-width="2" stroke-linecap="round" stroke-linejoin="round"/>
</svg>
