<svg width="718" height="489" viewBox="0 0 718 489" fill="none" xmlns="http://www.w3.org/2000/svg">
<g filter="url(#filter0_d_284_5479)">
<mask id="path-1-inside-1_284_5479" fill="white">
<path d="M15 44.3962C15 22.6383 32.6383 5 54.3962 5H663.604C685.362 5 703 22.6383 703 44.3962V424.472C703 446.23 685.362 463.868 663.604 463.868H54.3963C32.6383 463.868 15 446.23 15 424.472V44.3962Z"/>
</mask>
<path d="M15 44.3962C15 22.6383 32.6383 5 54.3962 5H663.604C685.362 5 703 22.6383 703 44.3962V424.472C703 446.23 685.362 463.868 663.604 463.868H54.3963C32.6383 463.868 15 446.23 15 424.472V44.3962Z" fill="#FCFCFC" shape-rendering="crispEdges"/>
<path d="M54.3962 5V6.64151H663.604V5V3.35849H54.3962V5ZM703 44.3962H701.359V424.472H703H704.641V44.3962H703ZM663.604 463.868V462.226H54.3963V463.868V465.509H663.604V463.868ZM15 424.472H16.6415V44.3962H15H13.3585V424.472H15ZM54.3963 463.868V462.226C33.5449 462.226 16.6415 445.323 16.6415 424.472H15H13.3585C13.3585 447.136 31.7317 465.509 54.3963 465.509V463.868ZM703 424.472H701.359C701.359 445.323 684.455 462.226 663.604 462.226V463.868V465.509C686.268 465.509 704.641 447.136 704.641 424.472H703ZM663.604 5V6.64151C684.455 6.64151 701.359 23.5449 701.359 44.3962H703H704.641C704.641 21.7317 686.268 3.35849 663.604 3.35849V5ZM54.3962 5V3.35849C31.7317 3.35849 13.3585 21.7317 13.3585 44.3962H15H16.6415C16.6415 23.5449 33.5449 6.64151 54.3962 6.64151V5Z" fill="#E5E7EB" mask="url(#path-1-inside-1_284_5479)"/>
<rect x="65.6416" y="55.6406" width="585.66" height="357.585" rx="25.2642" stroke="#CBD5E1" stroke-width="2" stroke-dasharray="9.85 6.57"/>
<rect x="310.472" y="135.434" width="96" height="96" rx="48" fill="url(#paint0_linear_284_5479)"/>
<path d="M345.139 190.504C343.129 189.159 341.805 186.867 341.805 184.267C341.805 180.361 344.791 177.152 348.605 176.799C349.385 172.054 353.506 168.434 358.472 168.434C363.438 168.434 367.559 172.054 368.339 176.799C372.153 177.152 375.139 180.361 375.139 184.267C375.139 186.867 373.815 189.159 371.805 190.504M351.805 190.1L358.472 183.434M358.472 183.434L365.139 190.1M358.472 183.434V198.434" stroke="#FCFCFC" stroke-width="3" stroke-linecap="round" stroke-linejoin="round"/>
<path d="M244.589 288.434V286.442H247.469V288.434H244.589ZM242.357 288.434V271.298H244.589V288.434H242.357ZM247.469 288.434V286.442C247.549 286.442 247.621 286.466 247.685 286.514C247.749 286.562 247.797 286.626 247.829 286.706C247.861 286.786 247.885 286.89 247.901 287.018C247.933 287.13 247.949 287.266 247.949 287.426C247.949 287.57 247.933 287.706 247.901 287.834C247.885 287.962 247.861 288.074 247.829 288.17C247.797 288.25 247.749 288.314 247.685 288.362C247.621 288.41 247.549 288.434 247.469 288.434ZM252.284 288.434V286.442H254.852V288.434H252.284ZM247.46 288.434C247.364 288.434 247.284 288.41 247.22 288.362C247.156 288.314 247.108 288.25 247.076 288.17C247.044 288.074 247.02 287.962 247.004 287.834C246.988 287.706 246.98 287.57 246.98 287.426C246.98 287.218 246.996 287.042 247.028 286.898C247.044 286.754 247.092 286.642 247.172 286.562C247.236 286.482 247.332 286.442 247.46 286.442V288.434ZM247.46 288.434V286.442H251.18L250.028 287.354V276.41H252.284V288.434H247.46ZM254.852 288.434V286.442C254.948 286.442 255.028 286.466 255.092 286.514C255.156 286.562 255.204 286.626 255.236 286.706C255.268 286.786 255.292 286.89 255.308 287.018C255.324 287.13 255.332 287.266 255.332 287.426C255.332 287.57 255.324 287.706 255.308 287.834C255.292 287.962 255.268 288.074 255.236 288.17C255.204 288.25 255.156 288.314 255.092 288.362C255.028 288.41 254.948 288.434 254.852 288.434ZM250.028 274.25V271.922H252.284V274.25H250.028ZM254.843 288.434V286.442H271.475L270.011 287.666V283.586C270.011 282.114 269.787 280.914 269.339 279.986C268.907 279.058 268.243 278.378 267.347 277.946C266.467 277.498 265.347 277.274 263.987 277.274C263.395 277.274 262.763 277.306 262.091 277.37C261.419 277.418 260.755 277.49 260.099 277.586C259.443 277.666 258.843 277.746 258.299 277.826L258.011 276.218C258.427 276.106 258.963 275.978 259.619 275.834C260.291 275.674 261.019 275.538 261.803 275.426C262.603 275.314 263.379 275.258 264.131 275.258C265.155 275.258 266.147 275.394 267.107 275.666C268.083 275.938 268.947 276.394 269.699 277.034C270.467 277.658 271.075 278.506 271.523 279.578C271.987 280.65 272.219 281.986 272.219 283.586V288.434H254.843ZM257.603 286.442V284.714C257.603 283.946 257.795 283.234 258.179 282.578C258.563 281.922 259.091 281.394 259.763 280.994C260.451 280.594 261.211 280.394 262.043 280.394C262.891 280.394 263.643 280.594 264.299 280.994C264.971 281.394 265.499 281.922 265.883 282.578C266.267 283.234 266.459 283.946 266.459 284.714V286.442H264.395V284.714C264.395 284.234 264.283 283.81 264.059 283.442C263.851 283.074 263.571 282.786 263.219 282.578C262.883 282.354 262.491 282.242 262.043 282.242C261.611 282.242 261.211 282.354 260.843 282.578C260.491 282.786 260.203 283.082 259.979 283.466C259.755 283.834 259.643 284.25 259.643 284.714V286.442H257.603ZM254.843 288.434C254.747 288.434 254.667 288.41 254.603 288.362C254.539 288.314 254.491 288.25 254.459 288.17C254.427 288.074 254.403 287.962 254.387 287.834C254.371 287.706 254.363 287.57 254.363 287.426C254.363 287.218 254.379 287.042 254.411 286.898C254.427 286.754 254.475 286.642 254.555 286.562C254.619 286.482 254.715 286.442 254.843 286.442V288.434ZM285.721 288.434C284.329 288.434 283.233 288.226 282.433 287.81C281.633 287.378 281.057 286.722 280.705 285.842C280.369 284.946 280.201 283.818 280.201 282.458C280.201 281.082 280.369 279.946 280.705 279.05C281.057 278.154 281.633 277.49 282.433 277.058C283.233 276.626 284.329 276.41 285.721 276.41H290.809V287.33H288.577V277.634L289.489 278.426H285.721C284.873 278.426 284.209 278.53 283.729 278.738C283.249 278.93 282.913 279.322 282.721 279.914C282.529 280.49 282.433 281.338 282.433 282.458C282.433 283.562 282.529 284.402 282.721 284.978C282.913 285.538 283.241 285.922 283.705 286.13C284.185 286.338 284.857 286.442 285.721 286.442H293.377V288.434H285.721ZM293.377 288.434V286.442C293.473 286.442 293.553 286.466 293.617 286.514C293.681 286.562 293.729 286.626 293.761 286.706C293.793 286.786 293.817 286.89 293.833 287.018C293.849 287.13 293.857 287.266 293.857 287.426C293.857 287.57 293.849 287.706 293.833 287.834C293.817 287.962 293.793 288.074 293.761 288.17C293.729 288.25 293.681 288.314 293.617 288.362C293.553 288.41 293.473 288.434 293.377 288.434ZM283.033 274.25V271.922H285.241V274.25H283.033ZM286.609 274.25V271.922H288.817V274.25H286.609ZM298.534 288.434V286.442H301.246V288.434H298.534ZM301.246 288.434V286.442C301.342 286.442 301.422 286.466 301.486 286.514C301.55 286.562 301.598 286.626 301.63 286.706C301.662 286.786 301.686 286.89 301.702 287.018C301.718 287.13 301.726 287.266 301.726 287.426C301.726 287.57 301.718 287.706 301.702 287.834C301.686 287.962 301.662 288.074 301.63 288.17C301.598 288.25 301.55 288.314 301.486 288.362C301.422 288.41 301.342 288.434 301.246 288.434ZM293.374 288.434C293.278 288.434 293.198 288.41 293.134 288.362C293.07 288.314 293.022 288.25 292.99 288.17C292.958 288.074 292.934 287.962 292.918 287.834C292.902 287.706 292.894 287.57 292.894 287.426C292.894 287.218 292.91 287.042 292.942 286.898C292.958 286.754 293.006 286.642 293.086 286.562C293.15 286.482 293.246 286.442 293.374 286.442V288.434ZM293.374 288.434V286.442H297.454L296.302 287.354V276.41H298.534V288.434H293.374ZM294.31 292.97V290.642H296.518V292.97H294.31ZM297.886 292.97V290.642H300.094V292.97H297.886ZM301.249 288.434V286.442H305.329L304.177 287.354V276.41H306.409V288.434H301.249ZM301.249 288.434C301.153 288.434 301.073 288.41 301.009 288.362C300.945 288.314 300.897 288.25 300.865 288.17C300.833 288.074 300.809 287.962 300.793 287.834C300.777 287.706 300.769 287.57 300.769 287.426C300.769 287.218 300.785 287.042 300.817 286.898C300.833 286.754 300.881 286.642 300.961 286.562C301.025 286.482 301.121 286.442 301.249 286.442V288.434ZM302.401 274.25V271.922H304.609V274.25H302.401ZM305.977 274.25V271.922H308.185V274.25H305.977ZM310.56 288.434V271.298H312.792V288.434H310.56ZM325.422 288.434V286.442H328.014V288.434H325.422ZM316.014 288.434V286.442H324.894L323.19 287.954V283.034C323.19 281.866 323.054 280.946 322.782 280.274C322.526 279.602 322.102 279.13 321.51 278.858C320.918 278.57 320.118 278.426 319.11 278.426H317.166V276.41H319.11C320.438 276.41 321.574 276.626 322.518 277.058C323.462 277.474 324.182 278.17 324.678 279.146C325.174 280.106 325.422 281.402 325.422 283.034V288.434H316.014ZM328.014 288.434V286.442C328.094 286.442 328.166 286.466 328.23 286.514C328.294 286.562 328.342 286.626 328.374 286.706C328.406 286.786 328.43 286.89 328.446 287.018C328.478 287.13 328.494 287.266 328.494 287.426C328.494 287.57 328.478 287.706 328.446 287.834C328.43 287.962 328.406 288.074 328.374 288.17C328.342 288.25 328.294 288.314 328.23 288.362C328.166 288.41 328.094 288.434 328.014 288.434ZM317.67 274.25V271.922H319.926V274.25H317.67ZM330.871 288.434V271.298H333.103V288.434H330.871ZM328.015 288.434V286.442H330.871V288.434H328.015ZM328.015 288.434C327.919 288.434 327.839 288.41 327.775 288.362C327.711 288.314 327.663 288.25 327.631 288.17C327.599 288.074 327.575 287.962 327.559 287.834C327.543 287.706 327.535 287.57 327.535 287.426C327.535 287.218 327.551 287.042 327.583 286.898C327.599 286.754 327.647 286.642 327.727 286.562C327.791 286.482 327.887 286.442 328.015 286.442V288.434ZM337.161 288.434V271.298H339.393V288.434H337.161ZM364.377 288.434V286.442H366.945V288.434H364.377ZM355.209 288.434C353.593 288.434 352.241 288.242 351.153 287.858C350.065 287.458 349.241 286.866 348.681 286.082C348.137 285.298 347.865 284.298 347.865 283.082C347.865 282.698 347.889 282.29 347.937 281.858C348.001 281.41 348.065 280.978 348.129 280.562C348.209 280.146 348.281 279.786 348.345 279.482C348.409 279.178 348.457 278.962 348.489 278.834L350.673 279.242C350.625 279.498 350.553 279.842 350.457 280.274C350.377 280.706 350.297 281.17 350.217 281.666C350.137 282.162 350.097 282.634 350.097 283.082C350.097 283.674 350.193 284.186 350.385 284.618C350.577 285.05 350.873 285.402 351.273 285.674C351.689 285.946 352.217 286.146 352.857 286.274C353.513 286.386 354.313 286.442 355.257 286.442H363.273L362.121 287.354V271.298H364.377V288.434H355.209ZM366.945 288.434V286.442C367.041 286.442 367.121 286.466 367.185 286.514C367.249 286.562 367.297 286.626 367.329 286.706C367.361 286.786 367.385 286.89 367.401 287.018C367.417 287.13 367.425 287.266 367.425 287.426C367.425 287.57 367.417 287.706 367.401 287.834C367.385 287.962 367.361 288.074 367.329 288.17C367.297 288.25 367.249 288.314 367.185 288.362C367.121 288.41 367.041 288.434 366.945 288.434ZM354.921 279.914C354.649 279.578 354.441 279.258 354.297 278.954C354.153 278.634 354.081 278.298 354.081 277.946C354.081 277.466 354.201 277.034 354.441 276.65C354.697 276.266 355.025 275.962 355.425 275.738C355.841 275.514 356.281 275.402 356.745 275.402C357.017 275.402 357.289 275.442 357.561 275.522C357.833 275.602 358.073 275.706 358.281 275.834L357.609 277.01C357.481 276.93 357.353 276.882 357.225 276.866C357.097 276.834 356.969 276.818 356.841 276.818C356.457 276.818 356.161 276.922 355.953 277.13C355.745 277.338 355.641 277.61 355.641 277.946C355.641 278.154 355.681 278.354 355.761 278.546C355.841 278.722 355.969 278.922 356.145 279.146L354.921 279.914ZM353.601 279.962V278.57H358.617V279.962H353.601ZM366.944 288.434V286.442H371.024L369.872 287.354V276.41H372.104V288.434H366.944ZM366.944 288.434C366.848 288.434 366.768 288.41 366.704 288.362C366.64 288.314 366.592 288.25 366.56 288.17C366.528 288.074 366.504 287.962 366.488 287.834C366.472 287.706 366.464 287.57 366.464 287.426C366.464 287.218 366.48 287.042 366.512 286.898C366.528 286.754 366.576 286.642 366.656 286.562C366.72 286.482 366.816 286.442 366.944 286.442V288.434ZM368.096 274.25V271.922H370.304V274.25H368.096ZM371.672 274.25V271.922H373.88V274.25H371.672ZM384.175 288.434V276.41H386.407V287.354L385.279 286.442H389.119V288.434H384.175ZM379.039 280.802V278.786H384.175V280.802H379.039ZM374.407 293.93C374.199 293.93 373.983 293.914 373.759 293.882C373.519 293.866 373.279 293.85 373.039 293.834L373.231 291.842C373.471 291.858 373.695 291.874 373.903 291.89C374.095 291.906 374.255 291.914 374.383 291.914C375.103 291.914 375.679 291.642 376.111 291.098C376.559 290.554 376.783 289.794 376.783 288.818V276.41H379.039V288.818C379.039 289.826 378.839 290.714 378.439 291.482C378.039 292.25 377.495 292.85 376.807 293.282C376.119 293.714 375.319 293.93 374.407 293.93ZM389.119 288.434V286.442C389.215 286.442 389.295 286.466 389.359 286.514C389.423 286.562 389.471 286.626 389.503 286.706C389.535 286.786 389.559 286.89 389.575 287.018C389.591 287.13 389.599 287.266 389.599 287.426C389.599 287.57 389.591 287.706 389.575 287.834C389.559 287.962 389.535 288.074 389.503 288.17C389.471 288.25 389.423 288.314 389.359 288.362C389.295 288.41 389.215 288.434 389.119 288.434ZM382.423 292.97V290.642H384.631V292.97H382.423ZM385.999 292.97V290.642H388.207V292.97H385.999ZM402.148 288.434C401.572 288.434 401.004 288.33 400.444 288.122C399.9 287.898 399.38 287.554 398.884 287.09L400.3 285.602C400.652 285.89 400.972 286.106 401.26 286.25C401.548 286.378 401.844 286.442 402.148 286.442H406.492L405.508 287.402V281.786C405.508 281.498 405.476 281.098 405.412 280.586C405.364 280.058 405.284 279.466 405.172 278.81C405.076 278.138 404.956 277.458 404.812 276.77L406.996 276.41C407.108 276.986 407.22 277.618 407.332 278.306C407.444 278.994 407.54 279.65 407.62 280.274C407.7 280.898 407.74 281.402 407.74 281.786V288.434H402.148ZM389.116 288.434V286.442H392.62L392.068 286.994V278.834H394.3V288.434H389.116ZM394.3 288.434V286.442H396.796C397.34 286.442 397.748 286.362 398.02 286.202C398.292 286.042 398.484 285.722 398.596 285.242C398.708 284.762 398.764 284.058 398.764 283.13V277.634H401.02V283.13C401.02 284.426 400.868 285.466 400.564 286.25C400.276 287.034 399.828 287.594 399.22 287.93C398.612 288.266 397.804 288.434 396.796 288.434H394.3ZM389.116 288.434C389.02 288.434 388.94 288.41 388.876 288.362C388.812 288.314 388.764 288.25 388.732 288.17C388.7 288.074 388.676 287.962 388.66 287.834C388.644 287.706 388.636 287.57 388.636 287.426C388.636 287.218 388.652 287.042 388.684 286.898C388.7 286.754 388.748 286.642 388.828 286.562C388.892 286.482 388.988 286.442 389.116 286.442V288.434ZM431.605 288.434V286.442H434.197V288.434H431.605ZM415.237 288.434V286.442H431.389L429.373 288.218V282.722C429.373 281.746 429.237 280.946 428.965 280.322C428.709 279.682 428.317 279.21 427.789 278.906C427.261 278.586 426.605 278.426 425.821 278.426C425.133 278.426 424.485 278.546 423.877 278.786C423.269 279.026 422.709 279.346 422.197 279.746C421.685 280.13 421.205 280.554 420.757 281.018C420.309 281.482 419.901 281.946 419.533 282.41C419.181 282.874 418.861 283.29 418.573 283.658L417.901 281.786C418.445 281.098 418.981 280.442 419.509 279.818C420.037 279.178 420.605 278.602 421.213 278.09C421.837 277.578 422.525 277.17 423.277 276.866C424.045 276.562 424.925 276.41 425.917 276.41C427.037 276.41 427.965 276.602 428.701 276.986C429.437 277.37 430.013 277.874 430.429 278.498C430.861 279.122 431.165 279.81 431.341 280.562C431.517 281.298 431.605 282.018 431.605 282.722V288.434H415.237ZM416.845 286.442V271.298H419.077V286.442H416.845ZM434.197 288.434V286.442C434.293 286.442 434.373 286.466 434.437 286.514C434.501 286.562 434.549 286.626 434.581 286.706C434.613 286.786 434.637 286.89 434.653 287.018C434.669 287.13 434.677 287.266 434.677 287.426C434.677 287.57 434.669 287.706 434.653 287.834C434.637 287.962 434.613 288.074 434.581 288.17C434.549 288.25 434.501 288.314 434.437 288.362C434.373 288.41 434.293 288.434 434.197 288.434ZM447.123 288.434V286.442H449.691V288.434H447.123ZM434.187 288.434C434.091 288.434 434.011 288.41 433.947 288.362C433.883 288.314 433.835 288.25 433.803 288.17C433.771 288.074 433.747 287.962 433.731 287.834C433.715 287.706 433.707 287.57 433.707 287.426C433.707 287.218 433.723 287.042 433.755 286.898C433.771 286.754 433.819 286.642 433.899 286.562C433.963 286.482 434.059 286.442 434.187 286.442V288.434ZM434.187 288.434V286.442H446.043L444.891 287.45V277.634L445.827 278.426H442.035C441.171 278.426 440.499 278.53 440.019 278.738C439.539 278.946 439.203 279.338 439.011 279.914C438.835 280.49 438.747 281.33 438.747 282.434C438.747 283.538 438.835 284.378 439.011 284.954C439.203 285.53 439.539 285.922 440.019 286.13C440.499 286.338 441.171 286.442 442.035 286.442V288.002C440.643 288.002 439.547 287.826 438.747 287.474C437.947 287.122 437.371 286.538 437.019 285.722C436.683 284.906 436.515 283.81 436.515 282.434C436.515 281.074 436.683 279.954 437.019 279.074C437.371 278.178 437.947 277.514 438.747 277.082C439.547 276.634 440.643 276.41 442.035 276.41H447.123V288.434H434.187ZM449.691 288.434V286.442C449.787 286.442 449.867 286.466 449.931 286.514C449.995 286.562 450.043 286.626 450.075 286.706C450.107 286.786 450.131 286.89 450.147 287.018C450.163 287.13 450.171 287.266 450.171 287.426C450.171 287.57 450.163 287.706 450.147 287.834C450.131 287.962 450.107 288.074 450.075 288.17C450.043 288.25 449.995 288.314 449.931 288.362C449.867 288.41 449.787 288.434 449.691 288.434ZM439.491 274.25V271.922H441.699V274.25H439.491ZM443.067 274.25V271.922H445.275V274.25H443.067ZM462.734 288.434C462.158 288.434 461.59 288.33 461.03 288.122C460.486 287.898 459.966 287.554 459.47 287.09L460.886 285.602C461.238 285.89 461.558 286.106 461.846 286.25C462.134 286.378 462.43 286.442 462.734 286.442H467.078L466.094 287.402V281.786C466.094 281.498 466.062 281.098 465.998 280.586C465.95 280.058 465.87 279.466 465.758 278.81C465.662 278.138 465.542 277.458 465.398 276.77L467.582 276.41C467.694 276.986 467.806 277.618 467.918 278.306C468.03 278.994 468.126 279.65 468.206 280.274C468.286 280.898 468.326 281.402 468.326 281.786V288.434H462.734ZM449.702 288.434V286.442H453.206L452.654 286.994V278.834H454.886V288.434H449.702ZM454.886 288.434V286.442H457.382C457.926 286.442 458.334 286.362 458.606 286.202C458.878 286.042 459.07 285.722 459.182 285.242C459.294 284.762 459.35 284.058 459.35 283.13V277.634H461.606V283.13C461.606 284.426 461.454 285.466 461.15 286.25C460.862 287.034 460.414 287.594 459.806 287.93C459.198 288.266 458.39 288.434 457.382 288.434H454.886ZM449.702 288.434C449.606 288.434 449.526 288.41 449.462 288.362C449.398 288.314 449.35 288.25 449.318 288.17C449.286 288.074 449.262 287.962 449.246 287.834C449.23 287.706 449.222 287.57 449.222 287.426C449.222 287.218 449.238 287.042 449.27 286.898C449.286 286.754 449.334 286.642 449.414 286.562C449.478 286.482 449.574 286.442 449.702 286.442V288.434ZM472.349 288.434V271.298H474.581V288.434H472.349ZM472.277 269.618C472.005 269.282 471.797 268.962 471.653 268.658C471.509 268.338 471.437 268.002 471.437 267.65C471.437 267.17 471.557 266.738 471.797 266.354C472.053 265.97 472.381 265.666 472.781 265.442C473.197 265.218 473.637 265.106 474.101 265.106C474.373 265.106 474.645 265.146 474.917 265.226C475.189 265.306 475.429 265.41 475.637 265.538L474.965 266.714C474.837 266.634 474.709 266.586 474.581 266.57C474.453 266.538 474.325 266.522 474.197 266.522C473.813 266.522 473.517 266.626 473.309 266.834C473.101 267.042 472.997 267.314 472.997 267.65C472.997 267.858 473.037 268.058 473.117 268.25C473.197 268.426 473.325 268.626 473.501 268.85L472.277 269.618ZM470.957 269.666V268.274H475.973V269.666H470.957Z" fill="#333333"/>
<path d="M287.35 326.434C285.898 326.434 284.688 326.265 283.72 325.928C282.752 325.59 282.026 325.077 281.542 324.388C281.058 323.698 280.816 322.818 280.816 321.748C280.816 321.396 280.838 321.014 280.882 320.604C280.94 320.193 281.006 319.797 281.08 319.416C281.153 319.02 281.219 318.682 281.278 318.404C281.336 318.11 281.373 317.912 281.388 317.81L283.06 318.118C283.016 318.352 282.95 318.675 282.862 319.086C282.788 319.496 282.715 319.936 282.642 320.406C282.568 320.875 282.532 321.322 282.532 321.748C282.532 322.29 282.612 322.76 282.774 323.156C282.95 323.552 283.221 323.882 283.588 324.146C283.969 324.395 284.468 324.578 285.084 324.696C285.7 324.813 286.455 324.872 287.35 324.872H294.61L293.818 325.51V310.66H295.534V326.434H287.35ZM287.152 318.822C286.917 318.528 286.734 318.242 286.602 317.964C286.484 317.685 286.426 317.392 286.426 317.084C286.426 316.658 286.528 316.277 286.734 315.94C286.954 315.602 287.24 315.338 287.592 315.148C287.944 314.957 288.325 314.862 288.736 314.862C288.97 314.862 289.205 314.898 289.44 314.972C289.674 315.03 289.88 315.118 290.056 315.236L289.484 316.226C289.366 316.152 289.249 316.108 289.132 316.094C289.029 316.064 288.919 316.05 288.802 316.05C288.464 316.05 288.193 316.145 287.988 316.336C287.797 316.526 287.702 316.776 287.702 317.084C287.702 317.274 287.738 317.458 287.812 317.634C287.9 317.81 288.024 318 288.186 318.206L287.152 318.822ZM286.008 318.822V317.656H290.342V318.822H286.008ZM297.386 331.296C297.195 331.296 296.997 331.281 296.791 331.252C296.571 331.237 296.359 331.222 296.153 331.208L296.351 329.646C296.557 329.66 296.747 329.675 296.923 329.69C297.099 329.719 297.254 329.734 297.386 329.734C298.075 329.734 298.632 329.47 299.058 328.942C299.483 328.428 299.696 327.71 299.696 326.786V315.434H301.412V326.786C301.412 327.68 301.236 328.465 300.884 329.14C300.546 329.829 300.077 330.357 299.476 330.724C298.874 331.105 298.178 331.296 297.386 331.296ZM299.696 313.454V311.474H301.412V313.454H299.696ZM306.773 326.434V324.872H309.457V326.434H306.773ZM305.079 326.434V310.66H306.773V326.434H305.079ZM309.457 326.434V324.872C309.545 324.872 309.618 324.894 309.677 324.938C309.735 324.967 309.779 325.018 309.809 325.092C309.838 325.15 309.86 325.231 309.875 325.334C309.889 325.422 309.897 325.524 309.897 325.642C309.897 325.759 309.889 325.869 309.875 325.972C309.86 326.074 309.838 326.162 309.809 326.236C309.779 326.294 309.735 326.346 309.677 326.39C309.618 326.419 309.545 326.434 309.457 326.434ZM309.455 326.434V324.872H321.599L319.905 326.434V321.044C319.905 320.032 319.788 319.232 319.553 318.646C319.318 318.059 318.922 317.641 318.365 317.392C317.808 317.128 317.052 316.996 316.099 316.996C315.439 316.996 314.808 317.04 314.207 317.128C313.606 317.216 313.129 317.333 312.777 317.48L313.811 316.424C313.723 316.776 313.635 317.223 313.547 317.766C313.474 318.294 313.408 318.873 313.349 319.504C313.29 320.12 313.261 320.736 313.261 321.352C313.261 321.982 313.29 322.598 313.349 323.2C313.408 323.786 313.474 324.3 313.547 324.74C313.62 325.18 313.679 325.488 313.723 325.664L312.095 326.126C312.036 325.935 311.963 325.605 311.875 325.136C311.787 324.652 311.706 324.087 311.633 323.442C311.574 322.782 311.545 322.085 311.545 321.352C311.545 320.618 311.574 319.907 311.633 319.218C311.706 318.528 311.794 317.912 311.897 317.37C312 316.812 312.088 316.365 312.161 316.028C312.484 315.896 312.997 315.764 313.701 315.632C314.405 315.5 315.19 315.434 316.055 315.434C317.287 315.434 318.314 315.617 319.135 315.984C319.956 316.35 320.572 316.944 320.983 317.766C321.394 318.572 321.599 319.665 321.599 321.044V326.434H309.455ZM316.033 331.868C315.182 331.868 314.405 331.824 313.701 331.736C312.997 331.662 312.484 331.582 312.161 331.494C312.088 331.274 312 330.988 311.897 330.636C311.794 330.298 311.706 329.91 311.633 329.47C311.574 329.03 311.545 328.575 311.545 328.106C311.545 327.636 311.574 327.196 311.633 326.786C311.706 326.375 311.787 326.023 311.875 325.73C311.963 325.422 312.036 325.209 312.095 325.092L313.635 325.73C313.591 325.847 313.54 326.045 313.481 326.324C313.422 326.602 313.371 326.903 313.327 327.226C313.283 327.563 313.261 327.871 313.261 328.15C313.261 328.443 313.283 328.758 313.327 329.096C313.371 329.433 313.43 329.763 313.503 330.086C313.591 330.408 313.679 330.694 313.767 330.944L312.623 329.976C312.96 330.078 313.452 330.159 314.097 330.218C314.757 330.276 315.424 330.306 316.099 330.306C317.111 330.306 317.888 330.24 318.431 330.108C318.988 329.976 319.37 329.763 319.575 329.47C319.795 329.176 319.905 328.788 319.905 328.304V324.872H321.599V328.304C321.599 329.169 321.394 329.866 320.983 330.394C320.572 330.922 319.956 331.296 319.135 331.516C318.314 331.75 317.28 331.868 316.033 331.868ZM321.599 326.434V324.872H323.975V326.434H321.599ZM323.975 326.434V324.872C324.063 324.872 324.136 324.894 324.195 324.938C324.254 324.967 324.298 325.018 324.327 325.092C324.356 325.15 324.378 325.231 324.393 325.334C324.408 325.422 324.415 325.524 324.415 325.642C324.415 325.759 324.408 325.869 324.393 325.972C324.378 326.074 324.356 326.162 324.327 326.236C324.298 326.294 324.254 326.346 324.195 326.39C324.136 326.419 324.063 326.434 323.975 326.434ZM309.455 326.434C309.367 326.434 309.294 326.419 309.235 326.39C309.176 326.346 309.132 326.294 309.103 326.236C309.074 326.162 309.052 326.074 309.037 325.972C309.022 325.869 309.015 325.759 309.015 325.642C309.015 325.48 309.03 325.348 309.059 325.246C309.074 325.128 309.118 325.04 309.191 324.982C309.25 324.908 309.338 324.872 309.455 324.872V326.434ZM323.979 326.434V324.872H333.681L333.153 325.334V319.878C333.153 318.924 332.852 318.213 332.251 317.744C331.664 317.26 330.762 317.018 329.545 317.018C329.163 317.018 328.613 317.054 327.895 317.128C327.176 317.186 326.421 317.274 325.629 317.392L325.431 315.984C326.032 315.837 326.692 315.712 327.411 315.61C328.129 315.492 328.826 315.434 329.501 315.434C330.615 315.434 331.569 315.61 332.361 315.962C333.167 316.299 333.783 316.798 334.209 317.458C334.649 318.118 334.869 318.924 334.869 319.878V326.434H323.979ZM323.979 326.434C323.891 326.434 323.817 326.419 323.759 326.39C323.7 326.346 323.656 326.294 323.627 326.236C323.597 326.162 323.575 326.074 323.561 325.972C323.546 325.869 323.539 325.759 323.539 325.642C323.539 325.48 323.553 325.348 323.583 325.246C323.597 325.128 323.641 325.04 323.715 324.982C323.773 324.908 323.861 324.872 323.979 324.872V326.434ZM328.643 330.394V328.414H330.359V330.394H328.643ZM354.018 326.434V324.872H356.394V326.434H354.018ZM348.078 331.89C346.919 331.89 345.87 331.677 344.932 331.252C343.993 330.826 343.252 330.232 342.71 329.47C342.167 328.707 341.896 327.834 341.896 326.852C341.896 326.544 341.918 326.14 341.962 325.642C342.02 325.128 342.086 324.564 342.16 323.948C342.248 323.317 342.343 322.686 342.446 322.056C342.548 321.41 342.644 320.802 342.732 320.23L344.426 320.494C344.264 321.506 344.118 322.444 343.986 323.31C343.868 324.16 343.773 324.894 343.7 325.51C343.641 326.111 343.612 326.558 343.612 326.852C343.612 327.526 343.795 328.12 344.162 328.634C344.543 329.162 345.071 329.572 345.746 329.866C346.42 330.174 347.198 330.328 348.078 330.328C348.958 330.328 349.713 330.188 350.344 329.91C350.974 329.631 351.458 329.242 351.796 328.744C352.133 328.245 352.302 327.658 352.302 326.984V315.434H354.018V326.984C354.018 328.01 353.746 328.89 353.204 329.624C352.676 330.357 351.964 330.914 351.07 331.296C350.175 331.692 349.178 331.89 348.078 331.89ZM356.394 326.434V324.872C356.482 324.872 356.555 324.894 356.614 324.938C356.672 324.967 356.716 325.018 356.746 325.092C356.775 325.15 356.797 325.231 356.812 325.334C356.826 325.422 356.834 325.524 356.834 325.642C356.834 325.759 356.826 325.869 356.812 325.972C356.797 326.074 356.775 326.162 356.746 326.236C356.716 326.294 356.672 326.346 356.614 326.39C356.555 326.419 356.482 326.434 356.394 326.434ZM347.132 315.434V313.454H348.848V315.434H347.132ZM356.398 326.434V324.872H368.432L367.156 325.774V321.044C367.156 320.017 367.039 319.21 366.804 318.624C366.57 318.037 366.166 317.619 365.594 317.37C365.037 317.12 364.274 316.996 363.306 316.996C362.69 316.996 362.074 317.04 361.458 317.128C360.857 317.216 360.388 317.333 360.05 317.48L361.084 316.424C360.996 316.776 360.908 317.223 360.82 317.766C360.732 318.294 360.659 318.866 360.6 319.482C360.542 320.098 360.512 320.714 360.512 321.33C360.512 321.96 360.542 322.576 360.6 323.178C360.659 323.779 360.725 324.3 360.798 324.74C360.872 325.18 360.93 325.488 360.974 325.664L359.346 326.126C359.288 325.935 359.214 325.605 359.126 325.136C359.053 324.666 358.98 324.102 358.906 323.442C358.848 322.782 358.818 322.078 358.818 321.33C358.818 320.611 358.848 319.914 358.906 319.24C358.98 318.55 359.06 317.927 359.148 317.37C359.251 316.812 359.346 316.365 359.434 316.028C359.757 315.896 360.27 315.764 360.974 315.632C361.678 315.5 362.456 315.434 363.306 315.434C364.538 315.434 365.565 315.617 366.386 315.984C367.222 316.35 367.846 316.944 368.256 317.766C368.667 318.572 368.872 319.665 368.872 321.044V326.434H356.398ZM356.398 326.434C356.31 326.434 356.237 326.419 356.178 326.39C356.12 326.346 356.076 326.294 356.046 326.236C356.017 326.162 355.995 326.074 355.98 325.972C355.966 325.869 355.958 325.759 355.958 325.642C355.958 325.48 355.973 325.348 356.002 325.246C356.017 325.128 356.061 325.04 356.134 324.982C356.193 324.908 356.281 324.872 356.398 324.872V326.434ZM384.72 331.56L384.984 332.968C384.294 333.114 383.656 333.224 383.07 333.298C382.498 333.386 381.955 333.43 381.442 333.43C380.371 333.43 379.44 333.261 378.648 332.924C377.87 332.601 377.269 332.117 376.844 331.472C376.433 330.826 376.228 330.049 376.228 329.14C376.228 328.436 376.352 327.783 376.602 327.182C376.851 326.58 377.21 326.06 377.68 325.62C378.149 325.165 378.714 324.806 379.374 324.542L380.056 324.256C380.628 324.021 381.207 323.757 381.794 323.464C382.38 323.17 382.945 322.848 383.488 322.496C384.03 322.129 384.514 321.733 384.94 321.308C385.365 320.868 385.702 320.398 385.952 319.9C386.201 319.386 386.326 318.836 386.326 318.25V316.93L387.25 318.316C386.414 317.876 385.578 317.546 384.742 317.326C383.92 317.106 383.121 316.996 382.344 316.996C381.566 316.996 380.767 317.106 379.946 317.326C379.124 317.546 378.296 317.876 377.46 318.316L378.384 316.93V318.25C378.384 318.778 378.523 319.342 378.802 319.944C379.08 320.545 379.462 321.139 379.946 321.726C380.444 322.298 381.031 322.826 381.706 323.31C382.38 323.779 383.121 324.16 383.928 324.454C384.734 324.732 385.578 324.872 386.458 324.872H389.23V326.434H386.458C385.314 326.434 384.243 326.25 383.246 325.884C382.248 325.517 381.346 325.033 380.54 324.432C379.733 323.816 379.036 323.148 378.45 322.43C377.878 321.696 377.438 320.97 377.13 320.252C376.822 319.518 376.668 318.851 376.668 318.25V316.93C377.298 316.592 377.936 316.314 378.582 316.094C379.227 315.874 379.865 315.712 380.496 315.61C381.141 315.492 381.757 315.434 382.344 315.434C382.945 315.434 383.561 315.492 384.192 315.61C384.822 315.712 385.46 315.874 386.106 316.094C386.751 316.314 387.389 316.592 388.02 316.93V318.25C388.02 319.115 387.844 319.9 387.492 320.604C387.14 321.293 386.678 321.909 386.106 322.452C385.548 322.994 384.94 323.471 384.28 323.882C383.62 324.292 382.982 324.644 382.366 324.938C382.219 324.996 382.021 325.084 381.772 325.202C381.537 325.304 381.288 325.414 381.024 325.532C380.774 325.649 380.547 325.752 380.342 325.84C380.151 325.913 380.034 325.964 379.99 325.994C379.638 326.155 379.308 326.368 379 326.632C378.692 326.896 378.435 327.226 378.23 327.622C378.039 328.032 377.944 328.531 377.944 329.118C377.944 330.012 378.222 330.694 378.78 331.164C379.352 331.633 380.239 331.868 381.442 331.868C381.794 331.868 382.234 331.838 382.762 331.78C383.304 331.736 383.957 331.662 384.72 331.56ZM389.23 326.434V324.872C389.318 324.872 389.391 324.894 389.45 324.938C389.508 324.967 389.552 325.018 389.582 325.092C389.611 325.15 389.633 325.231 389.648 325.334C389.662 325.422 389.67 325.524 389.67 325.642C389.67 325.759 389.662 325.869 389.648 325.972C389.633 326.074 389.611 326.162 389.582 326.236C389.552 326.294 389.508 326.346 389.45 326.39C389.391 326.419 389.318 326.434 389.23 326.434ZM389.227 326.434V324.872H400.337L399.193 325.862V316.248L400.095 316.996H396.355C395.504 316.996 394.844 317.098 394.375 317.304C393.92 317.509 393.605 317.898 393.429 318.47C393.253 319.027 393.165 319.848 393.165 320.934C393.165 322.019 393.253 322.848 393.429 323.42C393.605 323.977 393.92 324.358 394.375 324.564C394.844 324.769 395.504 324.872 396.355 324.872V325.994C395.079 325.994 394.081 325.84 393.363 325.532C392.659 325.209 392.16 324.681 391.867 323.948C391.588 323.2 391.449 322.195 391.449 320.934C391.449 319.672 391.588 318.638 391.867 317.832C392.16 317.01 392.659 316.409 393.363 316.028C394.081 315.632 395.079 315.434 396.355 315.434H400.909V326.434H389.227ZM389.227 326.434C389.139 326.434 389.065 326.419 389.007 326.39C388.948 326.346 388.904 326.294 388.875 326.236C388.845 326.162 388.823 326.074 388.809 325.972C388.794 325.869 388.787 325.759 388.787 325.642C388.787 325.48 388.801 325.348 388.831 325.246C388.845 325.128 388.889 325.04 388.963 324.982C389.021 324.908 389.109 324.872 389.227 324.872V326.434ZM395.827 313.454V311.474H397.543V313.454H395.827ZM402.788 331.296C402.597 331.296 402.399 331.281 402.194 331.252C401.974 331.237 401.761 331.222 401.556 331.208L401.754 329.646C401.959 329.66 402.15 329.675 402.326 329.69C402.502 329.719 402.656 329.734 402.788 329.734C403.477 329.734 404.035 329.47 404.46 328.942C404.885 328.428 405.098 327.71 405.098 326.786V315.434H406.814V326.786C406.814 327.68 406.638 328.465 406.286 329.14C405.949 329.829 405.479 330.357 404.878 330.724C404.277 331.105 403.58 331.296 402.788 331.296ZM410.481 326.434V310.66H412.175V326.434H410.481ZM424.237 331.296C423.724 331.296 423.174 331.252 422.587 331.164C422.015 331.09 421.385 330.98 420.695 330.834L420.959 329.448C421.737 329.55 422.382 329.624 422.895 329.668C423.423 329.712 423.871 329.734 424.237 329.734C425.455 329.734 426.342 329.499 426.899 329.03C427.457 328.575 427.735 327.908 427.735 327.028V316.424L428.615 316.996H424.897C424.047 316.996 423.387 317.098 422.917 317.304C422.463 317.509 422.147 317.898 421.971 318.47C421.795 319.027 421.707 319.848 421.707 320.934C421.707 322.019 421.795 322.848 421.971 323.42C422.147 323.977 422.463 324.358 422.917 324.564C423.387 324.769 424.047 324.872 424.897 324.872H427.735V326.434H424.897C423.621 326.434 422.624 326.243 421.905 325.862C421.201 325.466 420.703 324.864 420.409 324.058C420.131 323.236 419.991 322.195 419.991 320.934C419.991 319.672 420.131 318.638 420.409 317.832C420.703 317.01 421.201 316.409 421.905 316.028C422.624 315.632 423.621 315.434 424.897 315.434H429.451V327.006C429.451 327.915 429.239 328.692 428.813 329.338C428.403 329.983 427.809 330.467 427.031 330.79C426.254 331.127 425.323 331.296 424.237 331.296ZM433.212 326.434V310.66H434.906V326.434H433.212ZM433.036 309.208C432.801 308.914 432.618 308.628 432.486 308.35C432.368 308.071 432.31 307.778 432.31 307.47C432.31 307.044 432.412 306.663 432.618 306.326C432.838 305.988 433.124 305.724 433.476 305.534C433.828 305.343 434.209 305.248 434.62 305.248C434.854 305.248 435.089 305.284 435.324 305.358C435.558 305.416 435.764 305.504 435.94 305.622L435.368 306.612C435.25 306.538 435.133 306.494 435.016 306.48C434.913 306.45 434.803 306.436 434.686 306.436C434.348 306.436 434.077 306.531 433.872 306.722C433.681 306.912 433.586 307.162 433.586 307.47C433.586 307.66 433.622 307.844 433.696 308.02C433.784 308.196 433.908 308.386 434.07 308.592L433.036 309.208ZM431.892 309.208V308.042H436.226V309.208H431.892Z" fill="#64748B"/>
</g>
<defs>
<filter id="filter0_d_284_5479" x="0" y="0" width="718" height="488.867" filterUnits="userSpaceOnUse" color-interpolation-filters="sRGB">
<feFlood flood-opacity="0" result="BackgroundImageFix"/>
<feColorMatrix in="SourceAlpha" type="matrix" values="0 0 0 0 0 0 0 0 0 0 0 0 0 0 0 0 0 0 127 0" result="hardAlpha"/>
<feOffset dy="10"/>
<feGaussianBlur stdDeviation="7.5"/>
<feComposite in2="hardAlpha" operator="out"/>
<feColorMatrix type="matrix" values="0 0 0 0 0.231373 0 0 0 0 0.509804 0 0 0 0 0.964706 0 0 0 0.15 0"/>
<feBlend mode="normal" in2="BackgroundImageFix" result="effect1_dropShadow_284_5479"/>
<feBlend mode="normal" in="SourceGraphic" in2="effect1_dropShadow_284_5479" result="shape"/>
</filter>
<linearGradient id="paint0_linear_284_5479" x1="321.032" y1="152.597" x2="390.48" y2="219.761" gradientUnits="userSpaceOnUse">
<stop stop-color="#83E2ED"/>
<stop offset="1" stop-color="#0F6FEF"/>
</linearGradient>
</defs>
</svg>
