<svg width="755" height="508" viewBox="0 0 755 508" fill="none" xmlns="http://www.w3.org/2000/svg">
<g filter="url(#filter0_d_283_5180)">
<mask id="path-1-inside-1_283_5180" fill="white">
<path d="M15 45C15 22.9086 32.9086 5 55 5H700C722.091 5 740 22.9086 740 45V443C740 465.091 722.091 483 700 483H55C32.9086 483 15 465.091 15 443V45Z"/>
</mask>
<path d="M15 45C15 22.9086 32.9086 5 55 5H700C722.091 5 740 22.9086 740 45V443C740 465.091 722.091 483 700 483H55C32.9086 483 15 465.091 15 443V45Z" fill="#FCFCFC" shape-rendering="crispEdges"/>
<path d="M55 5V6.64151H700V5V3.35849H55V5ZM740 45H738.359V443H740H741.641V45H740ZM700 483V481.358H55V483V484.642H700V483ZM15 443H16.6415V45H15H13.3585V443H15ZM55 483V481.358C33.8152 481.358 16.6415 464.185 16.6415 443H15H13.3585C13.3585 465.998 32.0021 484.642 55 484.642V483ZM740 443H738.359C738.359 464.185 721.185 481.358 700 481.358V483V484.642C722.998 484.642 741.641 465.998 741.641 443H740ZM700 5V6.64151C721.185 6.64151 738.359 23.8152 738.359 45H740H741.641C741.641 22.002 722.998 3.35849 700 3.35849V5ZM55 5V3.35849C32.002 3.35849 13.3585 22.002 13.3585 45H15H16.6415C16.6415 23.8152 33.8152 6.64151 55 6.64151V5Z" fill="#E5E7EB" mask="url(#path-1-inside-1_283_5180)"/>
<rect x="329.5" y="130" width="96" height="96" rx="48" fill="url(#paint0_linear_283_5180)"/>
<path d="M368.333 168.833H368.35M386.667 168.833H386.683M368.333 187.167H368.35M379.167 179.667H379.183M386.667 187.167H386.683M385.833 193H392.5V186.333M380.833 185.5V193M392.5 181.333H385M383.5 174.667H389.833C390.767 174.667 391.233 174.667 391.59 174.485C391.904 174.325 392.159 174.07 392.318 173.757C392.5 173.4 392.5 172.933 392.5 172V165.667C392.5 164.733 392.5 164.267 392.318 163.91C392.159 163.596 391.904 163.341 391.59 163.182C391.233 163 390.767 163 389.833 163H383.5C382.567 163 382.1 163 381.743 163.182C381.43 163.341 381.175 163.596 381.015 163.91C380.833 164.267 380.833 164.733 380.833 165.667V172C380.833 172.933 380.833 173.4 381.015 173.757C381.175 174.07 381.43 174.325 381.743 174.485C382.1 174.667 382.567 174.667 383.5 174.667ZM365.167 174.667H371.5C372.433 174.667 372.9 174.667 373.257 174.485C373.57 174.325 373.825 174.07 373.985 173.757C374.167 173.4 374.167 172.933 374.167 172V165.667C374.167 164.733 374.167 164.267 373.985 163.91C373.825 163.596 373.57 163.341 373.257 163.182C372.9 163 372.433 163 371.5 163H365.167C364.233 163 363.767 163 363.41 163.182C363.096 163.341 362.841 163.596 362.682 163.91C362.5 164.267 362.5 164.733 362.5 165.667V172C362.5 172.933 362.5 173.4 362.682 173.757C362.841 174.07 363.096 174.325 363.41 174.485C363.767 174.667 364.233 174.667 365.167 174.667ZM365.167 193H371.5C372.433 193 372.9 193 373.257 192.818C373.57 192.659 373.825 192.404 373.985 192.09C374.167 191.733 374.167 191.267 374.167 190.333V184C374.167 183.067 374.167 182.6 373.985 182.243C373.825 181.93 373.57 181.675 373.257 181.515C372.9 181.333 372.433 181.333 371.5 181.333H365.167C364.233 181.333 363.767 181.333 363.41 181.515C363.096 181.675 362.841 181.93 362.682 182.243C362.5 182.6 362.5 183.067 362.5 184V190.333C362.5 191.267 362.5 191.733 362.682 192.09C362.841 192.404 363.096 192.659 363.41 192.818C363.767 193 364.233 193 365.167 193Z" stroke="#FCFCFC" stroke-width="3" stroke-linecap="round" stroke-linejoin="round"/>
<path d="M210.625 277.456L210.457 266.464H212.857L212.689 277.456H210.625ZM210.457 283V280.024H212.857V283H210.457ZM219.216 283V281.008H222.288V283H219.216ZM215.088 288.496C214.88 288.496 214.664 288.48 214.44 288.448C214.2 288.432 213.96 288.416 213.72 288.4L213.912 286.408C214.152 286.424 214.376 286.44 214.584 286.456C214.776 286.472 214.936 286.48 215.064 286.48C215.784 286.48 216.36 286.208 216.792 285.664C217.24 285.12 217.464 284.36 217.464 283.384V270.976H219.72V283.384C219.72 284.392 219.52 285.28 219.12 286.048C218.72 286.816 218.176 287.416 217.488 287.848C216.8 288.28 216 288.496 215.088 288.496ZM222.288 283V281.008C222.384 281.008 222.464 281.032 222.528 281.08C222.592 281.128 222.64 281.192 222.672 281.272C222.704 281.352 222.728 281.456 222.744 281.584C222.76 281.696 222.768 281.832 222.768 281.992C222.768 282.136 222.76 282.272 222.744 282.4C222.728 282.528 222.704 282.64 222.672 282.736C222.64 282.816 222.592 282.88 222.528 282.928C222.464 282.976 222.384 283 222.288 283ZM217.464 268.816V266.488H219.72V268.816H217.464ZM222.297 283V281.008H238.929L237.465 282.232V278.152C237.465 276.68 237.241 275.48 236.793 274.552C236.361 273.624 235.697 272.944 234.801 272.512C233.921 272.064 232.801 271.84 231.441 271.84C230.849 271.84 230.217 271.872 229.545 271.936C228.873 271.984 228.209 272.056 227.553 272.152C226.897 272.232 226.297 272.312 225.753 272.392L225.465 270.784C225.881 270.672 226.417 270.544 227.073 270.4C227.745 270.24 228.473 270.104 229.257 269.992C230.057 269.88 230.833 269.824 231.585 269.824C232.609 269.824 233.601 269.96 234.561 270.232C235.537 270.504 236.401 270.96 237.153 271.6C237.921 272.224 238.529 273.072 238.977 274.144C239.441 275.216 239.673 276.552 239.673 278.152V283H222.297ZM225.057 281.008V279.28C225.057 278.512 225.249 277.8 225.633 277.144C226.017 276.488 226.545 275.96 227.217 275.56C227.905 275.16 228.665 274.96 229.497 274.96C230.345 274.96 231.097 275.16 231.753 275.56C232.425 275.96 232.953 276.488 233.337 277.144C233.721 277.8 233.913 278.512 233.913 279.28V281.008H231.849V279.28C231.849 278.8 231.737 278.376 231.513 278.008C231.305 277.64 231.025 277.352 230.673 277.144C230.337 276.92 229.945 276.808 229.497 276.808C229.065 276.808 228.665 276.92 228.297 277.144C227.945 277.352 227.657 277.648 227.433 278.032C227.209 278.4 227.097 278.816 227.097 279.28V281.008H225.057ZM222.297 283C222.201 283 222.121 282.976 222.057 282.928C221.993 282.88 221.945 282.816 221.913 282.736C221.881 282.64 221.857 282.528 221.841 282.4C221.825 282.272 221.817 282.136 221.817 281.992C221.817 281.784 221.833 281.608 221.865 281.464C221.881 281.32 221.929 281.208 222.009 281.128C222.073 281.048 222.169 281.008 222.297 281.008V283ZM245.933 283V281.008H248.813V283H245.933ZM243.701 283V265.864H245.933V283H243.701ZM248.813 283V281.008C248.893 281.008 248.965 281.032 249.029 281.08C249.093 281.128 249.141 281.192 249.173 281.272C249.205 281.352 249.229 281.456 249.245 281.584C249.277 281.696 249.293 281.832 249.293 281.992C249.293 282.136 249.277 282.272 249.245 282.4C249.229 282.528 249.205 282.64 249.173 282.736C249.141 282.816 249.093 282.88 249.029 282.928C248.965 282.976 248.893 283 248.813 283ZM248.805 283V281.008H259.317L258.597 281.608V276.064C258.597 275.056 258.277 274.296 257.637 273.784C257.013 273.272 256.037 273.016 254.709 273.016C254.309 273.016 253.733 273.048 252.981 273.112C252.245 273.176 251.461 273.272 250.629 273.4L250.389 271.576C251.045 271.416 251.757 271.28 252.525 271.168C253.293 271.04 254.037 270.976 254.757 270.976C256.005 270.976 257.077 271.176 257.973 271.576C258.885 271.976 259.589 272.56 260.085 273.328C260.581 274.08 260.829 274.992 260.829 276.064V283H248.805ZM248.805 283C248.709 283 248.629 282.976 248.565 282.928C248.501 282.88 248.453 282.816 248.421 282.736C248.389 282.64 248.365 282.528 248.349 282.4C248.333 282.272 248.325 282.136 248.325 281.992C248.325 281.784 248.341 281.608 248.373 281.464C248.389 281.32 248.437 281.208 248.517 281.128C248.581 281.048 248.677 281.008 248.805 281.008V283ZM253.773 287.536V285.208H256.029V287.536H253.773ZM284.98 283V281.008H287.548V283H284.98ZM275.812 283C274.196 283 272.844 282.808 271.756 282.424C270.668 282.024 269.844 281.432 269.284 280.648C268.74 279.864 268.468 278.864 268.468 277.648C268.468 277.264 268.492 276.856 268.54 276.424C268.604 275.976 268.668 275.544 268.732 275.128C268.812 274.712 268.884 274.352 268.948 274.048C269.012 273.744 269.06 273.528 269.092 273.4L271.276 273.808C271.228 274.064 271.156 274.408 271.06 274.84C270.98 275.272 270.9 275.736 270.82 276.232C270.74 276.728 270.7 277.2 270.7 277.648C270.7 278.24 270.796 278.752 270.988 279.184C271.18 279.616 271.476 279.968 271.876 280.24C272.292 280.512 272.82 280.712 273.46 280.84C274.116 280.952 274.916 281.008 275.86 281.008H283.876L282.724 281.92V265.864H284.98V283H275.812ZM287.548 283V281.008C287.644 281.008 287.724 281.032 287.788 281.08C287.852 281.128 287.9 281.192 287.932 281.272C287.964 281.352 287.988 281.456 288.004 281.584C288.02 281.696 288.028 281.832 288.028 281.992C288.028 282.136 288.02 282.272 288.004 282.4C287.988 282.528 287.964 282.64 287.932 282.736C287.9 282.816 287.852 282.88 287.788 282.928C287.724 282.976 287.644 283 287.548 283ZM275.524 274.48C275.252 274.144 275.044 273.824 274.9 273.52C274.756 273.2 274.684 272.864 274.684 272.512C274.684 272.032 274.804 271.6 275.044 271.216C275.3 270.832 275.628 270.528 276.028 270.304C276.444 270.08 276.884 269.968 277.348 269.968C277.62 269.968 277.892 270.008 278.164 270.088C278.436 270.168 278.676 270.272 278.884 270.4L278.212 271.576C278.084 271.496 277.956 271.448 277.828 271.432C277.7 271.4 277.572 271.384 277.444 271.384C277.06 271.384 276.764 271.488 276.556 271.696C276.348 271.904 276.244 272.176 276.244 272.512C276.244 272.72 276.284 272.92 276.364 273.112C276.444 273.288 276.572 273.488 276.748 273.712L275.524 274.48ZM274.204 274.528V273.136H279.22V274.528H274.204ZM287.547 283V281.008H291.267L290.115 281.92V270.976H292.371V283H287.547ZM287.547 283C287.451 283 287.371 282.976 287.307 282.928C287.243 282.88 287.195 282.816 287.163 282.736C287.131 282.64 287.107 282.528 287.091 282.4C287.075 282.272 287.067 282.136 287.067 281.992C287.067 281.784 287.083 281.608 287.115 281.464C287.131 281.32 287.179 281.208 287.259 281.128C287.323 281.048 287.419 281.008 287.547 281.008V283ZM290.115 287.536V285.208H292.371V287.536H290.115ZM307.348 288.952C306.052 288.952 304.876 288.712 303.82 288.232C302.78 287.768 301.956 287.104 301.348 286.24C300.756 285.392 300.46 284.424 300.46 283.336C300.46 283 300.484 282.56 300.532 282.016C300.596 281.472 300.668 280.864 300.748 280.192C300.844 279.52 300.94 278.84 301.036 278.152C301.148 277.464 301.252 276.8 301.348 276.16L303.58 276.496C303.404 277.6 303.244 278.616 303.1 279.544C302.972 280.456 302.868 281.24 302.788 281.896C302.724 282.536 302.692 283.016 302.692 283.336C302.692 284.04 302.884 284.664 303.268 285.208C303.652 285.752 304.196 286.176 304.9 286.48C305.604 286.8 306.42 286.96 307.348 286.96C308.276 286.96 309.06 286.808 309.7 286.504C310.356 286.216 310.852 285.816 311.188 285.304C311.524 284.792 311.692 284.184 311.692 283.48V270.976H313.948V283.48C313.948 284.616 313.652 285.592 313.06 286.408C312.468 287.224 311.676 287.848 310.684 288.28C309.692 288.728 308.58 288.952 307.348 288.952ZM313.924 283L313.948 281.008H326.236L324.244 282.784V277.288C324.244 276.312 324.108 275.512 323.836 274.888C323.564 274.248 323.164 273.776 322.636 273.472C322.124 273.152 321.476 272.992 320.692 272.992C319.988 272.992 319.332 273.112 318.724 273.352C318.132 273.592 317.572 273.912 317.044 274.312C316.532 274.696 316.052 275.12 315.604 275.584C315.172 276.048 314.772 276.512 314.404 276.976C314.036 277.44 313.708 277.856 313.42 278.224L312.772 276.352C313.236 275.792 313.684 275.248 314.116 274.72C314.548 274.176 314.988 273.68 315.436 273.232C315.884 272.784 316.372 272.392 316.9 272.056C317.428 271.72 318.004 271.456 318.628 271.264C319.268 271.072 319.988 270.976 320.788 270.976C321.908 270.976 322.828 271.168 323.548 271.552C324.284 271.936 324.868 272.44 325.3 273.064C325.732 273.688 326.036 274.376 326.212 275.128C326.388 275.864 326.476 276.584 326.476 277.288V283H313.924ZM332.746 283V281.008H335.626V283H332.746ZM330.514 283V265.864H332.746V283H330.514ZM335.626 283V281.008C335.706 281.008 335.778 281.032 335.842 281.08C335.906 281.128 335.954 281.192 335.986 281.272C336.018 281.352 336.042 281.456 336.058 281.584C336.09 281.696 336.106 281.832 336.106 281.992C336.106 282.136 336.09 282.272 336.058 282.4C336.042 282.528 336.018 282.64 335.986 282.736C335.954 282.816 335.906 282.88 335.842 282.928C335.778 282.976 335.706 283 335.626 283ZM347.641 283V281.008H350.233V283H347.641ZM335.617 283C335.521 283 335.441 282.976 335.377 282.928C335.313 282.88 335.265 282.816 335.233 282.736C335.201 282.64 335.177 282.528 335.161 282.4C335.145 282.272 335.137 282.136 335.137 281.992C335.137 281.784 335.153 281.608 335.185 281.464C335.201 281.32 335.249 281.208 335.329 281.128C335.393 281.048 335.489 281.008 335.617 281.008V283ZM335.617 283V281.008H346.129L345.409 281.608V276.064C345.409 275.056 345.089 274.296 344.449 273.784C343.825 273.272 342.849 273.016 341.521 273.016C341.121 273.016 340.545 273.048 339.793 273.112C339.057 273.176 338.273 273.272 337.441 273.4L337.201 271.576C337.857 271.416 338.569 271.28 339.337 271.168C340.105 271.04 340.849 270.976 341.569 270.976C342.817 270.976 343.889 271.176 344.785 271.576C345.697 271.976 346.401 272.56 346.897 273.328C347.393 274.08 347.641 274.992 347.641 276.064V283H335.617ZM350.233 283V281.008C350.329 281.008 350.401 281.032 350.449 281.08C350.513 281.128 350.561 281.192 350.593 281.272C350.641 281.352 350.673 281.456 350.689 281.584C350.705 281.696 350.713 281.832 350.713 281.992C350.713 282.136 350.705 282.272 350.689 282.4C350.673 282.528 350.641 282.64 350.593 282.736C350.561 282.816 350.513 282.88 350.449 282.928C350.401 282.976 350.329 283 350.233 283ZM340.441 269.272V266.944H342.697V269.272H340.441ZM353.098 283V265.864H355.33V283H353.098ZM350.242 283V281.008H353.098V283H350.242ZM350.242 283C350.146 283 350.066 282.976 350.002 282.928C349.938 282.88 349.89 282.816 349.858 282.736C349.826 282.64 349.802 282.528 349.786 282.4C349.77 282.272 349.762 282.136 349.762 281.992C349.762 281.784 349.778 281.608 349.81 281.464C349.826 281.32 349.874 281.208 349.954 281.128C350.018 281.048 350.114 281.008 350.242 281.008V283ZM359.389 283V265.864H361.621V283H359.389ZM375.613 283C374.221 283 373.125 282.792 372.325 282.376C371.525 281.944 370.949 281.288 370.597 280.408C370.261 279.512 370.093 278.384 370.093 277.024C370.093 275.648 370.261 274.512 370.597 273.616C370.949 272.72 371.525 272.056 372.325 271.624C373.125 271.192 374.221 270.976 375.613 270.976H380.701V281.896H378.469V272.2L379.381 272.992H375.613C374.765 272.992 374.101 273.096 373.621 273.304C373.141 273.496 372.805 273.888 372.613 274.48C372.421 275.056 372.325 275.904 372.325 277.024C372.325 278.128 372.421 278.968 372.613 279.544C372.805 280.104 373.133 280.488 373.597 280.696C374.077 280.904 374.749 281.008 375.613 281.008H383.269V283H375.613ZM383.269 283V281.008C383.365 281.008 383.445 281.032 383.509 281.08C383.573 281.128 383.621 281.192 383.653 281.272C383.685 281.352 383.709 281.456 383.725 281.584C383.741 281.696 383.749 281.832 383.749 281.992C383.749 282.136 383.741 282.272 383.725 282.4C383.709 282.528 383.685 282.64 383.653 282.736C383.621 282.816 383.573 282.88 383.509 282.928C383.445 282.976 383.365 283 383.269 283ZM372.925 268.816V266.488H375.133V268.816H372.925ZM376.501 268.816V266.488H378.709V268.816H376.501ZM388.426 283V281.008H391.138V283H388.426ZM391.138 283V281.008C391.234 281.008 391.314 281.032 391.378 281.08C391.442 281.128 391.49 281.192 391.522 281.272C391.554 281.352 391.578 281.456 391.594 281.584C391.61 281.696 391.618 281.832 391.618 281.992C391.618 282.136 391.61 282.272 391.594 282.4C391.578 282.528 391.554 282.64 391.522 282.736C391.49 282.816 391.442 282.88 391.378 282.928C391.314 282.976 391.234 283 391.138 283ZM383.266 283C383.17 283 383.09 282.976 383.026 282.928C382.962 282.88 382.914 282.816 382.882 282.736C382.85 282.64 382.826 282.528 382.81 282.4C382.794 282.272 382.786 282.136 382.786 281.992C382.786 281.784 382.802 281.608 382.834 281.464C382.85 281.32 382.898 281.208 382.978 281.128C383.042 281.048 383.138 281.008 383.266 281.008V283ZM383.266 283V281.008H387.346L386.194 281.92V270.976H388.426V283H383.266ZM384.202 287.536V285.208H386.41V287.536H384.202ZM387.778 287.536V285.208H389.986V287.536H387.778ZM391.141 283V281.008H395.221L394.069 281.92V270.976H396.301V283H391.141ZM391.141 283C391.045 283 390.965 282.976 390.901 282.928C390.837 282.88 390.789 282.816 390.757 282.736C390.725 282.64 390.701 282.528 390.685 282.4C390.669 282.272 390.661 282.136 390.661 281.992C390.661 281.784 390.677 281.608 390.709 281.464C390.725 281.32 390.773 281.208 390.853 281.128C390.917 281.048 391.013 281.008 391.141 281.008V283ZM392.293 268.816V266.488H394.501V268.816H392.293ZM395.869 268.816V266.488H398.077V268.816H395.869ZM400.451 283V265.864H402.683V283H400.451ZM415.313 283V281.008H417.905V283H415.313ZM405.905 283V281.008H414.785L413.081 282.52V277.6C413.081 276.432 412.945 275.512 412.673 274.84C412.417 274.168 411.993 273.696 411.401 273.424C410.809 273.136 410.009 272.992 409.001 272.992H407.057V270.976H409.001C410.329 270.976 411.465 271.192 412.409 271.624C413.353 272.04 414.073 272.736 414.569 273.712C415.065 274.672 415.313 275.968 415.313 277.6V283H405.905ZM417.905 283V281.008C417.985 281.008 418.057 281.032 418.121 281.08C418.185 281.128 418.233 281.192 418.265 281.272C418.297 281.352 418.321 281.456 418.337 281.584C418.369 281.696 418.385 281.832 418.385 281.992C418.385 282.136 418.369 282.272 418.337 282.4C418.321 282.528 418.297 282.64 418.265 282.736C418.233 282.816 418.185 282.88 418.121 282.928C418.057 282.976 417.985 283 417.905 283ZM407.561 268.816V266.488H409.817V268.816H407.561ZM420.762 283V265.864H422.994V283H420.762ZM417.906 283V281.008H420.762V283H417.906ZM417.906 283C417.81 283 417.73 282.976 417.666 282.928C417.602 282.88 417.554 282.816 417.522 282.736C417.49 282.64 417.466 282.528 417.45 282.4C417.434 282.272 417.426 282.136 417.426 281.992C417.426 281.784 417.442 281.608 417.474 281.464C417.49 281.32 417.538 281.208 417.618 281.128C417.682 281.048 417.778 281.008 417.906 281.008V283ZM427.053 283V265.864H429.285V283H427.053ZM437.757 283V277.312C437.757 275.776 437.989 274.544 438.453 273.616C438.917 272.688 439.605 272.016 440.517 271.6C441.445 271.184 442.589 270.976 443.949 270.976C445.325 270.976 446.469 271.184 447.381 271.6C448.293 272.016 448.981 272.688 449.445 273.616C449.909 274.544 450.141 275.776 450.141 277.312V283H437.757ZM439.989 281.992L438.861 281.008H449.037L447.909 281.992V277.36C447.909 276.256 447.789 275.384 447.549 274.744C447.325 274.104 446.917 273.656 446.325 273.4C445.749 273.128 444.957 272.992 443.949 272.992C442.941 272.992 442.149 273.128 441.573 273.4C440.997 273.656 440.589 274.104 440.349 274.744C440.109 275.384 439.989 276.256 439.989 277.36V281.992ZM441.069 268.816V266.488H443.277V268.816H441.069ZM444.645 268.816V266.488H446.853V268.816H444.645ZM461.27 283V270.976H463.502V281.92L462.374 281.008H466.214V283H461.27ZM456.134 275.368V273.352H461.27V275.368H456.134ZM451.502 288.496C451.294 288.496 451.078 288.48 450.854 288.448C450.614 288.432 450.374 288.416 450.134 288.4L450.326 286.408C450.566 286.424 450.79 286.44 450.998 286.456C451.19 286.472 451.35 286.48 451.478 286.48C452.198 286.48 452.774 286.208 453.206 285.664C453.654 285.12 453.878 284.36 453.878 283.384V270.976H456.134V283.384C456.134 284.392 455.934 285.28 455.534 286.048C455.134 286.816 454.59 287.416 453.902 287.848C453.214 288.28 452.414 288.496 451.502 288.496ZM466.214 283V281.008C466.31 281.008 466.39 281.032 466.454 281.08C466.518 281.128 466.566 281.192 466.598 281.272C466.63 281.352 466.654 281.456 466.67 281.584C466.686 281.696 466.694 281.832 466.694 281.992C466.694 282.136 466.686 282.272 466.67 282.4C466.654 282.528 466.63 282.64 466.598 282.736C466.566 282.816 466.518 282.88 466.454 282.928C466.39 282.976 466.31 283 466.214 283ZM459.518 287.536V285.208H461.726V287.536H459.518ZM463.094 287.536V285.208H465.302V287.536H463.094ZM484.835 283V281.008H487.403V283H484.835ZM466.211 283C466.115 283 466.035 282.976 465.971 282.928C465.907 282.88 465.859 282.816 465.827 282.736C465.795 282.64 465.771 282.528 465.755 282.4C465.739 282.272 465.731 282.136 465.731 281.992C465.731 281.784 465.747 281.608 465.779 281.464C465.795 281.32 465.843 281.208 465.923 281.128C465.987 281.048 466.083 281.008 466.211 281.008V283ZM479.243 283C478.667 283 478.099 282.896 477.539 282.688C476.995 282.464 476.475 282.12 475.979 281.656L477.395 280.168C477.747 280.456 478.067 280.672 478.355 280.816C478.643 280.944 478.939 281.008 479.243 281.008H483.587L482.603 281.968V276.352C482.603 276.064 482.571 275.664 482.507 275.152C482.459 274.624 482.379 274.032 482.267 273.376C482.171 272.704 482.051 272.024 481.907 271.336L484.091 270.976C484.203 271.552 484.315 272.184 484.427 272.872C484.539 273.56 484.635 274.216 484.715 274.84C484.795 275.464 484.835 275.968 484.835 276.352V283H479.243ZM466.211 283V281.008H469.715L469.163 281.56V273.4H471.395V283H466.211ZM471.395 283V281.008H473.891C474.435 281.008 474.843 280.928 475.115 280.768C475.387 280.608 475.579 280.288 475.691 279.808C475.803 279.328 475.859 278.624 475.859 277.696V272.2H478.115V277.696C478.115 278.992 477.963 280.032 477.659 280.816C477.371 281.6 476.923 282.16 476.315 282.496C475.707 282.832 474.899 283 473.891 283H471.395ZM487.403 283V281.008C487.499 281.008 487.579 281.032 487.643 281.08C487.707 281.128 487.755 281.192 487.787 281.272C487.819 281.352 487.843 281.456 487.859 281.584C487.875 281.696 487.883 281.832 487.883 281.992C487.883 282.136 487.875 282.272 487.859 282.4C487.843 282.528 487.819 282.64 487.787 282.736C487.755 282.816 487.707 282.88 487.643 282.928C487.579 282.976 487.499 283 487.403 283ZM490.254 283V265.864H492.486V283H490.254ZM487.398 283V281.008H490.254V283H487.398ZM487.398 283C487.302 283 487.222 282.976 487.158 282.928C487.094 282.88 487.046 282.816 487.014 282.736C486.982 282.64 486.958 282.528 486.942 282.4C486.926 282.272 486.918 282.136 486.918 281.992C486.918 281.784 486.934 281.608 486.966 281.464C486.982 281.32 487.03 281.208 487.11 281.128C487.174 281.048 487.27 281.008 487.398 281.008V283ZM496.545 283V265.864H498.777V283H496.545ZM514.593 283C512.977 283 511.625 282.808 510.537 282.424C509.449 282.024 508.625 281.432 508.065 280.648C507.521 279.864 507.249 278.864 507.249 277.648C507.249 277.264 507.273 276.856 507.321 276.424C507.385 275.976 507.449 275.544 507.513 275.128C507.593 274.712 507.665 274.352 507.729 274.048C507.793 273.744 507.841 273.528 507.873 273.4L510.057 273.808C510.009 274.064 509.937 274.408 509.841 274.84C509.761 275.272 509.681 275.736 509.601 276.232C509.521 276.728 509.481 277.2 509.481 277.648C509.481 278.24 509.577 278.752 509.769 279.184C509.961 279.616 510.257 279.968 510.657 280.24C511.073 280.512 511.601 280.712 512.241 280.84C512.897 280.952 513.697 281.008 514.641 281.008H521.505V270.976H523.761V283H514.593ZM512.625 270.976V268.648H514.833V270.976H512.625ZM516.201 270.976V268.648H518.409V270.976H516.201ZM537.123 283V281.008H539.691V283H537.123ZM531.219 288.496C530.643 288.496 530.035 288.448 529.395 288.352C528.771 288.272 528.083 288.152 527.331 287.992L527.667 286.192C528.515 286.288 529.219 286.36 529.779 286.408C530.339 286.456 530.819 286.48 531.219 286.48C532.499 286.48 533.427 286.24 534.003 285.76C534.595 285.28 534.891 284.584 534.891 283.672V272.392L535.803 272.992H532.035C531.187 272.992 530.523 273.096 530.043 273.304C529.563 273.496 529.227 273.888 529.035 274.48C528.843 275.056 528.747 275.904 528.747 277.024C528.747 278.128 528.843 278.968 529.035 279.544C529.227 280.104 529.555 280.488 530.019 280.696C530.499 280.904 531.171 281.008 532.035 281.008H534.891V283H532.035C530.643 283 529.547 282.792 528.747 282.376C527.947 281.944 527.371 281.288 527.019 280.408C526.683 279.512 526.515 278.384 526.515 277.024C526.515 275.648 526.683 274.512 527.019 273.616C527.371 272.72 527.947 272.056 528.747 271.624C529.547 271.192 530.643 270.976 532.035 270.976H537.123V283.648C537.123 284.672 536.883 285.544 536.403 286.264C535.923 287 535.243 287.552 534.363 287.92C533.483 288.304 532.435 288.496 531.219 288.496ZM539.691 283V281.008C539.787 281.008 539.867 281.032 539.931 281.08C539.995 281.128 540.043 281.192 540.075 281.272C540.107 281.352 540.131 281.456 540.147 281.584C540.163 281.696 540.171 281.832 540.171 281.992C540.171 282.136 540.163 282.272 540.147 282.4C540.131 282.528 540.107 282.64 540.075 282.736C540.043 282.816 539.995 282.88 539.931 282.928C539.867 282.976 539.787 283 539.691 283ZM539.688 283V281.008H543.408L542.256 281.92V270.976H544.512V283H539.688ZM539.688 283C539.591 283 539.511 282.976 539.447 282.928C539.383 282.88 539.335 282.816 539.303 282.736C539.271 282.64 539.247 282.528 539.231 282.4C539.215 282.272 539.207 282.136 539.207 281.992C539.207 281.784 539.223 281.608 539.255 281.464C539.271 281.32 539.319 281.208 539.399 281.128C539.463 281.048 539.559 281.008 539.688 281.008V283ZM542.256 287.536V285.208H544.512V287.536H542.256Z" fill="#333333"/>
<g filter="url(#filter1_dd_283_5180)">
<path d="M217.5 322C217.5 317.582 221.082 314 225.5 314H529.5C533.918 314 537.5 317.582 537.5 322V350C537.5 354.418 533.918 358 529.5 358H225.5C221.082 358 217.5 354.418 217.5 350V322Z" fill="#FCFCFC"/>
<path d="M225.5 314.5H529.5C533.642 314.5 537 317.858 537 322V350C537 354.142 533.642 357.5 529.5 357.5H225.5C221.358 357.5 218 354.142 218 350V322C218 317.858 221.358 314.5 225.5 314.5Z" stroke="#2D86FE"/>
<g clip-path="url(#clip0_283_5180)">
<path d="M242.167 333.334V331.467C242.167 330.721 242.167 330.347 242.022 330.062C241.894 329.811 241.69 329.607 241.439 329.479C241.154 329.334 240.78 329.334 240.033 329.334H234.967C234.22 329.334 233.847 329.334 233.562 329.479C233.311 329.607 233.107 329.811 232.979 330.062C232.833 330.347 232.833 330.721 232.833 331.467V336.534C232.833 337.281 232.833 337.654 232.979 337.939C233.107 338.19 233.311 338.394 233.562 338.522C233.847 338.667 234.22 338.667 234.967 338.667H236.833M238.967 342.667H244.033C244.78 342.667 245.154 342.667 245.439 342.522C245.69 342.394 245.894 342.19 246.022 341.939C246.167 341.654 246.167 341.281 246.167 340.534V335.467C246.167 334.721 246.167 334.347 246.022 334.062C245.894 333.811 245.69 333.607 245.439 333.479C245.154 333.334 244.78 333.334 244.033 333.334H238.967C238.22 333.334 237.847 333.334 237.562 333.479C237.311 333.607 237.107 333.811 236.979 334.062C236.833 334.347 236.833 334.721 236.833 335.467V340.534C236.833 341.281 236.833 341.654 236.979 341.939C237.107 342.19 237.311 342.394 237.562 342.522C237.847 342.667 238.22 342.667 238.967 342.667Z" stroke="#383838" stroke-width="1.5" stroke-linecap="round" stroke-linejoin="round"/>
</g>
<path d="M343.613 341V330.245H344.768V333.905C344.948 333.825 345.163 333.745 345.413 333.665C345.673 333.575 345.948 333.5 346.238 333.44C346.528 333.38 346.803 333.35 347.063 333.35C347.583 333.35 348.008 333.42 348.338 333.56C348.668 333.69 348.923 333.905 349.103 334.205C349.293 334.495 349.423 334.875 349.493 335.345C349.563 335.805 349.598 336.365 349.598 337.025V341H348.428V337.07C348.428 336.42 348.388 335.9 348.308 335.51C348.238 335.12 348.093 334.84 347.873 334.67C347.653 334.49 347.313 334.4 346.853 334.4C346.603 334.4 346.343 334.425 346.073 334.475C345.813 334.515 345.568 334.57 345.338 334.64C345.108 334.71 344.918 334.775 344.768 334.835V341H343.613ZM354.101 341.165C353.581 341.165 353.166 341.085 352.856 340.925C352.556 340.765 352.341 340.49 352.211 340.1C352.081 339.7 352.016 339.14 352.016 338.42V334.505H350.951V333.5H352.016V331.205H353.171V333.5H355.526V334.505H353.171V338.075C353.171 338.605 353.191 339.02 353.231 339.32C353.281 339.61 353.381 339.815 353.531 339.935C353.681 340.055 353.916 340.115 354.236 340.115C354.336 340.115 354.466 340.11 354.626 340.1C354.786 340.09 354.946 340.08 355.106 340.07C355.276 340.05 355.426 340.035 355.556 340.025L355.631 341C355.491 341.02 355.326 341.04 355.136 341.06C354.946 341.09 354.756 341.115 354.566 341.135C354.386 341.155 354.231 341.165 354.101 341.165ZM359.359 341.165C358.839 341.165 358.424 341.085 358.114 340.925C357.814 340.765 357.599 340.49 357.469 340.1C357.339 339.7 357.274 339.14 357.274 338.42V334.505H356.209V333.5H357.274V331.205H358.429V333.5H360.784V334.505H358.429V338.075C358.429 338.605 358.449 339.02 358.489 339.32C358.539 339.61 358.639 339.815 358.789 339.935C358.939 340.055 359.174 340.115 359.494 340.115C359.594 340.115 359.724 340.11 359.884 340.1C360.044 340.09 360.204 340.08 360.364 340.07C360.534 340.05 360.684 340.035 360.814 340.025L360.889 341C360.749 341.02 360.584 341.04 360.394 341.06C360.204 341.09 360.014 341.115 359.824 341.135C359.644 341.155 359.489 341.165 359.359 341.165ZM362.158 344.315V333.5H363.313V334.04C363.473 333.94 363.673 333.84 363.913 333.74C364.163 333.63 364.428 333.54 364.708 333.47C364.988 333.39 365.258 333.35 365.518 333.35C366.158 333.35 366.678 333.485 367.078 333.755C367.478 334.015 367.773 334.425 367.963 334.985C368.163 335.545 368.263 336.27 368.263 337.16C368.263 338.14 368.148 338.925 367.918 339.515C367.698 340.095 367.343 340.515 366.853 340.775C366.373 341.025 365.748 341.15 364.978 341.15C364.668 341.15 364.353 341.13 364.033 341.09C363.723 341.05 363.483 341.015 363.313 340.985V344.315H362.158ZM364.918 340.13C365.458 340.13 365.883 340.03 366.193 339.83C366.513 339.63 366.738 339.315 366.868 338.885C366.998 338.445 367.063 337.87 367.063 337.16C367.063 336.15 366.913 335.44 366.613 335.03C366.313 334.61 365.893 334.4 365.353 334.4C365.113 334.4 364.863 334.43 364.603 334.49C364.353 334.55 364.113 334.625 363.883 334.715C363.653 334.795 363.463 334.88 363.313 334.97V339.98C363.473 340 363.708 340.03 364.018 340.07C364.328 340.11 364.628 340.13 364.918 340.13ZM372.423 341.15C372.193 341.15 371.913 341.135 371.583 341.105C371.263 341.075 370.943 341.04 370.623 341C370.303 340.95 370.018 340.905 369.768 340.865L369.828 339.86C370.078 339.89 370.358 339.925 370.668 339.965C370.988 340.005 371.298 340.04 371.598 340.07C371.898 340.09 372.138 340.1 372.318 340.1C372.728 340.1 373.068 340.065 373.338 339.995C373.608 339.915 373.813 339.785 373.953 339.605C374.093 339.425 374.163 339.17 374.163 338.84C374.163 338.59 374.108 338.395 373.998 338.255C373.898 338.115 373.703 338 373.413 337.91C373.133 337.82 372.723 337.735 372.183 337.655C371.623 337.565 371.153 337.455 370.773 337.325C370.403 337.185 370.128 336.98 369.948 336.71C369.768 336.44 369.678 336.055 369.678 335.555C369.678 334.995 369.808 334.555 370.068 334.235C370.328 333.915 370.663 333.69 371.073 333.56C371.493 333.42 371.928 333.35 372.378 333.35C372.658 333.35 372.963 333.365 373.293 333.395C373.633 333.425 373.963 333.465 374.283 333.515C374.603 333.555 374.878 333.595 375.108 333.635L375.078 334.64C374.838 334.6 374.558 334.565 374.238 334.535C373.918 334.495 373.598 334.465 373.278 334.445C372.958 334.415 372.678 334.4 372.438 334.4C372.138 334.4 371.868 334.435 371.628 334.505C371.388 334.565 371.198 334.675 371.058 334.835C370.918 334.995 370.848 335.22 370.848 335.51C370.848 335.73 370.898 335.91 370.998 336.05C371.098 336.18 371.288 336.29 371.568 336.38C371.848 336.47 372.253 336.56 372.783 336.65C373.403 336.75 373.898 336.875 374.268 337.025C374.648 337.175 374.923 337.385 375.093 337.655C375.263 337.925 375.348 338.305 375.348 338.795C375.348 339.375 375.228 339.84 374.988 340.19C374.758 340.53 374.423 340.775 373.983 340.925C373.553 341.075 373.033 341.15 372.423 341.15ZM376.995 336.2V334.445H378.27V336.2H376.995ZM376.995 341V339.245H378.27V341H376.995ZM380.801 341.225L379.751 340.85L383.981 330.365L385.031 330.755L380.801 341.225ZM387.027 341.225L385.977 340.85L390.207 330.365L391.257 330.755L387.027 341.225ZM395.08 341.15C394.29 341.15 393.67 341.02 393.22 340.76C392.77 340.49 392.45 340.06 392.26 339.47C392.08 338.88 391.99 338.1 391.99 337.13C391.99 336.22 392.09 335.49 392.29 334.94C392.5 334.38 392.835 333.975 393.295 333.725C393.755 333.475 394.355 333.35 395.095 333.35C395.265 333.35 395.47 333.365 395.71 333.395C395.96 333.415 396.215 333.445 396.475 333.485C396.735 333.515 396.96 333.545 397.15 333.575L397.105 334.535C396.935 334.515 396.74 334.495 396.52 334.475C396.3 334.455 396.085 334.44 395.875 334.43C395.665 334.41 395.49 334.4 395.35 334.4C394.78 334.4 394.335 334.49 394.015 334.67C393.705 334.85 393.485 335.14 393.355 335.54C393.235 335.93 393.175 336.46 393.175 337.13C393.175 337.86 393.23 338.445 393.34 338.885C393.45 339.315 393.66 339.625 393.97 339.815C394.28 340.005 394.74 340.1 395.35 340.1C395.49 340.1 395.665 340.095 395.875 340.085C396.095 340.065 396.315 340.045 396.535 340.025C396.765 340.005 396.965 339.99 397.135 339.98L397.165 340.94C396.965 340.97 396.735 341 396.475 341.03C396.215 341.06 395.96 341.085 395.71 341.105C395.46 341.135 395.25 341.15 395.08 341.15ZM400.218 341L398.118 333.5H399.378L401.088 339.995H401.658L403.428 333.5H404.628L402.528 341H400.218ZM408.747 341.15C407.957 341.15 407.337 341.02 406.887 340.76C406.437 340.49 406.117 340.06 405.927 339.47C405.747 338.88 405.657 338.1 405.657 337.13C405.657 336.22 405.757 335.49 405.957 334.94C406.167 334.38 406.502 333.975 406.962 333.725C407.422 333.475 408.022 333.35 408.762 333.35C408.932 333.35 409.137 333.365 409.377 333.395C409.627 333.415 409.882 333.445 410.142 333.485C410.402 333.515 410.627 333.545 410.817 333.575L410.772 334.535C410.602 334.515 410.407 334.495 410.187 334.475C409.967 334.455 409.752 334.44 409.542 334.43C409.332 334.41 409.157 334.4 409.017 334.4C408.447 334.4 408.002 334.49 407.682 334.67C407.372 334.85 407.152 335.14 407.022 335.54C406.902 335.93 406.842 336.46 406.842 337.13C406.842 337.86 406.897 338.445 407.007 338.885C407.117 339.315 407.327 339.625 407.637 339.815C407.947 340.005 408.407 340.1 409.017 340.1C409.157 340.1 409.332 340.095 409.542 340.085C409.762 340.065 409.982 340.045 410.202 340.025C410.432 340.005 410.632 339.99 410.802 339.98L410.832 340.94C410.632 340.97 410.402 341 410.142 341.03C409.882 341.06 409.627 341.085 409.377 341.105C409.127 341.135 408.917 341.15 408.747 341.15ZM412.505 341V330.245H413.66V333.905C413.84 333.825 414.055 333.745 414.305 333.665C414.565 333.575 414.84 333.5 415.13 333.44C415.42 333.38 415.695 333.35 415.955 333.35C416.475 333.35 416.9 333.42 417.23 333.56C417.56 333.69 417.815 333.905 417.995 334.205C418.185 334.495 418.315 334.875 418.385 335.345C418.455 335.805 418.49 336.365 418.49 337.025V341H417.32V337.07C417.32 336.42 417.28 335.9 417.2 335.51C417.13 335.12 416.985 334.84 416.765 334.67C416.545 334.49 416.205 334.4 415.745 334.4C415.495 334.4 415.235 334.425 414.965 334.475C414.705 334.515 414.46 334.57 414.23 334.64C414 334.71 413.81 334.775 413.66 334.835V341H412.505ZM422.211 341.15C421.521 341.15 420.996 340.955 420.636 340.565C420.276 340.175 420.096 339.605 420.096 338.855C420.096 338.365 420.181 337.965 420.351 337.655C420.521 337.345 420.776 337.11 421.116 336.95C421.466 336.78 421.896 336.675 422.406 336.635L424.716 336.41V335.765C424.716 335.255 424.601 334.895 424.371 334.685C424.151 334.475 423.821 334.37 423.381 334.37C423.131 334.37 422.831 334.38 422.481 334.4C422.141 334.42 421.801 334.445 421.461 334.475C421.121 334.505 420.821 334.535 420.561 334.565L420.501 333.68C420.741 333.63 421.031 333.58 421.371 333.53C421.711 333.48 422.066 333.44 422.436 333.41C422.806 333.37 423.146 333.35 423.456 333.35C424.026 333.35 424.491 333.44 424.851 333.62C425.211 333.79 425.471 334.055 425.631 334.415C425.801 334.765 425.886 335.215 425.886 335.765V339.56C425.906 339.78 425.991 339.94 426.141 340.04C426.301 340.14 426.501 340.205 426.741 340.235L426.696 341.15C426.556 341.15 426.421 341.145 426.291 341.135C426.161 341.125 426.036 341.105 425.916 341.075C425.806 341.055 425.696 341.03 425.586 341C425.456 340.95 425.331 340.89 425.211 340.82C425.101 340.75 424.991 340.665 424.881 340.565C424.691 340.645 424.446 340.73 424.146 340.82C423.856 340.91 423.541 340.985 423.201 341.045C422.871 341.115 422.541 341.15 422.211 341.15ZM422.406 340.175C422.676 340.175 422.956 340.15 423.246 340.1C423.536 340.05 423.811 339.99 424.071 339.92C424.331 339.85 424.546 339.785 424.716 339.725V337.28L422.541 337.49C422.091 337.53 421.766 337.66 421.566 337.88C421.376 338.1 421.281 338.415 421.281 338.825C421.281 339.245 421.376 339.575 421.566 339.815C421.756 340.055 422.036 340.175 422.406 340.175ZM430.478 341.165C429.958 341.165 429.543 341.085 429.233 340.925C428.933 340.765 428.718 340.49 428.588 340.1C428.458 339.7 428.393 339.14 428.393 338.42V334.505H427.328V333.5H428.393V331.205H429.548V333.5H431.903V334.505H429.548V338.075C429.548 338.605 429.568 339.02 429.608 339.32C429.658 339.61 429.758 339.815 429.908 339.935C430.058 340.055 430.293 340.115 430.613 340.115C430.713 340.115 430.843 340.11 431.003 340.1C431.163 340.09 431.323 340.08 431.483 340.07C431.653 340.05 431.803 340.035 431.933 340.025L432.008 341C431.868 341.02 431.703 341.04 431.513 341.06C431.323 341.09 431.133 341.115 430.943 341.135C430.763 341.155 430.608 341.165 430.478 341.165ZM433.201 341V339.245H434.476V341H433.201ZM438.178 341.15C437.488 341.15 436.963 340.955 436.603 340.565C436.243 340.175 436.063 339.605 436.063 338.855C436.063 338.365 436.148 337.965 436.318 337.655C436.488 337.345 436.743 337.11 437.083 336.95C437.433 336.78 437.863 336.675 438.373 336.635L440.683 336.41V335.765C440.683 335.255 440.568 334.895 440.338 334.685C440.118 334.475 439.788 334.37 439.348 334.37C439.098 334.37 438.798 334.38 438.448 334.4C438.108 334.42 437.768 334.445 437.428 334.475C437.088 334.505 436.788 334.535 436.528 334.565L436.468 333.68C436.708 333.63 436.998 333.58 437.338 333.53C437.678 333.48 438.033 333.44 438.403 333.41C438.773 333.37 439.113 333.35 439.423 333.35C439.993 333.35 440.458 333.44 440.818 333.62C441.178 333.79 441.438 334.055 441.598 334.415C441.768 334.765 441.853 335.215 441.853 335.765V339.56C441.873 339.78 441.958 339.94 442.108 340.04C442.268 340.14 442.468 340.205 442.708 340.235L442.663 341.15C442.523 341.15 442.388 341.145 442.258 341.135C442.128 341.125 442.003 341.105 441.883 341.075C441.773 341.055 441.663 341.03 441.553 341C441.423 340.95 441.298 340.89 441.178 340.82C441.068 340.75 440.958 340.665 440.848 340.565C440.658 340.645 440.413 340.73 440.113 340.82C439.823 340.91 439.508 340.985 439.168 341.045C438.838 341.115 438.508 341.15 438.178 341.15ZM438.373 340.175C438.643 340.175 438.923 340.15 439.213 340.1C439.503 340.05 439.778 339.99 440.038 339.92C440.298 339.85 440.513 339.785 440.683 339.725V337.28L438.508 337.49C438.058 337.53 437.733 337.66 437.533 337.88C437.343 338.1 437.248 338.415 437.248 338.825C437.248 339.245 437.343 339.575 437.533 339.815C437.723 340.055 438.003 340.175 438.373 340.175ZM444.072 341V333.5H445.227V341H444.072ZM444.072 331.85V330.5H445.227V331.85H444.072ZM447.833 341.225L446.783 340.85L451.013 330.365L452.063 330.755L447.833 341.225ZM453.698 341V330.245H454.853V341H453.698ZM459.989 341.15C459.149 341.15 458.494 341.005 458.024 340.715C457.564 340.425 457.239 339.985 457.049 339.395C456.869 338.805 456.779 338.06 456.779 337.16C456.779 336.3 456.879 335.59 457.079 335.03C457.289 334.47 457.629 334.05 458.099 333.77C458.569 333.49 459.199 333.35 459.989 333.35C460.789 333.35 461.424 333.49 461.894 333.77C462.364 334.05 462.699 334.47 462.899 335.03C463.109 335.59 463.214 336.3 463.214 337.16C463.214 338.06 463.119 338.805 462.929 339.395C462.749 339.985 462.424 340.425 461.954 340.715C461.494 341.005 460.839 341.15 459.989 341.15ZM459.989 340.145C460.569 340.145 461.004 340.045 461.294 339.845C461.584 339.635 461.774 339.31 461.864 338.87C461.964 338.43 462.014 337.86 462.014 337.16C462.014 336.47 461.954 335.92 461.834 335.51C461.714 335.1 461.509 334.805 461.219 334.625C460.929 334.445 460.519 334.355 459.989 334.355C459.469 334.355 459.059 334.445 458.759 334.625C458.469 334.805 458.264 335.1 458.144 335.51C458.024 335.92 457.964 336.47 457.964 337.16C457.964 337.86 458.009 338.43 458.099 338.87C458.199 339.31 458.394 339.635 458.684 339.845C458.974 340.045 459.409 340.145 459.989 340.145ZM465.139 341V330.245H466.294V341H465.139ZM470.185 341.15C469.495 341.15 468.97 340.955 468.61 340.565C468.25 340.175 468.07 339.605 468.07 338.855C468.07 338.365 468.155 337.965 468.325 337.655C468.495 337.345 468.75 337.11 469.09 336.95C469.44 336.78 469.87 336.675 470.38 336.635L472.69 336.41V335.765C472.69 335.255 472.575 334.895 472.345 334.685C472.125 334.475 471.795 334.37 471.355 334.37C471.105 334.37 470.805 334.38 470.455 334.4C470.115 334.42 469.775 334.445 469.435 334.475C469.095 334.505 468.795 334.535 468.535 334.565L468.475 333.68C468.715 333.63 469.005 333.58 469.345 333.53C469.685 333.48 470.04 333.44 470.41 333.41C470.78 333.37 471.12 333.35 471.43 333.35C472 333.35 472.465 333.44 472.825 333.62C473.185 333.79 473.445 334.055 473.605 334.415C473.775 334.765 473.86 335.215 473.86 335.765V339.56C473.88 339.78 473.965 339.94 474.115 340.04C474.275 340.14 474.475 340.205 474.715 340.235L474.67 341.15C474.53 341.15 474.395 341.145 474.265 341.135C474.135 341.125 474.01 341.105 473.89 341.075C473.78 341.055 473.67 341.03 473.56 341C473.43 340.95 473.305 340.89 473.185 340.82C473.075 340.75 472.965 340.665 472.855 340.565C472.665 340.645 472.42 340.73 472.12 340.82C471.83 340.91 471.515 340.985 471.175 341.045C470.845 341.115 470.515 341.15 470.185 341.15ZM470.38 340.175C470.65 340.175 470.93 340.15 471.22 340.1C471.51 340.05 471.785 339.99 472.045 339.92C472.305 339.85 472.52 339.785 472.69 339.725V337.28L470.515 337.49C470.065 337.53 469.74 337.66 469.54 337.88C469.35 338.1 469.255 338.415 469.255 338.825C469.255 339.245 469.35 339.575 469.54 339.815C469.73 340.055 470.01 340.175 470.38 340.175ZM476.004 337.415V336.335H480.549V337.415H476.004ZM485.237 341.15C484.937 341.15 484.617 341.135 484.277 341.105C483.937 341.075 483.612 341.04 483.302 341C482.992 340.96 482.727 340.92 482.507 340.88L482.627 339.905C482.827 339.925 483.072 339.95 483.362 339.98C483.652 340.01 483.962 340.035 484.292 340.055C484.622 340.075 484.937 340.085 485.237 340.085C486.127 340.085 486.792 339.81 487.232 339.26C487.682 338.7 487.912 337.845 487.922 336.695C487.672 336.785 487.397 336.875 487.097 336.965C486.797 337.055 486.497 337.13 486.197 337.19C485.907 337.24 485.637 337.265 485.387 337.265C484.347 337.265 483.547 337.02 482.987 336.53C482.427 336.04 482.147 335.275 482.147 334.235C482.147 333.555 482.287 332.97 482.567 332.48C482.847 331.99 483.242 331.615 483.752 331.355C484.272 331.085 484.882 330.95 485.582 330.95C486.422 330.95 487.102 331.16 487.622 331.58C488.152 331.99 488.542 332.58 488.792 333.35C489.042 334.12 489.167 335.03 489.167 336.08C489.167 337.04 489.077 337.845 488.897 338.495C488.717 339.145 488.457 339.665 488.117 340.055C487.787 340.445 487.377 340.725 486.887 340.895C486.407 341.065 485.857 341.15 485.237 341.15ZM485.492 336.2C485.742 336.2 486.017 336.17 486.317 336.11C486.617 336.05 486.912 335.98 487.202 335.9C487.492 335.81 487.737 335.73 487.937 335.66C487.927 334.95 487.842 334.325 487.682 333.785C487.532 333.235 487.287 332.805 486.947 332.495C486.607 332.175 486.152 332.015 485.582 332.015C484.902 332.015 484.362 332.215 483.962 332.615C483.572 333.015 483.377 333.555 483.377 334.235C483.377 334.915 483.557 335.415 483.917 335.735C484.277 336.045 484.802 336.2 485.492 336.2ZM494.096 341.15C493.596 341.15 493.121 341.105 492.671 341.015C492.231 340.935 491.836 340.795 491.486 340.595C491.146 340.385 490.876 340.11 490.676 339.77C490.486 339.42 490.391 338.99 490.391 338.48C490.391 337.97 490.461 337.555 490.601 337.235C490.751 336.915 490.951 336.65 491.201 336.44C491.461 336.22 491.756 336.015 492.086 335.825C491.746 335.645 491.461 335.455 491.231 335.255C491.011 335.055 490.841 334.815 490.721 334.535C490.611 334.245 490.556 333.9 490.556 333.5C490.556 332.93 490.701 332.455 490.991 332.075C491.281 331.695 491.691 331.41 492.221 331.22C492.751 331.03 493.376 330.935 494.096 330.935C494.806 330.935 495.431 331.03 495.971 331.22C496.511 331.41 496.931 331.695 497.231 332.075C497.541 332.455 497.696 332.935 497.696 333.515C497.696 333.935 497.636 334.285 497.516 334.565C497.406 334.845 497.231 335.085 496.991 335.285C496.751 335.475 496.441 335.655 496.061 335.825C496.411 335.985 496.721 336.17 496.991 336.38C497.261 336.59 497.471 336.85 497.621 337.16C497.771 337.46 497.846 337.845 497.846 338.315C497.846 338.855 497.746 339.31 497.546 339.68C497.356 340.04 497.086 340.33 496.736 340.55C496.396 340.76 495.996 340.91 495.536 341C495.086 341.1 494.606 341.15 494.096 341.15ZM494.096 340.055C494.576 340.055 495.001 340 495.371 339.89C495.741 339.78 496.031 339.59 496.241 339.32C496.451 339.04 496.556 338.665 496.556 338.195C496.556 337.815 496.481 337.515 496.331 337.295C496.181 337.065 495.976 336.885 495.716 336.755C495.466 336.615 495.176 336.5 494.846 336.41H493.271C492.771 336.55 492.381 336.76 492.101 337.04C491.821 337.32 491.681 337.73 491.681 338.27C491.681 338.71 491.786 339.065 491.996 339.335C492.206 339.595 492.491 339.78 492.851 339.89C493.221 340 493.636 340.055 494.096 340.055ZM493.271 335.36H494.846C495.346 335.19 495.731 334.98 496.001 334.73C496.271 334.47 496.406 334.115 496.406 333.665C496.406 333.075 496.201 332.655 495.791 332.405C495.391 332.155 494.831 332.03 494.111 332.03C493.411 332.03 492.856 332.155 492.446 332.405C492.046 332.645 491.846 333.06 491.846 333.65C491.846 334.1 491.966 334.455 492.206 334.715C492.446 334.975 492.801 335.19 493.271 335.36ZM501.829 341.15L500.704 340.805L504.409 332.585V332.18H499.474V331.1H505.639V332.66L501.829 341.15ZM510.883 341.15C510.503 341.15 510.108 341.125 509.698 341.075C509.288 341.035 508.903 340.985 508.543 340.925C508.183 340.865 507.883 340.805 507.643 340.745L507.748 339.77C507.978 339.81 508.263 339.855 508.603 339.905C508.943 339.955 509.303 340 509.683 340.04C510.063 340.07 510.423 340.085 510.763 340.085C511.483 340.085 512.013 339.93 512.353 339.62C512.703 339.3 512.878 338.83 512.878 338.21C512.878 337.76 512.788 337.405 512.608 337.145C512.428 336.885 512.183 336.695 511.873 336.575C511.573 336.455 511.238 336.39 510.868 336.38H508.873V335.345H510.868C511.118 335.345 511.378 335.275 511.648 335.135C511.928 334.995 512.163 334.795 512.353 334.535C512.543 334.265 512.638 333.945 512.638 333.575C512.638 333.015 512.483 332.615 512.173 332.375C511.873 332.125 511.363 332 510.643 332C510.313 332 509.973 332.02 509.623 332.06C509.283 332.09 508.958 332.13 508.648 332.18C508.348 332.22 508.098 332.265 507.898 332.315L507.793 331.355C507.993 331.295 508.248 331.235 508.558 331.175C508.878 331.105 509.223 331.05 509.593 331.01C509.963 330.96 510.328 330.935 510.688 330.935C511.478 330.935 512.103 331.03 512.563 331.22C513.033 331.4 513.368 331.68 513.568 332.06C513.778 332.44 513.883 332.925 513.883 333.515C513.883 333.895 513.823 334.22 513.703 334.49C513.583 334.75 513.438 334.97 513.268 335.15C513.098 335.32 512.933 335.455 512.773 335.555C512.613 335.655 512.493 335.73 512.413 335.78C512.753 335.9 513.048 336.045 513.298 336.215C513.558 336.375 513.758 336.61 513.898 336.92C514.048 337.22 514.123 337.635 514.123 338.165C514.123 338.835 514.008 339.39 513.778 339.83C513.558 340.27 513.208 340.6 512.728 340.82C512.248 341.04 511.633 341.15 510.883 341.15ZM516.141 341V339.98L518.991 336.995C519.401 336.565 519.756 336.18 520.056 335.84C520.356 335.49 520.586 335.15 520.746 334.82C520.906 334.48 520.986 334.12 520.986 333.74C520.986 333.09 520.806 332.645 520.446 332.405C520.096 332.155 519.566 332.03 518.856 332.03C518.596 332.03 518.306 332.05 517.986 332.09C517.666 332.12 517.356 332.16 517.056 332.21C516.766 332.25 516.516 332.295 516.306 332.345L516.216 331.355C516.426 331.295 516.686 331.235 516.996 331.175C517.306 331.115 517.641 331.065 518.001 331.025C518.371 330.975 518.731 330.95 519.081 330.95C520.131 330.95 520.916 331.16 521.436 331.58C521.966 332 522.231 332.675 522.231 333.605C522.231 334.095 522.151 334.535 521.991 334.925C521.841 335.315 521.611 335.7 521.301 336.08C521.001 336.45 520.616 336.865 520.146 337.325L517.551 339.95H522.471V341H516.141Z" fill="#383838"/>
</g>
</g>
<defs>
<filter id="filter0_d_283_5180" x="0" y="0" width="755" height="508" filterUnits="userSpaceOnUse" color-interpolation-filters="sRGB">
<feFlood flood-opacity="0" result="BackgroundImageFix"/>
<feColorMatrix in="SourceAlpha" type="matrix" values="0 0 0 0 0 0 0 0 0 0 0 0 0 0 0 0 0 0 127 0" result="hardAlpha"/>
<feOffset dy="10"/>
<feGaussianBlur stdDeviation="7.5"/>
<feComposite in2="hardAlpha" operator="out"/>
<feColorMatrix type="matrix" values="0 0 0 0 0.231373 0 0 0 0 0.509804 0 0 0 0 0.964706 0 0 0 0.15 0"/>
<feBlend mode="normal" in2="BackgroundImageFix" result="effect1_dropShadow_283_5180"/>
<feBlend mode="normal" in="SourceGraphic" in2="effect1_dropShadow_283_5180" result="shape"/>
</filter>
<filter id="filter1_dd_283_5180" x="213.5" y="310" width="328" height="52" filterUnits="userSpaceOnUse" color-interpolation-filters="sRGB">
<feFlood flood-opacity="0" result="BackgroundImageFix"/>
<feColorMatrix in="SourceAlpha" type="matrix" values="0 0 0 0 0 0 0 0 0 0 0 0 0 0 0 0 0 0 127 0" result="hardAlpha"/>
<feMorphology radius="4" operator="dilate" in="SourceAlpha" result="effect1_dropShadow_283_5180"/>
<feOffset/>
<feColorMatrix type="matrix" values="0 0 0 0 0.317647 0 0 0 0 0.678431 0 0 0 0 0.968627 0 0 0 0.15 0"/>
<feBlend mode="normal" in2="BackgroundImageFix" result="effect1_dropShadow_283_5180"/>
<feColorMatrix in="SourceAlpha" type="matrix" values="0 0 0 0 0 0 0 0 0 0 0 0 0 0 0 0 0 0 127 0" result="hardAlpha"/>
<feOffset dy="1"/>
<feGaussianBlur stdDeviation="1"/>
<feColorMatrix type="matrix" values="0 0 0 0 0.0392157 0 0 0 0 0.0496732 0 0 0 0 0.0705882 0 0 0 0.05 0"/>
<feBlend mode="normal" in2="effect1_dropShadow_283_5180" result="effect2_dropShadow_283_5180"/>
<feBlend mode="normal" in="SourceGraphic" in2="effect2_dropShadow_283_5180" result="shape"/>
</filter>
<linearGradient id="paint0_linear_283_5180" x1="340.06" y1="147.164" x2="409.509" y2="214.328" gradientUnits="userSpaceOnUse">
<stop stop-color="#83E2ED"/>
<stop offset="1" stop-color="#0F6FEF"/>
</linearGradient>
<clipPath id="clip0_283_5180">
<rect width="16" height="16" fill="white" transform="translate(231.5 328)"/>
</clipPath>
</defs>
</svg>
