<svg width="56" height="56" viewBox="0 0 56 56" fill="none" xmlns="http://www.w3.org/2000/svg">
<path d="M0 14C0 6.26801 6.26801 0 14 0H42C49.732 0 56 6.26801 56 14V42C56 49.732 49.732 56 42 56H14C6.26801 56 0 49.732 0 42V14Z" fill="#111111"/>
<path d="M32 19C31.4696 19 30.9609 19.2107 30.5858 19.5858C30.2107 19.9609 30 20.4696 30 21V27C30 27.5304 30.2107 28.0391 30.5858 28.4142C30.9609 28.7893 31.4696 29 32 29C32.2652 29 32.5196 29.1054 32.7071 29.2929C32.8946 29.4804 33 29.7348 33 30V31C33 31.5304 32.7893 32.0391 32.4142 32.4142C32.0391 32.7893 31.5304 33 31 33C30.7348 33 30.4804 33.1054 30.2929 33.2929C30.1054 33.4804 30 33.7348 30 34V36C30 36.2652 30.1054 36.5196 30.2929 36.7071C30.4804 36.8946 30.7348 37 31 37C32.5913 37 34.1174 36.3679 35.2426 35.2426C36.3679 34.1174 37 32.5913 37 31V21C37 20.4696 36.7893 19.9609 36.4142 19.5858C36.0391 19.2107 35.5304 19 35 19H32Z" stroke="#FCFCFC" stroke-width="1.5" stroke-linecap="round" stroke-linejoin="round"/>
<path d="M21 19C20.4696 19 19.9609 19.2107 19.5858 19.5858C19.2107 19.9609 19 20.4696 19 21V27C19 27.5304 19.2107 28.0391 19.5858 28.4142C19.9609 28.7893 20.4696 29 21 29C21.2652 29 21.5196 29.1054 21.7071 29.2929C21.8946 29.4804 22 29.7348 22 30V31C22 31.5304 21.7893 32.0391 21.4142 32.4142C21.0391 32.7893 20.5304 33 20 33C19.7348 33 19.4804 33.1054 19.2929 33.2929C19.1054 33.4804 19 33.7348 19 34V36C19 36.2652 19.1054 36.5196 19.2929 36.7071C19.4804 36.8946 19.7348 37 20 37C21.5913 37 23.1174 36.3679 24.2426 35.2426C25.3679 34.1174 26 32.5913 26 31V21C26 20.4696 25.7893 19.9609 25.4142 19.5858C25.0391 19.2107 24.5304 19 24 19H21Z" stroke="#FCFCFC" stroke-width="1.5" stroke-linecap="round" stroke-linejoin="round"/>
</svg>
