<svg width="632" height="417" viewBox="0 0 632 417" fill="none" xmlns="http://www.w3.org/2000/svg">
<path opacity="0.15" fill-rule="evenodd" clip-rule="evenodd" d="M603.56 0H597.24V18.765H540.36V0H534.04V18.765H477.16V0H470.84V18.765H413.96V0H407.64V18.765H350.76V0H344.44V18.765H287.56V0H281.24V18.765H224.36V0H218.04V18.765H161.16V0H154.84V18.765H97.96V0H91.64V18.765H34.76V0H28.44V18.765H0V22.935H28.44V60.465H0V64.635H28.44V102.165H0V106.335H28.44V143.865H0V148.035H28.44V185.565H0V189.735H28.44V227.265H0V231.435H28.44V268.965H0V273.135H28.44V310.665H0V314.835H28.44V352.365H0V356.535H28.44V394.065H0V398.235H28.44V417H34.76V398.235H91.64V417H97.96V398.235H154.84V417H161.16V398.235H218.04V417H224.36V398.235H281.24V417H287.56V398.235H344.44V417H350.76V398.235H407.64V417H413.96V398.235H470.84V417H477.16V398.235H534.04V417H540.36V398.235H597.24V417H603.56V398.235H632V394.065H603.56V356.535H632V352.365H603.56V314.835H632V310.665H603.56V273.135H632V268.965H603.56V231.435H632V227.265H603.56V189.735H632V185.565H603.56V148.035H632V143.865H603.56V106.335H632V102.165H603.56V64.635H632V60.465H603.56V22.935H632V18.765H603.56V0ZM540.36 60.465H597.24V22.935H540.36V60.465ZM540.36 102.165H597.24V64.635H540.36V102.165ZM540.36 143.865H597.24V106.335H540.36V143.865ZM540.36 185.565H597.24V148.035H540.36V185.565ZM540.36 227.265H597.24V189.735H540.36V227.265ZM540.36 268.965H597.24V231.435H540.36V268.965ZM540.36 310.665H597.24V273.135H540.36V310.665ZM540.36 352.365H597.24V314.835H540.36V352.365ZM540.36 394.065H597.24V356.535H540.36V394.065ZM91.64 356.535H34.76V394.065H91.64V356.535ZM91.64 314.835H34.76V352.365H91.64V314.835ZM91.64 273.135H34.76V310.665H91.64V273.135ZM91.64 231.435H34.76V268.965H91.64V231.435ZM91.64 189.735H34.76V227.265H91.64V189.735ZM91.64 148.035H34.76V185.565H91.64V148.035ZM91.64 106.335H34.76V143.865H91.64V106.335ZM91.64 64.635H34.76V102.165H91.64V64.635ZM91.64 22.935H34.76V60.465H91.64V22.935ZM477.16 60.465H534.04V22.935H477.16V60.465ZM477.16 102.165H534.04V64.635H477.16V102.165ZM477.16 143.865H534.04V106.335H477.16V143.865ZM477.16 185.565H534.04V148.035H477.16V185.565ZM477.16 227.265H534.04V189.735H477.16V227.265ZM477.16 268.965H534.04V231.435H477.16V268.965ZM477.16 310.665H534.04V273.135H477.16V310.665ZM477.16 352.365H534.04V314.835H477.16V352.365ZM154.84 314.835H97.96V352.365H154.84V314.835ZM154.84 273.135H97.96V310.665H154.84V273.135ZM154.84 231.435H97.96V268.965H154.84V231.435ZM154.84 189.735H97.96V227.265H154.84V189.735ZM154.84 148.035H97.96V185.565H154.84V148.035ZM154.84 106.335H97.96V143.865H154.84V106.335ZM154.84 64.635H97.96V102.165H154.84V64.635ZM413.96 102.165H470.84V64.635H413.96V102.165ZM413.96 143.865H470.84V106.335H413.96V143.865ZM413.96 185.565H470.84V148.035H413.96V185.565ZM413.96 227.265H470.84V189.735H413.96V227.265ZM413.96 268.965H470.84V231.435H413.96V268.965ZM413.96 310.665H470.84V273.135H413.96V310.665ZM218.04 273.135H161.16V310.665H218.04V273.135ZM218.04 231.435H161.16V268.965H218.04V231.435ZM218.04 189.735H161.16V227.265H218.04V189.735ZM218.04 148.035H161.16V185.565H218.04V148.035ZM218.04 106.335H161.16V143.865H218.04V106.335ZM350.76 143.865H407.64V106.335H350.76V143.865ZM350.76 185.565H407.64V148.035H350.76V185.565ZM350.76 227.265H407.64V189.735H350.76V227.265ZM350.76 268.965H407.64V231.435H350.76V268.965ZM281.24 231.435H224.36V268.965H281.24V231.435ZM281.24 189.735H224.36V227.265H281.24V189.735ZM281.24 148.035H224.36V185.565H281.24V148.035ZM287.56 185.565H344.44V148.035H287.56V185.565ZM287.56 227.265H344.44V189.735H287.56V227.265ZM344.44 231.435H287.56V268.965H344.44V231.435ZM287.56 143.865H344.44V106.335H287.56V143.865ZM224.36 143.865H281.24V106.335H224.36V143.865ZM281.24 273.135H224.36V310.665H281.24V273.135ZM344.44 273.135H287.56V310.665H344.44V273.135ZM407.64 273.135H350.76V310.665H407.64V273.135ZM350.76 102.165H407.64V64.635H350.76V102.165ZM287.56 102.165H344.44V64.635H287.56V102.165ZM224.36 102.165H281.24V64.635H224.36V102.165ZM161.16 102.165H218.04V64.635H161.16V102.165ZM218.04 314.835H161.16V352.365H218.04V314.835ZM281.24 314.835H224.36V352.365H281.24V314.835ZM344.44 314.835H287.56V352.365H344.44V314.835ZM407.64 314.835H350.76V352.365H407.64V314.835ZM470.84 314.835H413.96V352.365H470.84V314.835ZM413.96 60.465H470.84V22.935H413.96V60.465ZM350.76 60.465H407.64V22.935H350.76V60.465ZM287.56 60.465H344.44V22.935H287.56V60.465ZM224.36 60.465H281.24V22.935H224.36V60.465ZM161.16 60.465H218.04V22.935H161.16V60.465ZM97.96 60.465H154.84V22.935H97.96V60.465ZM154.84 356.535H97.96V394.065H154.84V356.535ZM218.04 356.535H161.16V394.065H218.04V356.535ZM281.24 356.535H224.36V394.065H281.24V356.535ZM344.44 356.535H287.56V394.065H344.44V356.535ZM407.64 356.535H350.76V394.065H407.64V356.535ZM470.84 356.535H413.96V394.065H470.84V356.535ZM534.04 356.535H477.16V394.065H534.04V356.535Z" fill="url(#paint0_radial_106_898)"/>
<defs>
<radialGradient id="paint0_radial_106_898" cx="0" cy="0" r="1" gradientUnits="userSpaceOnUse" gradientTransform="translate(316 208.5) rotate(90) scale(208.5 316)">
<stop stop-color="white"/>
<stop offset="1" stop-color="white" stop-opacity="0"/>
<stop offset="1" stop-opacity="0"/>
</radialGradient>
</defs>
</svg>
