<svg width="64" height="64" viewBox="0 0 64 64" fill="none" xmlns="http://www.w3.org/2000/svg">
<path d="M0 32C0 14.3269 14.3269 0 32 0C49.6731 0 64 14.3269 64 32C64 49.6731 49.6731 64 32 64C14.3269 64 0 49.6731 0 32Z" fill="#ECF4FF"/>
<path d="M24.5 36.5003C23 37.7603 22.5 41.5003 22.5 41.5003C22.5 41.5003 26.24 41.0003 27.5 39.5003C28.21 38.6603 28.2 37.3703 27.41 36.5903C27.0213 36.2193 26.5093 36.005 25.9722 35.9883C25.4352 35.9717 24.9109 36.1541 24.5 36.5003V36.5003Z" stroke="#2C85FE" stroke-width="2" stroke-linecap="round" stroke-linejoin="round"/>
<path d="M32 35.0002L29 32.0002C29.5321 30.6197 30.2022 29.2963 31 28.0502C32.1652 26.1872 33.7876 24.6533 35.713 23.5943C37.6384 22.5354 39.8027 21.9866 42 22.0002C42 24.7202 41.22 29.5002 36 33.0002C34.7369 33.799 33.3968 34.469 32 35.0002V35.0002Z" stroke="#2C85FE" stroke-width="2" stroke-linecap="round" stroke-linejoin="round"/>
<path d="M29 31.9995H24C24 31.9995 24.55 28.9695 26 27.9995C27.62 26.9195 31 27.9995 31 27.9995" stroke="#2C85FE" stroke-width="2" stroke-linecap="round" stroke-linejoin="round"/>
<path d="M32 35V40C32 40 35.03 39.45 36 38C37.08 36.38 36 33 36 33" stroke="#2C85FE" stroke-width="2" stroke-linecap="round" stroke-linejoin="round"/>
</svg>
