<svg width="64" height="64" viewBox="0 0 64 64" fill="none" xmlns="http://www.w3.org/2000/svg">
<path d="M0 32C0 14.3269 14.3269 0 32 0C49.6731 0 64 14.3269 64 32C64 49.6731 49.6731 64 32 64C14.3269 64 0 49.6731 0 32Z" fill="#ECF4FF"/>
<path d="M31 23H27.8C26.1198 23 25.2798 23 24.638 23.327C24.0735 23.6146 23.6146 24.0735 23.327 24.638C23 25.2798 23 26.1198 23 27.8V36.2C23 37.8802 23 38.7202 23.327 39.362C23.6146 39.9265 24.0735 40.3854 24.638 40.673C25.2798 41 26.1198 41 27.8 41H36.2C37.8802 41 38.7202 41 39.362 40.673C39.9265 40.3854 40.3854 39.9265 40.673 39.362C41 38.7202 41 37.8802 41 36.2V33" stroke="#2C85FE" stroke-width="2" stroke-linecap="round" stroke-linejoin="round"/>
<path d="M32 28H36V32" stroke="#2C85FE" stroke-width="2" stroke-linecap="round" stroke-linejoin="round"/>
<path d="M35.5 23.5V22" stroke="#2C85FE" stroke-width="2" stroke-linecap="round" stroke-linejoin="round"/>
<path d="M39.4393 24.5607L40.5 23.5" stroke="#2C85FE" stroke-width="2" stroke-linecap="round" stroke-linejoin="round"/>
<path d="M40.5103 28.5L42.0103 28.5" stroke="#2C85FE" stroke-width="2" stroke-linecap="round" stroke-linejoin="round"/>
<path d="M23 33.3471C23.6519 33.4478 24.3199 33.5 25 33.5C29.3864 33.5 33.2653 31.3276 35.6197 28" stroke="#2C85FE" stroke-width="2" stroke-linecap="round" stroke-linejoin="round"/>
</svg>
