<svg width="64" height="64" viewBox="0 0 64 64" fill="none" xmlns="http://www.w3.org/2000/svg">
<path d="M0 32C0 14.3269 14.3269 0 32 0C49.6731 0 64 14.3269 64 32C64 49.6731 49.6731 64 32 64C14.3269 64 0 49.6731 0 32Z" fill="#ECF4FF"/>
<path d="M30.4998 41.888L30.4999 39.6847C30.4999 39.5654 30.5426 39.45 30.6203 39.3593L33.1061 36.4592C33.3104 36.2208 33.2471 35.8554 32.9745 35.6997L30.1183 34.0675C30.0407 34.0232 29.9764 33.9588 29.9321 33.8812L28.0702 30.6184C27.9733 30.4486 27.7864 30.3508 27.5916 30.3682L22.064 30.8605" stroke="#2C85FE" stroke-width="2" stroke-linecap="round" stroke-linejoin="round"/>
<path d="M35 22.4578C34.053 22.1604 33.0452 22 32 22C26.4772 22 22 26.4772 22 32C22 37.5228 26.4772 42 32 42C37.5228 42 42 37.5228 42 32C42 30.2847 41.5681 28.6702 40.8071 27.2594" stroke="#2C85FE" stroke-width="2" stroke-linecap="round" stroke-linejoin="round"/>
<path d="M37 32C39 30 41 28.2091 41 26C41 23.7909 39.2091 22 37 22C34.7909 22 33 23.7909 33 26C33 28.2091 35 30 37 32Z" stroke="#2C85FE" stroke-width="2" stroke-linecap="round" stroke-linejoin="round"/>
<path d="M37 25.75H37.005M37.25 25.75C37.25 25.8881 37.1381 26 37 26C36.8619 26 36.75 25.8881 36.75 25.75C36.75 25.6119 36.8619 25.5 37 25.5C37.1381 25.5 37.25 25.6119 37.25 25.75Z" stroke="#2C85FE" stroke-width="2" stroke-linecap="round" stroke-linejoin="round"/>
</svg>
