<svg width="64" height="64" viewBox="0 0 64 64" fill="none" xmlns="http://www.w3.org/2000/svg">
<path d="M0 32C0 14.3269 14.3269 0 32 0C49.6731 0 64 14.3269 64 32C64 49.6731 49.6731 64 32 64C14.3269 64 0 49.6731 0 32Z" fill="#ECF4FF"/>
<path d="M26.5 26.5H26.51" stroke="#2C85FE" stroke-width="2" stroke-linecap="round" stroke-linejoin="round"/>
<path d="M37.5 26.5H37.51" stroke="#2C85FE" stroke-width="2" stroke-linecap="round" stroke-linejoin="round"/>
<path d="M26.5 37.5H26.51" stroke="#2C85FE" stroke-width="2" stroke-linecap="round" stroke-linejoin="round"/>
<path d="M33 33H33.01" stroke="#2C85FE" stroke-width="2" stroke-linecap="round" stroke-linejoin="round"/>
<path d="M37.5 37.5H37.51" stroke="#2C85FE" stroke-width="2" stroke-linecap="round" stroke-linejoin="round"/>
<path d="M34 36.5V41" stroke="#2C85FE" stroke-width="2" stroke-linecap="round" stroke-linejoin="round"/>
<path d="M41 34H36.5" stroke="#2C85FE" stroke-width="2" stroke-linecap="round" stroke-linejoin="round"/>
<path d="M37 41H41V37" stroke="#2C85FE" stroke-width="2" stroke-linecap="round" stroke-linejoin="round"/>
<rect x="34" y="23" width="7" height="7" rx="1" stroke="#2C85FE" stroke-width="2" stroke-linecap="round" stroke-linejoin="round"/>
<rect x="23" y="23" width="7" height="7" rx="1" stroke="#2C85FE" stroke-width="2" stroke-linecap="round" stroke-linejoin="round"/>
<rect x="23" y="34" width="7" height="7" rx="1" stroke="#2C85FE" stroke-width="2" stroke-linecap="round" stroke-linejoin="round"/>
</svg>
