<svg width="64" height="64" viewBox="0 0 64 64" fill="none" xmlns="http://www.w3.org/2000/svg">
<path d="M0 32C0 14.3269 14.3269 0 32 0C49.6731 0 64 14.3269 64 32C64 49.6731 49.6731 64 32 64C14.3269 64 0 49.6731 0 32Z" fill="#ECF4FF"/>
<path d="M23 23V37.8C23 38.9201 23 39.4802 23.218 39.908C23.4097 40.2843 23.7157 40.5903 24.092 40.782C24.5198 41 25.0799 41 26.2 41H41" stroke="#2C85FE" stroke-width="2" stroke-linecap="round" stroke-linejoin="round"/>
<path d="M27 30.5V37.5" stroke="#2C85FE" stroke-width="2" stroke-linecap="round" stroke-linejoin="round"/>
<path d="M31.5 25.5V37.5" stroke="#2C85FE" stroke-width="2" stroke-linecap="round" stroke-linejoin="round"/>
<path d="M36 30.5V37.5" stroke="#2C85FE" stroke-width="2" stroke-linecap="round" stroke-linejoin="round"/>
<path d="M40.5 25.5V37.5" stroke="#2C85FE" stroke-width="2" stroke-linecap="round" stroke-linejoin="round"/>
</svg>
