<svg width="718" height="489" viewBox="0 0 718 489" fill="none" xmlns="http://www.w3.org/2000/svg">
<g filter="url(#filter0_d_1_650)">
<mask id="path-1-inside-1_1_650" fill="white">
<path d="M15 44.3962C15 22.6383 32.6383 5 54.3962 5H663.604C685.362 5 703 22.6383 703 44.3962V424.472C703 446.23 685.362 463.868 663.604 463.868H54.3963C32.6383 463.868 15 446.23 15 424.472V44.3962Z"/>
</mask>
<path d="M15 44.3962C15 22.6383 32.6383 5 54.3962 5H663.604C685.362 5 703 22.6383 703 44.3962V424.472C703 446.23 685.362 463.868 663.604 463.868H54.3963C32.6383 463.868 15 446.23 15 424.472V44.3962Z" fill="#FCFCFC" shape-rendering="crispEdges"/>
<path d="M54.3962 5V6.64151H663.604V5V3.35849H54.3962V5ZM703 44.3962H701.359V424.472H703H704.641V44.3962H703ZM663.604 463.868V462.226H54.3963V463.868V465.509H663.604V463.868ZM15 424.472H16.6415V44.3962H15H13.3585V424.472H15ZM54.3963 463.868V462.226C33.5449 462.226 16.6415 445.323 16.6415 424.472H15H13.3585C13.3585 447.136 31.7317 465.509 54.3963 465.509V463.868ZM703 424.472H701.359C701.359 445.323 684.455 462.226 663.604 462.226V463.868V465.509C686.268 465.509 704.641 447.136 704.641 424.472H703ZM663.604 5V6.64151C684.455 6.64151 701.359 23.5449 701.359 44.3962H703H704.641C704.641 21.7317 686.268 3.35849 663.604 3.35849V5ZM54.3962 5V3.35849C31.7317 3.35849 13.3585 21.7317 13.3585 44.3962H15H16.6415C16.6415 23.5449 33.5449 6.64151 54.3962 6.64151V5Z" fill="#E5E7EB" mask="url(#path-1-inside-1_1_650)"/>
<rect x="65.6416" y="55.6406" width="585.66" height="357.585" rx="25.2642" stroke="#CBD5E1" stroke-width="2" stroke-dasharray="9.85 6.57"/>
<rect x="310.472" y="135.434" width="96" height="96" rx="48" fill="url(#paint0_linear_1_650)"/>
<path d="M345.138 190.504C343.128 189.159 341.805 186.867 341.805 184.267C341.805 180.361 344.791 177.152 348.604 176.799C349.384 172.054 353.505 168.434 358.471 168.434C363.438 168.434 367.558 172.054 368.338 176.799C372.152 177.152 375.138 180.361 375.138 184.267C375.138 186.867 373.815 189.159 371.805 190.504M351.805 190.1L358.471 183.434M358.471 183.434L365.138 190.1M358.471 183.434V198.434" stroke="#FCFCFC" stroke-width="3" stroke-linecap="round" stroke-linejoin="round"/>
<path d="M238.846 288.434V285.53H243.142C244.23 285.53 245.182 285.306 245.998 284.858C246.814 284.394 247.446 283.746 247.894 282.914C248.358 282.082 248.59 281.098 248.59 279.962C248.59 278.858 248.358 277.898 247.894 277.082C247.43 276.25 246.79 275.61 245.974 275.162C245.158 274.698 244.214 274.466 243.142 274.466H238.774V271.562H243.19C244.438 271.562 245.59 271.77 246.646 272.186C247.718 272.602 248.646 273.194 249.43 273.962C250.23 274.714 250.846 275.602 251.278 276.626C251.726 277.65 251.95 278.77 251.95 279.986C251.95 281.202 251.726 282.33 251.278 283.37C250.846 284.394 250.238 285.29 249.454 286.058C248.67 286.81 247.742 287.394 246.67 287.81C245.614 288.226 244.47 288.434 243.238 288.434H238.846ZM236.614 288.434V271.562H239.878V288.434H236.614ZM254.207 288.434V276.842H257.351V288.434H254.207ZM257.351 282.026L256.127 281.21C256.271 279.786 256.687 278.666 257.375 277.85C258.063 277.018 259.055 276.602 260.351 276.602C260.911 276.602 261.415 276.698 261.863 276.89C262.311 277.066 262.719 277.362 263.087 277.778L261.119 280.034C260.943 279.842 260.727 279.698 260.471 279.602C260.231 279.506 259.951 279.458 259.631 279.458C258.959 279.458 258.407 279.674 257.975 280.106C257.559 280.522 257.351 281.162 257.351 282.026ZM269.312 288.674C268.144 288.674 267.088 288.41 266.144 287.882C265.216 287.338 264.472 286.61 263.912 285.698C263.368 284.77 263.096 283.738 263.096 282.602C263.096 281.466 263.368 280.45 263.912 279.554C264.456 278.642 265.2 277.922 266.144 277.394C267.088 276.85 268.136 276.578 269.288 276.578C270.472 276.578 271.528 276.85 272.456 277.394C273.4 277.922 274.144 278.642 274.688 279.554C275.232 280.45 275.504 281.466 275.504 282.602C275.504 283.738 275.232 284.77 274.688 285.698C274.144 286.61 273.4 287.338 272.456 287.882C271.528 288.41 270.48 288.674 269.312 288.674ZM269.288 285.746C269.88 285.746 270.4 285.618 270.848 285.362C271.312 285.09 271.664 284.722 271.904 284.258C272.16 283.778 272.288 283.234 272.288 282.626C272.288 282.018 272.16 281.482 271.904 281.018C271.648 280.554 271.296 280.194 270.848 279.938C270.4 279.666 269.88 279.53 269.288 279.53C268.712 279.53 268.2 279.666 267.752 279.938C267.304 280.194 266.952 280.554 266.696 281.018C266.44 281.482 266.312 282.018 266.312 282.626C266.312 283.234 266.44 283.778 266.696 284.258C266.952 284.722 267.304 285.09 267.752 285.362C268.2 285.618 268.712 285.746 269.288 285.746ZM283.96 288.674C283.128 288.674 282.376 288.506 281.704 288.17C281.032 287.818 280.496 287.346 280.096 286.754C279.696 286.162 279.48 285.482 279.448 284.714V280.61C279.48 279.842 279.696 279.162 280.096 278.57C280.512 277.962 281.048 277.482 281.704 277.13C282.376 276.778 283.128 276.602 283.96 276.602C285.032 276.602 285.992 276.866 286.84 277.394C287.688 277.922 288.352 278.642 288.832 279.554C289.328 280.466 289.576 281.498 289.576 282.65C289.576 283.786 289.328 284.81 288.832 285.722C288.352 286.634 287.688 287.354 286.84 287.882C285.992 288.41 285.032 288.674 283.96 288.674ZM277.528 293.282V276.842H280.672V279.89L280.144 282.698L280.648 285.506V293.282H277.528ZM283.408 285.77C283.984 285.77 284.496 285.642 284.944 285.386C285.392 285.114 285.736 284.746 285.976 284.282C286.232 283.802 286.36 283.25 286.36 282.626C286.36 282.018 286.232 281.482 285.976 281.018C285.736 280.538 285.392 280.17 284.944 279.914C284.496 279.642 283.984 279.506 283.408 279.506C282.848 279.506 282.344 279.642 281.896 279.914C281.448 280.17 281.096 280.538 280.84 281.018C280.6 281.482 280.48 282.018 280.48 282.626C280.48 283.25 280.6 283.802 280.84 284.282C281.096 284.746 281.44 285.114 281.872 285.386C282.32 285.642 282.832 285.77 283.408 285.77ZM299.973 288.53L295.125 276.842H298.533L301.749 285.77H300.597L303.933 276.842H307.365L302.205 288.53H299.973ZM296.757 293.282L300.285 285.818L302.205 288.53L300.093 293.282H296.757ZM313.89 288.674C312.722 288.674 311.666 288.41 310.722 287.882C309.794 287.338 309.05 286.61 308.49 285.698C307.946 284.77 307.674 283.738 307.674 282.602C307.674 281.466 307.946 280.45 308.49 279.554C309.034 278.642 309.778 277.922 310.722 277.394C311.666 276.85 312.714 276.578 313.866 276.578C315.05 276.578 316.106 276.85 317.034 277.394C317.978 277.922 318.722 278.642 319.266 279.554C319.81 280.45 320.082 281.466 320.082 282.602C320.082 283.738 319.81 284.77 319.266 285.698C318.722 286.61 317.978 287.338 317.034 287.882C316.106 288.41 315.058 288.674 313.89 288.674ZM313.866 285.746C314.458 285.746 314.978 285.618 315.426 285.362C315.89 285.09 316.242 284.722 316.482 284.258C316.738 283.778 316.866 283.234 316.866 282.626C316.866 282.018 316.738 281.482 316.482 281.018C316.226 280.554 315.874 280.194 315.426 279.938C314.978 279.666 314.458 279.53 313.866 279.53C313.29 279.53 312.778 279.666 312.33 279.938C311.882 280.194 311.53 280.554 311.274 281.018C311.018 281.482 310.89 282.018 310.89 282.626C310.89 283.234 311.018 283.778 311.274 284.258C311.53 284.722 311.882 285.09 312.33 285.362C312.778 285.618 313.29 285.746 313.866 285.746ZM327.05 288.674C326.026 288.674 325.114 288.458 324.314 288.026C323.53 287.594 322.914 286.994 322.466 286.226C322.018 285.458 321.794 284.57 321.794 283.562V276.842H324.962V283.49C324.962 283.97 325.042 284.386 325.202 284.738C325.362 285.074 325.602 285.33 325.922 285.506C326.242 285.682 326.618 285.77 327.05 285.77C327.706 285.77 328.218 285.57 328.586 285.17C328.954 284.77 329.138 284.21 329.138 283.49V276.842H332.282V283.562C332.282 284.586 332.058 285.482 331.61 286.25C331.178 287.018 330.562 287.618 329.762 288.05C328.978 288.466 328.074 288.674 327.05 288.674ZM334.786 288.434V276.842H337.93V288.434H334.786ZM337.93 282.026L336.706 281.21C336.85 279.786 337.266 278.666 337.954 277.85C338.642 277.018 339.634 276.602 340.93 276.602C341.49 276.602 341.994 276.698 342.442 276.89C342.89 277.066 343.298 277.362 343.666 277.778L341.698 280.034C341.522 279.842 341.306 279.698 341.05 279.602C340.81 279.506 340.53 279.458 340.21 279.458C339.538 279.458 338.986 279.674 338.554 280.106C338.138 280.522 337.93 281.162 337.93 282.026ZM349.879 288.434V276.842H353.023V288.434H349.879ZM353.023 282.026L351.799 281.21C351.943 279.786 352.359 278.666 353.047 277.85C353.735 277.018 354.727 276.602 356.023 276.602C356.583 276.602 357.087 276.698 357.535 276.89C357.983 277.066 358.391 277.362 358.759 277.778L356.791 280.034C356.615 279.842 356.399 279.698 356.143 279.602C355.903 279.506 355.623 279.458 355.303 279.458C354.631 279.458 354.079 279.674 353.647 280.106C353.231 280.522 353.023 281.162 353.023 282.026ZM365.08 288.674C363.864 288.674 362.784 288.418 361.84 287.906C360.896 287.378 360.144 286.658 359.584 285.746C359.04 284.834 358.768 283.794 358.768 282.626C358.768 281.474 359.032 280.45 359.56 279.554C360.104 278.642 360.84 277.922 361.768 277.394C362.696 276.85 363.728 276.578 364.864 276.578C365.984 276.578 366.968 276.834 367.816 277.346C368.68 277.842 369.352 278.53 369.832 279.41C370.328 280.274 370.576 281.258 370.576 282.362C370.576 282.57 370.56 282.786 370.528 283.01C370.512 283.218 370.472 283.458 370.408 283.73L360.664 283.754V281.402L368.944 281.378L367.672 282.362C367.64 281.674 367.512 281.098 367.288 280.634C367.08 280.17 366.768 279.818 366.352 279.578C365.952 279.322 365.456 279.194 364.864 279.194C364.24 279.194 363.696 279.338 363.232 279.626C362.768 279.898 362.408 280.29 362.152 280.802C361.912 281.298 361.792 281.89 361.792 282.578C361.792 283.282 361.92 283.898 362.176 284.426C362.448 284.938 362.832 285.338 363.328 285.626C363.824 285.898 364.4 286.034 365.056 286.034C365.648 286.034 366.184 285.938 366.664 285.746C367.144 285.538 367.56 285.234 367.912 284.834L369.76 286.682C369.2 287.338 368.512 287.834 367.696 288.17C366.896 288.506 366.024 288.674 365.08 288.674ZM376.504 288.698C375.848 288.698 375.2 288.61 374.56 288.434C373.936 288.258 373.36 288.018 372.832 287.714C372.304 287.394 371.848 287.01 371.464 286.562L373.336 284.666C373.736 285.114 374.2 285.45 374.728 285.674C375.256 285.898 375.84 286.01 376.48 286.01C376.992 286.01 377.376 285.938 377.632 285.794C377.904 285.65 378.04 285.434 378.04 285.146C378.04 284.826 377.896 284.578 377.608 284.402C377.336 284.226 376.976 284.082 376.528 283.97C376.08 283.842 375.608 283.706 375.112 283.562C374.632 283.402 374.168 283.202 373.72 282.962C373.272 282.706 372.904 282.362 372.616 281.93C372.344 281.482 372.208 280.906 372.208 280.202C372.208 279.466 372.384 278.826 372.736 278.282C373.104 277.738 373.624 277.314 374.296 277.01C374.968 276.706 375.76 276.554 376.672 276.554C377.632 276.554 378.496 276.722 379.264 277.058C380.048 277.394 380.696 277.898 381.208 278.57L379.312 280.466C378.96 280.034 378.56 279.722 378.112 279.53C377.68 279.338 377.208 279.242 376.696 279.242C376.232 279.242 375.872 279.314 375.616 279.458C375.376 279.602 375.256 279.802 375.256 280.058C375.256 280.346 375.392 280.57 375.664 280.73C375.952 280.89 376.32 281.034 376.768 281.162C377.216 281.274 377.68 281.41 378.16 281.57C378.656 281.714 379.12 281.922 379.552 282.194C380 282.466 380.36 282.826 380.632 283.274C380.92 283.722 381.064 284.298 381.064 285.002C381.064 286.138 380.656 287.042 379.84 287.714C379.024 288.37 377.912 288.698 376.504 288.698ZM388.128 288.674C387.104 288.674 386.192 288.458 385.392 288.026C384.608 287.594 383.992 286.994 383.544 286.226C383.096 285.458 382.872 284.57 382.872 283.562V276.842H386.04V283.49C386.04 283.97 386.12 284.386 386.28 284.738C386.44 285.074 386.68 285.33 387 285.506C387.32 285.682 387.696 285.77 388.128 285.77C388.784 285.77 389.296 285.57 389.664 285.17C390.032 284.77 390.216 284.21 390.216 283.49V276.842H393.36V283.562C393.36 284.586 393.136 285.482 392.688 286.25C392.256 287.018 391.64 287.618 390.84 288.05C390.056 288.466 389.152 288.674 388.128 288.674ZM395.864 288.434V276.842H399.008V288.434H395.864ZM403.424 288.434V281.594C403.424 280.922 403.208 280.402 402.776 280.034C402.36 279.65 401.84 279.458 401.216 279.458C400.8 279.458 400.424 279.546 400.088 279.722C399.752 279.882 399.488 280.122 399.296 280.442C399.104 280.762 399.008 281.146 399.008 281.594L397.784 280.994C397.784 280.098 397.976 279.322 398.36 278.666C398.76 278.01 399.296 277.506 399.968 277.154C400.64 276.786 401.4 276.602 402.248 276.602C403.048 276.602 403.776 276.786 404.432 277.154C405.088 277.506 405.608 278.01 405.992 278.666C406.376 279.306 406.568 280.082 406.568 280.994V288.434H403.424ZM410.984 288.434V281.594C410.984 280.922 410.768 280.402 410.336 280.034C409.92 279.65 409.4 279.458 408.776 279.458C408.376 279.458 408 279.546 407.648 279.722C407.312 279.882 407.048 280.122 406.856 280.442C406.664 280.762 406.568 281.146 406.568 281.594L404.768 281.162C404.832 280.234 405.08 279.434 405.512 278.762C405.944 278.074 406.512 277.546 407.216 277.178C407.92 276.794 408.704 276.602 409.568 276.602C410.432 276.602 411.208 276.786 411.896 277.154C412.584 277.506 413.128 278.018 413.528 278.69C413.928 279.362 414.128 280.162 414.128 281.09V288.434H410.984ZM422.22 288.674C421.004 288.674 419.924 288.418 418.98 287.906C418.036 287.378 417.284 286.658 416.724 285.746C416.18 284.834 415.908 283.794 415.908 282.626C415.908 281.474 416.172 280.45 416.7 279.554C417.244 278.642 417.98 277.922 418.908 277.394C419.836 276.85 420.868 276.578 422.004 276.578C423.124 276.578 424.108 276.834 424.956 277.346C425.82 277.842 426.492 278.53 426.972 279.41C427.468 280.274 427.716 281.258 427.716 282.362C427.716 282.57 427.7 282.786 427.668 283.01C427.652 283.218 427.612 283.458 427.548 283.73L417.804 283.754V281.402L426.084 281.378L424.812 282.362C424.78 281.674 424.652 281.098 424.428 280.634C424.22 280.17 423.908 279.818 423.492 279.578C423.092 279.322 422.596 279.194 422.004 279.194C421.38 279.194 420.836 279.338 420.372 279.626C419.908 279.898 419.548 280.29 419.292 280.802C419.052 281.298 418.932 281.89 418.932 282.578C418.932 283.282 419.06 283.898 419.316 284.426C419.588 284.938 419.972 285.338 420.468 285.626C420.964 285.898 421.54 286.034 422.196 286.034C422.788 286.034 423.324 285.938 423.804 285.746C424.284 285.538 424.7 285.234 425.052 284.834L426.9 286.682C426.34 287.338 425.652 287.834 424.836 288.17C424.036 288.506 423.164 288.674 422.22 288.674ZM442.148 288.434V281.786C442.148 281.098 441.932 280.538 441.5 280.106C441.068 279.674 440.508 279.458 439.82 279.458C439.372 279.458 438.972 279.554 438.62 279.746C438.268 279.938 437.988 280.21 437.78 280.562C437.588 280.914 437.492 281.322 437.492 281.786L436.268 281.162C436.268 280.25 436.46 279.458 436.844 278.786C437.228 278.098 437.756 277.562 438.428 277.178C439.116 276.794 439.9 276.602 440.78 276.602C441.66 276.602 442.436 276.794 443.108 277.178C443.796 277.562 444.332 278.09 444.716 278.762C445.1 279.434 445.292 280.21 445.292 281.09V288.434H442.148ZM434.348 288.434V271.082H437.492V288.434H434.348ZM453.369 288.674C452.153 288.674 451.073 288.418 450.129 287.906C449.185 287.378 448.433 286.658 447.873 285.746C447.329 284.834 447.057 283.794 447.057 282.626C447.057 281.474 447.321 280.45 447.849 279.554C448.393 278.642 449.129 277.922 450.057 277.394C450.985 276.85 452.017 276.578 453.153 276.578C454.273 276.578 455.257 276.834 456.105 277.346C456.969 277.842 457.641 278.53 458.121 279.41C458.617 280.274 458.865 281.258 458.865 282.362C458.865 282.57 458.849 282.786 458.817 283.01C458.801 283.218 458.761 283.458 458.697 283.73L448.953 283.754V281.402L457.233 281.378L455.961 282.362C455.929 281.674 455.801 281.098 455.577 280.634C455.369 280.17 455.057 279.818 454.641 279.578C454.241 279.322 453.745 279.194 453.153 279.194C452.529 279.194 451.985 279.338 451.521 279.626C451.057 279.898 450.697 280.29 450.441 280.802C450.201 281.298 450.081 281.89 450.081 282.578C450.081 283.282 450.209 283.898 450.465 284.426C450.737 284.938 451.121 285.338 451.617 285.626C452.113 285.898 452.689 286.034 453.345 286.034C453.937 286.034 454.473 285.938 454.953 285.746C455.433 285.538 455.849 285.234 456.201 284.834L458.049 286.682C457.489 287.338 456.801 287.834 455.985 288.17C455.185 288.506 454.313 288.674 453.369 288.674ZM460.809 288.434V276.842H463.953V288.434H460.809ZM463.953 282.026L462.729 281.21C462.873 279.786 463.289 278.666 463.977 277.85C464.665 277.018 465.657 276.602 466.953 276.602C467.513 276.602 468.017 276.698 468.465 276.89C468.913 277.066 469.321 277.362 469.689 277.778L467.721 280.034C467.545 279.842 467.329 279.698 467.073 279.602C466.833 279.506 466.553 279.458 466.233 279.458C465.561 279.458 465.009 279.674 464.577 280.106C464.161 280.522 463.953 281.162 463.953 282.026ZM476.009 288.674C474.793 288.674 473.713 288.418 472.769 287.906C471.825 287.378 471.073 286.658 470.513 285.746C469.969 284.834 469.697 283.794 469.697 282.626C469.697 281.474 469.961 280.45 470.489 279.554C471.033 278.642 471.769 277.922 472.697 277.394C473.625 276.85 474.657 276.578 475.793 276.578C476.913 276.578 477.897 276.834 478.745 277.346C479.609 277.842 480.281 278.53 480.761 279.41C481.257 280.274 481.505 281.258 481.505 282.362C481.505 282.57 481.489 282.786 481.457 283.01C481.441 283.218 481.401 283.458 481.337 283.73L471.593 283.754V281.402L479.873 281.378L478.601 282.362C478.569 281.674 478.441 281.098 478.217 280.634C478.009 280.17 477.697 279.818 477.281 279.578C476.881 279.322 476.385 279.194 475.793 279.194C475.169 279.194 474.625 279.338 474.161 279.626C473.697 279.898 473.337 280.29 473.081 280.802C472.841 281.298 472.721 281.89 472.721 282.578C472.721 283.282 472.849 283.898 473.105 284.426C473.377 284.938 473.761 285.338 474.257 285.626C474.753 285.898 475.329 286.034 475.985 286.034C476.577 286.034 477.113 285.938 477.593 285.746C478.073 285.538 478.489 285.234 478.841 284.834L480.689 286.682C480.129 287.338 479.441 287.834 478.625 288.17C477.825 288.506 476.953 288.674 476.009 288.674Z" fill="#333333"/>
<path d="M280.296 326.654C279.27 326.654 278.346 326.412 277.524 325.928C276.703 325.444 276.05 324.791 275.566 323.97C275.082 323.134 274.84 322.202 274.84 321.176C274.84 320.164 275.082 319.254 275.566 318.448C276.05 317.626 276.703 316.974 277.524 316.49C278.346 316.006 279.27 315.764 280.296 315.764C281.308 315.764 282.225 316.006 283.046 316.49C283.882 316.959 284.542 317.604 285.026 318.426C285.51 319.247 285.752 320.164 285.752 321.176C285.752 322.202 285.51 323.134 285.026 323.97C284.542 324.791 283.882 325.444 283.046 325.928C282.225 326.412 281.308 326.654 280.296 326.654ZM280.296 324.74C280.956 324.74 281.543 324.586 282.056 324.278C282.57 323.97 282.973 323.552 283.266 323.024C283.56 322.481 283.706 321.865 283.706 321.176C283.706 320.501 283.552 319.9 283.244 319.372C282.951 318.844 282.548 318.433 282.034 318.14C281.536 317.832 280.956 317.678 280.296 317.678C279.636 317.678 279.05 317.832 278.536 318.14C278.023 318.433 277.62 318.844 277.326 319.372C277.033 319.9 276.886 320.501 276.886 321.176C276.886 321.865 277.033 322.481 277.326 323.024C277.62 323.552 278.023 323.97 278.536 324.278C279.05 324.586 279.636 324.74 280.296 324.74ZM287.983 326.434V315.984H289.963V326.434H287.983ZM289.963 320.472L289.215 320.142C289.215 318.807 289.523 317.744 290.139 316.952C290.755 316.16 291.643 315.764 292.801 315.764C293.329 315.764 293.806 315.859 294.231 316.05C294.657 316.226 295.053 316.526 295.419 316.952L294.121 318.294C293.901 318.059 293.659 317.89 293.395 317.788C293.131 317.685 292.823 317.634 292.471 317.634C291.738 317.634 291.137 317.868 290.667 318.338C290.198 318.807 289.963 319.518 289.963 320.472ZM306.55 326.654C305.524 326.654 304.592 326.412 303.756 325.928C302.935 325.444 302.282 324.791 301.798 323.97C301.329 323.134 301.094 322.21 301.094 321.198C301.094 320.171 301.329 319.247 301.798 318.426C302.282 317.604 302.935 316.959 303.756 316.49C304.592 316.006 305.524 315.764 306.55 315.764C307.357 315.764 308.105 315.918 308.794 316.226C309.484 316.519 310.078 316.952 310.576 317.524L309.256 318.844C308.934 318.462 308.538 318.176 308.068 317.986C307.614 317.78 307.108 317.678 306.55 317.678C305.89 317.678 305.304 317.832 304.79 318.14C304.277 318.433 303.874 318.844 303.58 319.372C303.287 319.9 303.14 320.508 303.14 321.198C303.14 321.887 303.287 322.496 303.58 323.024C303.874 323.552 304.277 323.97 304.79 324.278C305.304 324.586 305.89 324.74 306.55 324.74C307.108 324.74 307.614 324.644 308.068 324.454C308.538 324.248 308.941 323.955 309.278 323.574L310.576 324.894C310.092 325.451 309.498 325.884 308.794 326.192C308.105 326.5 307.357 326.654 306.55 326.654ZM312.54 326.434V310.726H314.52V326.434H312.54ZM317.439 326.434V315.984H319.419V326.434H317.439ZM318.429 313.894C318.062 313.894 317.762 313.776 317.527 313.542C317.292 313.292 317.175 312.984 317.175 312.618C317.175 312.266 317.292 311.972 317.527 311.738C317.762 311.488 318.062 311.364 318.429 311.364C318.796 311.364 319.096 311.488 319.331 311.738C319.566 311.972 319.683 312.266 319.683 312.618C319.683 312.984 319.566 313.292 319.331 313.542C319.096 313.776 318.796 313.894 318.429 313.894ZM327.111 326.654C326.084 326.654 325.153 326.412 324.317 325.928C323.495 325.444 322.843 324.791 322.359 323.97C321.889 323.134 321.655 322.21 321.655 321.198C321.655 320.171 321.889 319.247 322.359 318.426C322.843 317.604 323.495 316.959 324.317 316.49C325.153 316.006 326.084 315.764 327.111 315.764C327.917 315.764 328.665 315.918 329.355 316.226C330.044 316.519 330.638 316.952 331.137 317.524L329.817 318.844C329.494 318.462 329.098 318.176 328.629 317.986C328.174 317.78 327.668 317.678 327.111 317.678C326.451 317.678 325.864 317.832 325.351 318.14C324.837 318.433 324.434 318.844 324.141 319.372C323.847 319.9 323.701 320.508 323.701 321.198C323.701 321.887 323.847 322.496 324.141 323.024C324.434 323.552 324.837 323.97 325.351 324.278C325.864 324.586 326.451 324.74 327.111 324.74C327.668 324.74 328.174 324.644 328.629 324.454C329.098 324.248 329.501 323.955 329.839 323.574L331.137 324.894C330.653 325.451 330.059 325.884 329.355 326.192C328.665 326.5 327.917 326.654 327.111 326.654ZM339.788 326.434L334.904 321.088L339.744 315.984H342.142L336.752 321.616L336.84 320.472L342.34 326.434H339.788ZM333.1 326.434V310.726H335.08V326.434H333.1ZM350.24 326.434V311.606H352.22V326.434H350.24ZM347.666 317.788V315.984H354.794V317.788H347.666ZM361.185 326.654C360.158 326.654 359.234 326.412 358.413 325.928C357.592 325.444 356.939 324.791 356.455 323.97C355.971 323.134 355.729 322.202 355.729 321.176C355.729 320.164 355.971 319.254 356.455 318.448C356.939 317.626 357.592 316.974 358.413 316.49C359.234 316.006 360.158 315.764 361.185 315.764C362.197 315.764 363.114 316.006 363.935 316.49C364.771 316.959 365.431 317.604 365.915 318.426C366.399 319.247 366.641 320.164 366.641 321.176C366.641 322.202 366.399 323.134 365.915 323.97C365.431 324.791 364.771 325.444 363.935 325.928C363.114 326.412 362.197 326.654 361.185 326.654ZM361.185 324.74C361.845 324.74 362.432 324.586 362.945 324.278C363.458 323.97 363.862 323.552 364.155 323.024C364.448 322.481 364.595 321.865 364.595 321.176C364.595 320.501 364.441 319.9 364.133 319.372C363.84 318.844 363.436 318.433 362.923 318.14C362.424 317.832 361.845 317.678 361.185 317.678C360.525 317.678 359.938 317.832 359.425 318.14C358.912 318.433 358.508 318.844 358.215 319.372C357.922 319.9 357.775 320.501 357.775 321.176C357.775 321.865 357.922 322.481 358.215 323.024C358.508 323.552 358.912 323.97 359.425 324.278C359.938 324.586 360.525 324.74 361.185 324.74ZM378.948 326.654C378.156 326.654 377.437 326.492 376.792 326.17C376.161 325.832 375.655 325.37 375.274 324.784C374.893 324.197 374.68 323.53 374.636 322.782V319.636C374.68 318.873 374.893 318.206 375.274 317.634C375.67 317.047 376.183 316.592 376.814 316.27C377.459 315.932 378.171 315.764 378.948 315.764C379.901 315.764 380.759 316.006 381.522 316.49C382.299 316.974 382.908 317.626 383.348 318.448C383.788 319.269 384.008 320.193 384.008 321.22C384.008 322.246 383.788 323.17 383.348 323.992C382.908 324.813 382.299 325.466 381.522 325.95C380.759 326.419 379.901 326.654 378.948 326.654ZM373.448 326.434V310.726H375.428V318.536L375.054 321.066L375.428 323.618V326.434H373.448ZM378.618 324.784C379.278 324.784 379.857 324.63 380.356 324.322C380.855 324.014 381.251 323.596 381.544 323.068C381.837 322.525 381.984 321.902 381.984 321.198C381.984 320.508 381.837 319.892 381.544 319.35C381.251 318.807 380.855 318.389 380.356 318.096C379.857 317.788 379.285 317.634 378.64 317.634C377.98 317.634 377.401 317.788 376.902 318.096C376.403 318.389 376.015 318.807 375.736 319.35C375.457 319.892 375.318 320.516 375.318 321.22C375.318 321.909 375.45 322.525 375.714 323.068C375.993 323.596 376.381 324.014 376.88 324.322C377.393 324.63 377.973 324.784 378.618 324.784ZM386.253 326.434V315.984H388.233V326.434H386.253ZM388.233 320.472L387.485 320.142C387.485 318.807 387.793 317.744 388.409 316.952C389.025 316.16 389.912 315.764 391.071 315.764C391.599 315.764 392.075 315.859 392.501 316.05C392.926 316.226 393.322 316.526 393.689 316.952L392.391 318.294C392.171 318.059 391.929 317.89 391.665 317.788C391.401 317.685 391.093 317.634 390.741 317.634C390.007 317.634 389.406 317.868 388.937 318.338C388.467 318.807 388.233 319.518 388.233 320.472ZM399.513 326.654C398.486 326.654 397.562 326.412 396.741 325.928C395.92 325.444 395.267 324.791 394.783 323.97C394.299 323.134 394.057 322.202 394.057 321.176C394.057 320.164 394.299 319.254 394.783 318.448C395.267 317.626 395.92 316.974 396.741 316.49C397.562 316.006 398.486 315.764 399.513 315.764C400.525 315.764 401.442 316.006 402.263 316.49C403.099 316.959 403.759 317.604 404.243 318.426C404.727 319.247 404.969 320.164 404.969 321.176C404.969 322.202 404.727 323.134 404.243 323.97C403.759 324.791 403.099 325.444 402.263 325.928C401.442 326.412 400.525 326.654 399.513 326.654ZM399.513 324.74C400.173 324.74 400.76 324.586 401.273 324.278C401.786 323.97 402.19 323.552 402.483 323.024C402.776 322.481 402.923 321.865 402.923 321.176C402.923 320.501 402.769 319.9 402.461 319.372C402.168 318.844 401.764 318.433 401.251 318.14C400.752 317.832 400.173 317.678 399.513 317.678C398.853 317.678 398.266 317.832 397.753 318.14C397.24 318.433 396.836 318.844 396.543 319.372C396.25 319.9 396.103 320.501 396.103 321.176C396.103 321.865 396.25 322.481 396.543 323.024C396.836 323.552 397.24 323.97 397.753 324.278C398.266 324.586 398.853 324.74 399.513 324.74ZM409.891 326.434L405.755 315.984H407.823L410.815 324.124H410.155L413.125 315.984H414.269L417.239 324.124H416.579L419.571 315.984H421.639L417.525 326.434H416.359L413.345 318.536H414.071L411.035 326.434H409.891ZM426.463 326.654C425.877 326.654 425.319 326.58 424.791 326.434C424.278 326.272 423.801 326.052 423.361 325.774C422.921 325.48 422.54 325.136 422.217 324.74L423.493 323.464C423.875 323.933 424.315 324.285 424.813 324.52C425.312 324.74 425.869 324.85 426.485 324.85C427.101 324.85 427.578 324.747 427.915 324.542C428.253 324.322 428.421 324.021 428.421 323.64C428.421 323.258 428.282 322.965 428.003 322.76C427.739 322.54 427.395 322.364 426.969 322.232C426.544 322.085 426.089 321.946 425.605 321.814C425.136 321.667 424.689 321.484 424.263 321.264C423.838 321.044 423.486 320.743 423.207 320.362C422.943 319.98 422.811 319.474 422.811 318.844C422.811 318.213 422.965 317.67 423.273 317.216C423.581 316.746 424.007 316.387 424.549 316.138C425.107 315.888 425.774 315.764 426.551 315.764C427.373 315.764 428.099 315.91 428.729 316.204C429.375 316.482 429.903 316.908 430.313 317.48L429.037 318.756C428.744 318.374 428.377 318.081 427.937 317.876C427.512 317.67 427.028 317.568 426.485 317.568C425.913 317.568 425.473 317.67 425.165 317.876C424.872 318.066 424.725 318.338 424.725 318.69C424.725 319.042 424.857 319.313 425.121 319.504C425.385 319.694 425.73 319.856 426.155 319.988C426.595 320.12 427.05 320.259 427.519 320.406C427.989 320.538 428.436 320.721 428.861 320.956C429.287 321.19 429.631 321.506 429.895 321.902C430.174 322.298 430.313 322.818 430.313 323.464C430.313 324.446 429.961 325.224 429.257 325.796C428.568 326.368 427.637 326.654 426.463 326.654ZM437.37 326.654C436.329 326.654 435.39 326.419 434.554 325.95C433.718 325.466 433.058 324.813 432.574 323.992C432.09 323.17 431.848 322.239 431.848 321.198C431.848 320.171 432.083 319.247 432.552 318.426C433.036 317.604 433.681 316.959 434.488 316.49C435.309 316.006 436.226 315.764 437.238 315.764C438.206 315.764 439.057 315.984 439.79 316.424C440.538 316.864 441.117 317.472 441.528 318.25C441.953 319.027 442.166 319.907 442.166 320.89C442.166 321.036 442.159 321.198 442.144 321.374C442.129 321.535 442.1 321.726 442.056 321.946H433.234V320.296H441L440.274 320.934C440.274 320.23 440.149 319.636 439.9 319.152C439.651 318.653 439.299 318.272 438.844 318.008C438.389 317.729 437.839 317.59 437.194 317.59C436.519 317.59 435.925 317.736 435.412 318.03C434.899 318.323 434.503 318.734 434.224 319.262C433.945 319.79 433.806 320.413 433.806 321.132C433.806 321.865 433.953 322.51 434.246 323.068C434.539 323.61 434.957 324.036 435.5 324.344C436.043 324.637 436.666 324.784 437.37 324.784C437.957 324.784 438.492 324.681 438.976 324.476C439.475 324.27 439.9 323.962 440.252 323.552L441.528 324.85C441.029 325.436 440.413 325.884 439.68 326.192C438.961 326.5 438.191 326.654 437.37 326.654Z" fill="#64748B"/>
</g>
<defs>
<filter id="filter0_d_1_650" x="0" y="0" width="718" height="488.867" filterUnits="userSpaceOnUse" color-interpolation-filters="sRGB">
<feFlood flood-opacity="0" result="BackgroundImageFix"/>
<feColorMatrix in="SourceAlpha" type="matrix" values="0 0 0 0 0 0 0 0 0 0 0 0 0 0 0 0 0 0 127 0" result="hardAlpha"/>
<feOffset dy="10"/>
<feGaussianBlur stdDeviation="7.5"/>
<feComposite in2="hardAlpha" operator="out"/>
<feColorMatrix type="matrix" values="0 0 0 0 0.231373 0 0 0 0 0.509804 0 0 0 0 0.964706 0 0 0 0.15 0"/>
<feBlend mode="normal" in2="BackgroundImageFix" result="effect1_dropShadow_1_650"/>
<feBlend mode="normal" in="SourceGraphic" in2="effect1_dropShadow_1_650" result="shape"/>
</filter>
<linearGradient id="paint0_linear_1_650" x1="321.032" y1="152.597" x2="390.48" y2="219.761" gradientUnits="userSpaceOnUse">
<stop stop-color="#83E2ED"/>
<stop offset="1" stop-color="#0F6FEF"/>
</linearGradient>
</defs>
</svg>
