<svg width="755" height="535" viewBox="0 0 755 535" fill="none" xmlns="http://www.w3.org/2000/svg">
<g filter="url(#filter0_d_283_5119)">
<mask id="path-1-inside-1_283_5119" fill="white">
<path d="M15 44.3962C15 22.6383 32.6383 5 54.3962 5H700.604C722.362 5 740 22.6383 740 44.3962V470.604C740 492.362 722.362 510 700.604 510H54.3962C32.6383 510 15 492.362 15 470.604V44.3962Z"/>
</mask>
<path d="M15 44.3962C15 22.6383 32.6383 5 54.3962 5H700.604C722.362 5 740 22.6383 740 44.3962V470.604C740 492.362 722.362 510 700.604 510H54.3962C32.6383 510 15 492.362 15 470.604V44.3962Z" fill="#FCFCFC" shape-rendering="crispEdges"/>
<path d="M54.3962 5V6.64151H700.604V5V3.35849H54.3962V5ZM740 44.3962H738.359V470.604H740H741.641V44.3962H740ZM700.604 510V508.358H54.3962V510V511.642H700.604V510ZM15 470.604H16.6415V44.3962H15H13.3585V470.604H15ZM54.3962 510V508.358C33.5449 508.358 16.6415 491.455 16.6415 470.604H15H13.3585C13.3585 493.268 31.7317 511.642 54.3962 511.642V510ZM740 470.604H738.359C738.359 491.455 721.455 508.358 700.604 508.358V510V511.642C723.268 511.642 741.641 493.268 741.641 470.604H740ZM700.604 5V6.64151C721.455 6.64151 738.359 23.5449 738.359 44.3962H740H741.641C741.641 21.7317 723.268 3.35849 700.604 3.35849V5ZM54.3962 5V3.35849C31.7317 3.35849 13.3585 21.7317 13.3585 44.3962H15H16.6415C16.6415 23.5449 33.5449 6.64151 54.3962 6.64151V5Z" fill="#E5E7EB" mask="url(#path-1-inside-1_283_5119)"/>
<rect x="329.5" y="158.5" width="96" height="96" rx="48" fill="url(#paint0_linear_283_5119)"/>
<path d="M390.833 202.334V197.834C390.833 195.034 390.833 193.634 390.288 192.564C389.809 191.623 389.044 190.858 388.103 190.379C387.034 189.834 385.633 189.834 382.833 189.834H372.167C369.366 189.834 367.966 189.834 366.897 190.379C365.956 190.858 365.191 191.623 364.711 192.564C364.167 193.634 364.167 195.034 364.167 197.834V215.167C364.167 217.968 364.167 219.368 364.711 220.437C365.191 221.378 365.956 222.143 366.897 222.622C367.966 223.167 369.366 223.167 372.167 223.167H380.833M380.833 204.834H370.833M374.167 211.501H370.833M384.167 198.167H370.833M385 211.504C385.293 210.67 385.873 209.966 386.636 209.517C387.399 209.069 388.296 208.905 389.168 209.055C390.04 209.204 390.832 209.658 391.401 210.335C391.971 211.012 392.283 211.869 392.282 212.753C392.282 215.252 388.535 216.501 388.535 216.501M388.583 221.501H388.6" stroke="#FCFCFC" stroke-width="3" stroke-linecap="round" stroke-linejoin="round"/>
<path d="M193.62 311.5V309.508H196.188V311.5H193.62ZM184.452 311.5C182.836 311.5 181.484 311.308 180.396 310.924C179.308 310.524 178.484 309.932 177.924 309.148C177.38 308.364 177.108 307.364 177.108 306.148C177.108 305.764 177.132 305.356 177.18 304.924C177.244 304.476 177.308 304.044 177.372 303.628C177.452 303.212 177.524 302.852 177.588 302.548C177.652 302.244 177.7 302.028 177.732 301.9L179.916 302.308C179.868 302.564 179.796 302.908 179.7 303.34C179.62 303.772 179.54 304.236 179.46 304.732C179.38 305.228 179.34 305.7 179.34 306.148C179.34 306.74 179.436 307.252 179.628 307.684C179.82 308.116 180.116 308.468 180.516 308.74C180.932 309.012 181.46 309.212 182.1 309.34C182.756 309.452 183.556 309.508 184.5 309.508H192.516L191.364 310.42V294.364H193.62V311.5H184.452ZM196.188 311.5V309.508C196.284 309.508 196.364 309.532 196.428 309.58C196.492 309.628 196.54 309.692 196.572 309.772C196.604 309.852 196.628 309.956 196.644 310.084C196.66 310.196 196.668 310.332 196.668 310.492C196.668 310.636 196.66 310.772 196.644 310.9C196.628 311.028 196.604 311.14 196.572 311.236C196.54 311.316 196.492 311.38 196.428 311.428C196.364 311.476 196.284 311.5 196.188 311.5ZM184.164 302.98C183.892 302.644 183.684 302.324 183.54 302.02C183.396 301.7 183.324 301.364 183.324 301.012C183.324 300.532 183.444 300.1 183.684 299.716C183.94 299.332 184.268 299.028 184.668 298.804C185.084 298.58 185.524 298.468 185.988 298.468C186.26 298.468 186.532 298.508 186.804 298.588C187.076 298.668 187.316 298.772 187.524 298.9L186.852 300.076C186.724 299.996 186.596 299.948 186.468 299.932C186.34 299.9 186.212 299.884 186.084 299.884C185.7 299.884 185.404 299.988 185.196 300.196C184.988 300.404 184.884 300.676 184.884 301.012C184.884 301.22 184.924 301.42 185.004 301.612C185.084 301.788 185.212 301.988 185.388 302.212L184.164 302.98ZM182.844 303.028V301.636H187.86V303.028H182.844ZM199.044 311.5V294.364H201.276V311.5H199.044ZM196.188 311.5V309.508H199.044V311.5H196.188ZM196.188 311.5C196.091 311.5 196.011 311.476 195.947 311.428C195.883 311.38 195.835 311.316 195.803 311.236C195.771 311.14 195.747 311.028 195.731 310.9C195.715 310.772 195.707 310.636 195.707 310.492C195.707 310.284 195.723 310.108 195.755 309.964C195.771 309.82 195.819 309.708 195.899 309.628C195.963 309.548 196.059 309.508 196.188 309.508V311.5ZM209.253 292.996V292.084H214.149V292.996H209.253ZM209.253 290.812V289.9H214.149V290.812H209.253ZM212.816 311.5V309.508H215.696V311.5H212.816ZM210.584 311.5V294.364H212.816V311.5H210.584ZM215.696 311.5V309.508C215.776 309.508 215.848 309.532 215.912 309.58C215.976 309.628 216.024 309.692 216.056 309.772C216.088 309.852 216.112 309.956 216.128 310.084C216.16 310.196 216.176 310.332 216.176 310.492C216.176 310.636 216.16 310.772 216.128 310.9C216.112 311.028 216.088 311.14 216.056 311.236C216.024 311.316 215.976 311.38 215.912 311.428C215.848 311.476 215.776 311.5 215.696 311.5ZM233.784 311.5V309.508H236.352V311.5H233.784ZM215.688 311.5C215.591 311.5 215.511 311.476 215.447 311.428C215.383 311.38 215.335 311.316 215.303 311.236C215.271 311.14 215.247 311.028 215.231 310.9C215.215 310.772 215.207 310.636 215.207 310.492C215.207 310.284 215.223 310.108 215.255 309.964C215.271 309.82 215.319 309.708 215.399 309.628C215.463 309.548 215.559 309.508 215.688 309.508V311.5ZM215.688 311.5V309.508H233.544L231.528 311.284V305.788C231.528 304.812 231.392 304.012 231.12 303.388C230.864 302.748 230.472 302.276 229.944 301.972C229.416 301.652 228.76 301.492 227.976 301.492C227.288 301.492 226.64 301.612 226.032 301.852C225.424 302.092 224.864 302.412 224.352 302.812C223.84 303.196 223.36 303.62 222.912 304.084C222.464 304.548 222.056 305.012 221.688 305.476C221.336 305.94 221.016 306.356 220.728 306.724L220.08 304.852C220.544 304.292 220.992 303.748 221.424 303.22C221.856 302.676 222.296 302.18 222.743 301.732C223.208 301.284 223.696 300.892 224.208 300.556C224.736 300.22 225.312 299.956 225.936 299.764C226.576 299.572 227.296 299.476 228.096 299.476C229.216 299.476 230.144 299.668 230.88 300.052C231.616 300.436 232.192 300.94 232.608 301.564C233.04 302.188 233.344 302.876 233.52 303.628C233.696 304.364 233.784 305.084 233.784 305.788V311.5H215.688ZM219 309.508V299.476H221.232V309.508H219ZM236.352 311.5V309.508C236.448 309.508 236.528 309.532 236.592 309.58C236.656 309.628 236.704 309.692 236.736 309.772C236.768 309.852 236.792 309.956 236.808 310.084C236.824 310.196 236.832 310.332 236.832 310.492C236.832 310.636 236.824 310.772 236.808 310.9C236.792 311.028 236.768 311.14 236.736 311.236C236.704 311.316 236.656 311.38 236.592 311.428C236.528 311.476 236.448 311.5 236.352 311.5ZM241.519 311.5V309.508H244.231V311.5H241.519ZM244.231 311.5V309.508C244.327 309.508 244.407 309.532 244.471 309.58C244.535 309.628 244.583 309.692 244.615 309.772C244.647 309.852 244.671 309.956 244.687 310.084C244.703 310.196 244.711 310.332 244.711 310.492C244.711 310.636 244.703 310.772 244.687 310.9C244.671 311.028 244.647 311.14 244.615 311.236C244.583 311.316 244.535 311.38 244.471 311.428C244.407 311.476 244.327 311.5 244.231 311.5ZM236.359 311.5C236.263 311.5 236.183 311.476 236.119 311.428C236.055 311.38 236.007 311.316 235.975 311.236C235.943 311.14 235.919 311.028 235.903 310.9C235.887 310.772 235.879 310.636 235.879 310.492C235.879 310.284 235.895 310.108 235.927 309.964C235.943 309.82 235.991 309.708 236.071 309.628C236.135 309.548 236.231 309.508 236.359 309.508V311.5ZM236.359 311.5V309.508H240.439L239.287 310.42V299.476H241.519V311.5H236.359ZM237.295 316.036V313.708H239.503V316.036H237.295ZM240.871 316.036V313.708H243.079V316.036H240.871ZM262.33 311.5V309.508H264.898V311.5H262.33ZM244.234 311.5C244.138 311.5 244.058 311.476 243.994 311.428C243.93 311.38 243.882 311.316 243.85 311.236C243.818 311.14 243.794 311.028 243.778 310.9C243.762 310.772 243.754 310.636 243.754 310.492C243.754 310.284 243.77 310.108 243.802 309.964C243.818 309.82 243.866 309.708 243.946 309.628C244.01 309.548 244.106 309.508 244.234 309.508V311.5ZM244.234 311.5V309.508H262.09L260.074 311.284V305.788C260.074 304.812 259.938 304.012 259.666 303.388C259.41 302.748 259.018 302.276 258.49 301.972C257.962 301.652 257.306 301.492 256.522 301.492C255.834 301.492 255.186 301.612 254.578 301.852C253.97 302.092 253.41 302.412 252.898 302.812C252.386 303.196 251.906 303.62 251.458 304.084C251.01 304.548 250.602 305.012 250.234 305.476C249.882 305.94 249.562 306.356 249.274 306.724L248.626 304.852C249.09 304.292 249.538 303.748 249.97 303.22C250.402 302.676 250.842 302.18 251.29 301.732C251.754 301.284 252.242 300.892 252.754 300.556C253.282 300.22 253.858 299.956 254.482 299.764C255.122 299.572 255.842 299.476 256.642 299.476C257.762 299.476 258.69 299.668 259.426 300.052C260.162 300.436 260.738 300.94 261.154 301.564C261.586 302.188 261.89 302.876 262.066 303.628C262.242 304.364 262.33 305.084 262.33 305.788V311.5H244.234ZM247.546 309.508V299.476H249.778V309.508H247.546ZM264.898 311.5V309.508C264.994 309.508 265.074 309.532 265.138 309.58C265.202 309.628 265.25 309.692 265.282 309.772C265.314 309.852 265.338 309.956 265.354 310.084C265.37 310.196 265.378 310.332 265.378 310.492C265.378 310.636 265.37 310.772 265.354 310.9C265.338 311.028 265.314 311.14 265.282 311.236C265.25 311.316 265.202 311.38 265.138 311.428C265.074 311.476 264.994 311.5 264.898 311.5ZM264.906 311.5V309.508H275.418L274.698 310.108V304.564C274.698 303.556 274.378 302.796 273.738 302.284C273.114 301.772 272.138 301.516 270.81 301.516C270.41 301.516 269.834 301.548 269.082 301.612C268.346 301.676 267.562 301.772 266.73 301.9L266.49 300.076C267.146 299.916 267.858 299.78 268.626 299.668C269.394 299.54 270.138 299.476 270.858 299.476C272.106 299.476 273.178 299.676 274.074 300.076C274.986 300.476 275.69 301.06 276.186 301.828C276.682 302.58 276.93 303.492 276.93 304.564V311.5H264.906ZM264.906 311.5C264.81 311.5 264.73 311.476 264.666 311.428C264.602 311.38 264.554 311.316 264.522 311.236C264.49 311.14 264.466 311.028 264.45 310.9C264.434 310.772 264.426 310.636 264.426 310.492C264.426 310.284 264.442 310.108 264.474 309.964C264.49 309.82 264.538 309.708 264.618 309.628C264.682 309.548 264.778 309.508 264.906 309.508V311.5ZM269.73 297.772V295.444H271.986V297.772H269.73ZM288.097 311.5V309.508H290.977V311.5H288.097ZM285.865 311.5V294.364H288.097V311.5H285.865ZM290.977 311.5V309.508C291.057 309.508 291.129 309.532 291.193 309.58C291.257 309.628 291.305 309.692 291.337 309.772C291.369 309.852 291.393 309.956 291.409 310.084C291.441 310.196 291.457 310.332 291.457 310.492C291.457 310.636 291.441 310.772 291.409 310.9C291.393 311.028 291.369 311.14 291.337 311.236C291.305 311.316 291.257 311.38 291.193 311.428C291.129 311.476 291.057 311.5 290.977 311.5ZM290.969 311.5V309.508H307.601L306.137 310.732V306.652C306.137 305.18 305.913 303.98 305.465 303.052C305.033 302.124 304.369 301.444 303.473 301.012C302.593 300.564 301.473 300.34 300.113 300.34C299.521 300.34 298.889 300.372 298.217 300.436C297.545 300.484 296.881 300.556 296.225 300.652C295.569 300.732 294.969 300.812 294.425 300.892L294.137 299.284C294.553 299.172 295.089 299.044 295.745 298.9C296.417 298.74 297.145 298.604 297.929 298.492C298.729 298.38 299.505 298.324 300.257 298.324C301.281 298.324 302.273 298.46 303.233 298.732C304.209 299.004 305.073 299.46 305.825 300.1C306.593 300.724 307.201 301.572 307.649 302.644C308.113 303.716 308.345 305.052 308.345 306.652V311.5H290.969ZM293.729 309.508V307.78C293.729 307.012 293.921 306.3 294.305 305.644C294.689 304.988 295.217 304.46 295.889 304.06C296.577 303.66 297.337 303.46 298.169 303.46C299.017 303.46 299.769 303.66 300.425 304.06C301.097 304.46 301.625 304.988 302.009 305.644C302.393 306.3 302.585 307.012 302.585 307.78V309.508H300.521V307.78C300.521 307.3 300.409 306.876 300.185 306.508C299.977 306.14 299.697 305.852 299.345 305.644C299.009 305.42 298.617 305.308 298.169 305.308C297.737 305.308 297.337 305.42 296.969 305.644C296.617 305.852 296.329 306.148 296.105 306.532C295.881 306.9 295.769 307.316 295.769 307.78V309.508H293.729ZM290.969 311.5C290.873 311.5 290.793 311.476 290.729 311.428C290.665 311.38 290.617 311.316 290.585 311.236C290.553 311.14 290.529 311.028 290.513 310.9C290.497 310.772 290.489 310.636 290.489 310.492C290.489 310.284 290.505 310.108 290.537 309.964C290.553 309.82 290.601 309.708 290.681 309.628C290.745 309.548 290.841 309.508 290.969 309.508V311.5ZM314.149 311.116C313.493 310.38 313.005 309.652 312.685 308.932C312.381 308.212 312.229 307.444 312.229 306.628C312.229 305.812 312.373 305.06 312.661 304.372C312.965 303.684 313.381 303.092 313.909 302.596C314.437 302.1 315.053 301.716 315.757 301.444C316.461 301.156 317.213 301.012 318.013 301.012C318.621 301.012 319.213 301.092 319.789 301.252C320.365 301.412 320.877 301.644 321.325 301.948L320.197 303.604C319.861 303.396 319.517 303.244 319.165 303.148C318.829 303.052 318.461 303.004 318.061 303.004C317.357 303.004 316.733 303.164 316.189 303.484C315.645 303.788 315.213 304.212 314.893 304.756C314.589 305.3 314.437 305.916 314.437 306.604C314.437 307.18 314.549 307.724 314.773 308.236C314.997 308.732 315.341 309.244 315.805 309.772L314.149 311.116ZM311.077 311.5V309.508H322.477V311.5H311.077ZM327.871 311.5V309.508H330.751V311.5H327.871ZM325.639 311.5V294.364H327.871V311.5H325.639ZM330.751 311.5V309.508C330.831 309.508 330.903 309.532 330.967 309.58C331.031 309.628 331.079 309.692 331.111 309.772C331.143 309.852 331.167 309.956 331.183 310.084C331.215 310.196 331.231 310.332 331.231 310.492C331.231 310.636 331.215 310.772 331.183 310.9C331.167 311.028 331.143 311.14 331.111 311.236C331.079 311.316 331.031 311.38 330.967 311.428C330.903 311.476 330.831 311.5 330.751 311.5ZM349.366 311.5V309.508H351.934V311.5H349.366ZM330.742 311.5C330.646 311.5 330.566 311.476 330.502 311.428C330.438 311.38 330.39 311.316 330.358 311.236C330.326 311.14 330.302 311.028 330.286 310.9C330.27 310.772 330.262 310.636 330.262 310.492C330.262 310.284 330.278 310.108 330.31 309.964C330.326 309.82 330.374 309.708 330.454 309.628C330.518 309.548 330.614 309.508 330.742 309.508V311.5ZM343.774 311.5C343.198 311.5 342.63 311.396 342.07 311.188C341.526 310.964 341.006 310.62 340.51 310.156L341.926 308.668C342.278 308.956 342.598 309.172 342.886 309.316C343.174 309.444 343.47 309.508 343.774 309.508H348.118L347.134 310.468V304.852C347.134 304.564 347.102 304.164 347.038 303.652C346.99 303.124 346.91 302.532 346.798 301.876C346.702 301.204 346.582 300.524 346.438 299.836L348.622 299.476C348.734 300.052 348.846 300.684 348.958 301.372C349.07 302.06 349.166 302.716 349.246 303.34C349.326 303.964 349.366 304.468 349.366 304.852V311.5H343.774ZM330.742 311.5V309.508H334.246L333.694 310.06V301.9H335.926V311.5H330.742ZM335.926 311.5V309.508H338.422C338.966 309.508 339.374 309.428 339.646 309.268C339.918 309.108 340.11 308.788 340.222 308.308C340.334 307.828 340.39 307.124 340.39 306.196V300.7H342.646V306.196C342.646 307.492 342.494 308.532 342.19 309.316C341.902 310.1 341.454 310.66 340.846 310.996C340.238 311.332 339.43 311.5 338.422 311.5H335.926ZM351.934 311.5V309.508C352.03 309.508 352.11 309.532 352.174 309.58C352.238 309.628 352.286 309.692 352.318 309.772C352.35 309.852 352.374 309.956 352.39 310.084C352.406 310.196 352.414 310.332 352.414 310.492C352.414 310.636 352.406 310.772 352.39 310.9C352.374 311.028 352.35 311.14 352.318 311.236C352.286 311.316 352.238 311.38 352.174 311.428C352.11 311.476 352.03 311.5 351.934 311.5ZM340.51 294.004V291.868H342.526V294.004H340.51ZM338.614 297.316V294.988H340.822V297.316H338.614ZM342.19 297.316V294.988H344.398V297.316H342.19ZM351.93 311.5V309.508H355.65L354.498 310.42V299.476H356.754V311.5H351.93ZM351.93 311.5C351.834 311.5 351.754 311.476 351.69 311.428C351.626 311.38 351.578 311.316 351.546 311.236C351.514 311.14 351.49 311.028 351.474 310.9C351.458 310.772 351.45 310.636 351.45 310.492C351.45 310.284 351.466 310.108 351.498 309.964C351.514 309.82 351.562 309.708 351.642 309.628C351.706 309.548 351.802 309.508 351.93 309.508V311.5ZM354.498 297.316V294.988H356.754V297.316H354.498ZM360.889 311.5V294.364H363.121V311.5H360.889ZM360.817 318.148C360.545 317.812 360.337 317.484 360.193 317.164C360.049 316.86 359.977 316.532 359.977 316.18C359.977 315.7 360.097 315.268 360.337 314.884C360.593 314.5 360.921 314.196 361.321 313.972C361.737 313.748 362.177 313.636 362.641 313.636C362.913 313.636 363.185 313.676 363.457 313.756C363.729 313.836 363.969 313.94 364.177 314.068L363.505 315.244C363.377 315.164 363.249 315.108 363.121 315.076C362.993 315.06 362.865 315.052 362.737 315.052C362.353 315.052 362.057 315.156 361.849 315.364C361.641 315.572 361.537 315.844 361.537 316.18C361.537 316.388 361.577 316.58 361.657 316.756C361.737 316.948 361.865 317.156 362.041 317.38L360.817 318.148ZM359.497 318.196V316.804H364.513V318.196H359.497ZM384.145 311.5V309.508H386.713V311.5H384.145ZM372.193 319.468C372.033 318.572 371.889 317.716 371.761 316.9C371.649 316.084 371.593 315.38 371.593 314.788C371.593 313.7 371.785 312.756 372.169 311.956C372.569 311.172 373.137 310.572 373.873 310.156C374.609 309.724 375.481 309.508 376.489 309.508C376.761 309.508 377.137 309.508 377.617 309.508C378.097 309.508 378.649 309.508 379.273 309.508C379.913 309.508 380.577 309.508 381.265 309.508C381.969 309.508 382.657 309.508 383.329 309.508L381.913 310.78V305.596C381.913 304.556 381.793 303.74 381.553 303.148C381.329 302.556 380.921 302.132 380.329 301.876C379.753 301.62 378.961 301.492 377.953 301.492C377.297 301.492 376.641 301.54 375.985 301.636C375.329 301.716 374.817 301.836 374.449 301.996L375.817 300.652C375.721 301.036 375.625 301.524 375.529 302.116C375.449 302.692 375.377 303.308 375.313 303.964C375.265 304.62 375.241 305.268 375.241 305.908C375.241 306.564 375.265 307.212 375.313 307.852C375.377 308.492 375.441 309.052 375.505 309.532C375.585 310.012 375.649 310.34 375.697 310.516L373.585 311.116C373.521 310.908 373.441 310.548 373.345 310.036C373.249 309.524 373.161 308.916 373.081 308.212C373.017 307.492 372.985 306.724 372.985 305.908C372.985 305.124 373.025 304.364 373.105 303.628C373.185 302.876 373.273 302.196 373.369 301.588C373.481 300.98 373.585 300.492 373.681 300.124C374.049 299.98 374.617 299.836 375.385 299.692C376.169 299.548 377.033 299.476 377.977 299.476C378.841 299.476 379.609 299.556 380.281 299.716C380.953 299.876 381.529 300.116 382.009 300.436C382.505 300.756 382.913 301.156 383.233 301.636C383.553 302.116 383.785 302.692 383.929 303.364C384.073 304.02 384.145 304.772 384.145 305.62V311.5C383.473 311.5 382.745 311.5 381.961 311.5C381.193 311.5 380.441 311.5 379.705 311.5C378.969 311.5 378.313 311.5 377.737 311.5C377.177 311.5 376.761 311.5 376.489 311.5C376.233 311.5 375.953 311.532 375.649 311.596C375.345 311.676 375.049 311.82 374.761 312.028C374.489 312.252 374.265 312.58 374.089 313.012C373.913 313.46 373.825 314.052 373.825 314.788C373.825 315.396 373.881 316.084 373.993 316.852C374.105 317.636 374.233 318.508 374.377 319.468H372.193ZM386.713 311.5V309.508C386.809 309.508 386.889 309.532 386.953 309.58C387.017 309.628 387.065 309.692 387.097 309.772C387.129 309.852 387.153 309.956 387.169 310.084C387.185 310.196 387.193 310.332 387.193 310.492C387.193 310.636 387.185 310.772 387.169 310.9C387.153 311.028 387.129 311.14 387.097 311.236C387.065 311.316 387.017 311.38 386.953 311.428C386.889 311.476 386.809 311.5 386.713 311.5ZM386.711 311.5V309.508H390.791L389.639 310.42V299.476H391.871V311.5H386.711ZM386.711 311.5C386.615 311.5 386.535 311.476 386.471 311.428C386.407 311.38 386.359 311.316 386.327 311.236C386.295 311.14 386.271 311.028 386.255 310.9C386.239 310.772 386.231 310.636 386.231 310.492C386.231 310.284 386.247 310.108 386.279 309.964C386.295 309.82 386.343 309.708 386.423 309.628C386.487 309.548 386.583 309.508 386.711 309.508V311.5ZM387.863 297.316V294.988H390.071V297.316H387.863ZM391.439 297.316V294.988H393.647V297.316H391.439ZM402.355 295.996V295.084H407.251V295.996H402.355ZM402.355 293.812V292.9H407.251V293.812H402.355ZM399.976 311.5V309.508H411.832L410.656 310.708V294.364H412.888V311.5H399.976ZM403.672 309.508V297.748H405.904V309.508H403.672ZM417.045 311.5V294.364H419.277V311.5H417.045ZM433.107 311.5V309.508H435.675V311.5H433.107ZM427.203 316.996C426.627 316.996 426.019 316.948 425.379 316.852C424.755 316.772 424.067 316.652 423.315 316.492L423.651 314.692C424.499 314.788 425.203 314.86 425.763 314.908C426.323 314.956 426.803 314.98 427.203 314.98C428.483 314.98 429.411 314.74 429.987 314.26C430.579 313.78 430.875 313.084 430.875 312.172V300.892L431.787 301.492H428.019C427.171 301.492 426.507 301.596 426.027 301.804C425.547 301.996 425.211 302.388 425.019 302.98C424.827 303.556 424.731 304.404 424.731 305.524C424.731 306.628 424.827 307.468 425.019 308.044C425.211 308.604 425.539 308.988 426.003 309.196C426.483 309.404 427.155 309.508 428.019 309.508H430.875V311.5H428.019C426.627 311.5 425.531 311.292 424.731 310.876C423.931 310.444 423.355 309.788 423.003 308.908C422.667 308.012 422.499 306.884 422.499 305.524C422.499 304.148 422.667 303.012 423.003 302.116C423.355 301.22 423.931 300.556 424.731 300.124C425.531 299.692 426.627 299.476 428.019 299.476H433.107V312.148C433.107 313.172 432.867 314.044 432.387 314.764C431.907 315.5 431.227 316.052 430.347 316.42C429.467 316.804 428.419 316.996 427.203 316.996ZM435.675 311.5V309.508C435.771 309.508 435.851 309.532 435.915 309.58C435.979 309.628 436.027 309.692 436.059 309.772C436.091 309.852 436.115 309.956 436.131 310.084C436.147 310.196 436.155 310.332 436.155 310.492C436.155 310.636 436.147 310.772 436.131 310.9C436.115 311.028 436.091 311.14 436.059 311.236C436.027 311.316 435.979 311.38 435.915 311.428C435.851 311.476 435.771 311.5 435.675 311.5ZM427.011 297.268C426.739 296.932 426.531 296.612 426.387 296.308C426.243 295.988 426.171 295.652 426.171 295.3C426.171 294.82 426.291 294.388 426.531 294.004C426.787 293.62 427.115 293.316 427.515 293.092C427.931 292.868 428.371 292.756 428.835 292.756C429.107 292.756 429.379 292.796 429.651 292.876C429.923 292.956 430.163 293.06 430.371 293.188L429.699 294.364C429.571 294.284 429.443 294.236 429.315 294.22C429.187 294.188 429.059 294.172 428.931 294.172C428.547 294.172 428.251 294.276 428.043 294.484C427.835 294.692 427.731 294.964 427.731 295.3C427.731 295.508 427.771 295.708 427.851 295.9C427.931 296.076 428.059 296.276 428.235 296.5L427.011 297.268ZM425.691 297.316V295.924H430.707V297.316H425.691ZM448.704 311.5C448.128 311.5 447.56 311.396 447 311.188C446.456 310.964 445.936 310.62 445.44 310.156L446.856 308.668C447.208 308.956 447.528 309.172 447.816 309.316C448.104 309.444 448.4 309.508 448.704 309.508H453.048L452.064 310.468V304.852C452.064 304.564 452.032 304.164 451.968 303.652C451.92 303.124 451.84 302.532 451.728 301.876C451.632 301.204 451.512 300.524 451.368 299.836L453.552 299.476C453.664 300.052 453.776 300.684 453.888 301.372C454 302.06 454.096 302.716 454.176 303.34C454.256 303.964 454.296 304.468 454.296 304.852V311.5H448.704ZM435.672 311.5V309.508H439.176L438.624 310.06V301.9H440.856V311.5H435.672ZM440.856 311.5V309.508H443.352C443.896 309.508 444.304 309.428 444.576 309.268C444.848 309.108 445.04 308.788 445.152 308.308C445.264 307.828 445.32 307.124 445.32 306.196V300.7H447.576V306.196C447.576 307.492 447.424 308.532 447.12 309.316C446.832 310.1 446.384 310.66 445.776 310.996C445.168 311.332 444.36 311.5 443.352 311.5H440.856ZM435.672 311.5C435.576 311.5 435.496 311.476 435.432 311.428C435.368 311.38 435.32 311.316 435.288 311.236C435.256 311.14 435.232 311.028 435.216 310.9C435.2 310.772 435.192 310.636 435.192 310.492C435.192 310.284 435.208 310.108 435.24 309.964C435.256 309.82 435.304 309.708 435.384 309.628C435.448 309.548 435.544 309.508 435.672 309.508V311.5ZM468.585 311.5V298.18L464.625 300.724L463.665 299.02L468.777 295.66H470.865V311.5H468.585ZM481.487 311.716C480.895 311.716 480.263 311.676 479.591 311.596C478.919 311.516 478.271 311.428 477.647 311.332C477.039 311.22 476.527 311.108 476.111 310.996L476.351 309.22C476.751 309.284 477.231 309.364 477.791 309.46C478.367 309.54 478.959 309.612 479.567 309.676C480.175 309.724 480.735 309.748 481.247 309.748C482.271 309.748 483.071 309.468 483.647 308.908C484.239 308.332 484.535 307.5 484.535 306.412C484.535 305.676 484.407 305.1 484.151 304.684C483.911 304.268 483.559 303.972 483.095 303.796C482.631 303.62 482.095 303.532 481.487 303.532C481.023 303.532 480.567 303.58 480.119 303.676C479.671 303.756 479.255 303.868 478.871 304.012C478.487 304.14 478.175 304.268 477.935 304.396L476.399 304.108L476.807 295.66H486.239V297.724H478.679L478.271 302.356C478.527 302.244 478.847 302.124 479.231 301.996C479.615 301.852 480.031 301.732 480.479 301.636C480.927 301.54 481.359 301.492 481.775 301.492C482.831 301.492 483.735 301.644 484.487 301.948C485.255 302.252 485.847 302.748 486.263 303.436C486.679 304.124 486.887 305.044 486.887 306.196C486.887 307.428 486.671 308.452 486.239 309.268C485.807 310.084 485.183 310.7 484.367 311.116C483.567 311.516 482.607 311.716 481.487 311.716ZM516.655 311.5V309.508H519.247V311.5H516.655ZM511.567 311.5C511.471 311.5 511.391 311.476 511.327 311.428C511.263 311.38 511.215 311.316 511.183 311.236C511.151 311.14 511.127 311.028 511.111 310.9C511.095 310.772 511.087 310.636 511.087 310.492C511.087 310.284 511.095 310.108 511.111 309.964C511.143 309.82 511.191 309.708 511.255 309.628C511.335 309.548 511.439 309.508 511.567 309.508V311.5ZM514.423 311.5V294.364H516.655V311.5H514.423ZM511.567 311.5V309.508H514.423V311.5H511.567ZM514.927 311.5V309.508C515.023 309.508 515.095 309.532 515.143 309.58C515.207 309.628 515.255 309.692 515.287 309.772C515.335 309.852 515.367 309.956 515.383 310.084C515.399 310.196 515.407 310.332 515.407 310.492C515.407 310.636 515.399 310.772 515.383 310.9C515.367 311.028 515.335 311.14 515.287 311.236C515.255 311.316 515.207 311.38 515.143 311.428C515.095 311.476 515.023 311.5 514.927 311.5ZM501.127 317.452C500.167 317.452 499.271 317.316 498.439 317.044C497.623 316.772 496.903 316.388 496.279 315.892C495.671 315.412 495.191 314.836 494.839 314.164C494.503 313.492 494.335 312.764 494.335 311.98C494.335 311.66 494.359 311.244 494.407 310.732C494.471 310.204 494.543 309.62 494.623 308.98C494.719 308.324 494.823 307.652 494.935 306.964L497.143 307.252C496.967 308.308 496.823 309.268 496.711 310.132C496.615 310.98 496.567 311.58 496.567 311.932C496.567 312.62 496.759 313.228 497.143 313.756C497.527 314.284 498.063 314.7 498.751 315.004C499.439 315.308 500.231 315.46 501.127 315.46H507.919C509.087 315.46 509.967 315.14 510.559 314.5C511.167 313.876 511.471 312.956 511.471 311.74V310.9H513.703V311.74C513.703 312.86 513.471 313.844 513.007 314.692C512.559 315.556 511.903 316.228 511.039 316.708C510.191 317.204 509.151 317.452 507.919 317.452H501.127ZM510.175 311.5C509.583 311.5 508.991 311.436 508.399 311.308C507.807 311.18 507.231 310.932 506.671 310.564L507.943 308.908C508.167 309.052 508.383 309.172 508.591 309.268C508.799 309.364 509.031 309.428 509.287 309.46C509.543 309.492 509.839 309.508 510.175 309.508H514.927V311.5H510.175ZM519.247 311.5V309.508C519.327 309.508 519.399 309.532 519.463 309.58C519.527 309.628 519.575 309.692 519.607 309.772C519.639 309.852 519.663 309.956 519.679 310.084C519.711 310.196 519.727 310.332 519.727 310.492C519.727 310.636 519.711 310.772 519.679 310.9C519.663 311.028 519.639 311.14 519.607 311.236C519.575 311.316 519.527 311.38 519.463 311.428C519.399 311.476 519.327 311.5 519.247 311.5ZM524.266 311.332C523.418 310.596 522.77 309.764 522.322 308.836C521.874 307.908 521.65 306.924 521.65 305.884C521.65 304.956 521.818 304.1 522.154 303.316C522.49 302.532 522.938 301.852 523.498 301.276C524.074 300.7 524.754 300.26 525.538 299.956C526.322 299.636 527.154 299.476 528.034 299.476C528.498 299.476 528.994 299.524 529.522 299.62C530.066 299.716 530.586 299.852 531.082 300.028L530.338 301.924C529.954 301.78 529.57 301.676 529.186 301.612C528.802 301.532 528.434 301.492 528.082 301.492C527.266 301.492 526.538 301.684 525.898 302.068C525.274 302.436 524.786 302.948 524.434 303.604C524.082 304.26 523.906 305.012 523.906 305.86C523.906 306.644 524.066 307.38 524.386 308.068C524.706 308.74 525.17 309.34 525.778 309.868L524.266 311.332ZM519.25 311.5V309.508H531.346V311.5H519.25ZM519.25 311.5C519.154 311.5 519.074 311.476 519.01 311.428C518.946 311.38 518.898 311.316 518.866 311.236C518.834 311.14 518.81 311.028 518.794 310.9C518.778 310.772 518.77 310.636 518.77 310.492C518.77 310.284 518.786 310.108 518.818 309.964C518.834 309.82 518.882 309.708 518.962 309.628C519.026 309.548 519.122 309.508 519.25 309.508V311.5ZM556.081 311.5V309.508H558.649V311.5H556.081ZM546.913 311.5C545.297 311.5 543.945 311.308 542.857 310.924C541.769 310.524 540.945 309.932 540.385 309.148C539.841 308.364 539.569 307.364 539.569 306.148C539.569 305.764 539.593 305.356 539.641 304.924C539.705 304.476 539.769 304.044 539.833 303.628C539.913 303.212 539.985 302.852 540.049 302.548C540.113 302.244 540.161 302.028 540.193 301.9L542.377 302.308C542.329 302.564 542.257 302.908 542.161 303.34C542.081 303.772 542.001 304.236 541.921 304.732C541.841 305.228 541.801 305.7 541.801 306.148C541.801 306.74 541.897 307.252 542.089 307.684C542.281 308.116 542.577 308.468 542.977 308.74C543.393 309.012 543.921 309.212 544.561 309.34C545.217 309.452 546.017 309.508 546.961 309.508H553.825V299.476H556.081V311.5H546.913ZM558.649 311.5V309.508C558.745 309.508 558.825 309.532 558.889 309.58C558.953 309.628 559.001 309.692 559.033 309.772C559.065 309.852 559.089 309.956 559.105 310.084C559.121 310.196 559.129 310.332 559.129 310.492C559.129 310.636 559.121 310.772 559.105 310.9C559.089 311.028 559.065 311.14 559.033 311.236C559.001 311.316 558.953 311.38 558.889 311.428C558.825 311.476 558.745 311.5 558.649 311.5ZM546.769 316.036V313.708H549.025V316.036H546.769ZM558.648 311.5V309.508H569.16L568.44 310.108V304.564C568.44 303.556 568.12 302.796 567.48 302.284C566.856 301.772 565.88 301.516 564.552 301.516C564.152 301.516 563.576 301.548 562.824 301.612C562.088 301.676 561.304 301.772 560.472 301.9L560.232 300.076C560.888 299.916 561.6 299.78 562.368 299.668C563.136 299.54 563.88 299.476 564.6 299.476C565.848 299.476 566.92 299.676 567.816 300.076C568.728 300.476 569.432 301.06 569.928 301.828C570.424 302.58 570.672 303.492 570.672 304.564V311.5H558.648ZM558.648 311.5C558.552 311.5 558.472 311.476 558.408 311.428C558.344 311.38 558.296 311.316 558.264 311.236C558.232 311.14 558.208 311.028 558.192 310.9C558.176 310.772 558.168 310.636 558.168 310.492C558.168 310.284 558.184 310.108 558.216 309.964C558.232 309.82 558.28 309.708 558.36 309.628C558.424 309.548 558.52 309.508 558.648 309.508V311.5ZM563.616 316.036V313.708H565.872V316.036H563.616ZM574.358 311.5V294.364H576.59V311.5H574.358ZM574.286 292.684C574.014 292.348 573.806 292.028 573.662 291.724C573.518 291.404 573.446 291.068 573.446 290.716C573.446 290.236 573.566 289.804 573.806 289.42C574.062 289.036 574.39 288.732 574.79 288.508C575.206 288.284 575.646 288.172 576.11 288.172C576.382 288.172 576.654 288.212 576.926 288.292C577.198 288.372 577.438 288.476 577.646 288.604L576.974 289.78C576.846 289.7 576.718 289.652 576.59 289.636C576.462 289.604 576.334 289.588 576.206 289.588C575.822 289.588 575.526 289.692 575.318 289.9C575.11 290.108 575.006 290.38 575.006 290.716C575.006 290.924 575.046 291.124 575.126 291.316C575.206 291.492 575.334 291.692 575.51 291.916L574.286 292.684ZM572.966 292.732V291.34H577.982V292.732H572.966Z" fill="#333333"/>
<path d="M314.237 349.5V347.938H316.613V349.5H314.237ZM303.589 355.352C302.518 355.352 301.543 355.154 300.663 354.758C299.783 354.362 299.086 353.812 298.573 353.108C298.06 352.404 297.803 351.59 297.803 350.666C297.803 350.358 297.832 349.94 297.891 349.412C297.95 348.869 298.023 348.283 298.111 347.652C298.199 347.007 298.294 346.354 298.397 345.694C298.5 345.034 298.595 344.433 298.683 343.89L300.377 344.154C300.216 345.151 300.069 346.075 299.937 346.926C299.805 347.762 299.702 348.488 299.629 349.104C299.57 349.72 299.541 350.197 299.541 350.534C299.541 351.223 299.71 351.81 300.047 352.294C300.384 352.778 300.854 353.145 301.455 353.394C302.071 353.658 302.782 353.79 303.589 353.79H308.693C309.5 353.79 310.182 353.665 310.739 353.416C311.311 353.167 311.751 352.815 312.059 352.36C312.367 351.92 312.521 351.392 312.521 350.776V339.314L313.423 340.062H309.683C308.832 340.062 308.172 340.165 307.703 340.37C307.248 340.575 306.933 340.964 306.757 341.536C306.581 342.093 306.493 342.915 306.493 344C306.493 345.085 306.581 345.914 306.757 346.486C306.933 347.043 307.248 347.425 307.703 347.63C308.172 347.835 308.832 347.938 309.683 347.938H312.521V349.5H309.683C308.392 349.5 307.395 349.309 306.691 348.928C305.987 348.532 305.488 347.931 305.195 347.124C304.916 346.303 304.777 345.261 304.777 344C304.777 342.739 304.916 341.705 305.195 340.898C305.488 340.077 305.987 339.475 306.691 339.094C307.395 338.698 308.392 338.5 309.683 338.5H314.237V350.776C314.237 351.788 313.973 352.631 313.445 353.306C312.932 353.995 312.25 354.509 311.399 354.846C310.563 355.183 309.661 355.352 308.693 355.352H303.589ZM316.613 349.5V347.938C316.701 347.938 316.774 347.96 316.833 348.004C316.892 348.033 316.936 348.085 316.965 348.158C316.994 348.217 317.016 348.297 317.031 348.4C317.046 348.488 317.053 348.591 317.053 348.708C317.053 348.825 317.046 348.935 317.031 349.038C317.016 349.141 316.994 349.229 316.965 349.302C316.936 349.361 316.892 349.412 316.833 349.456C316.774 349.485 316.701 349.5 316.613 349.5ZM307.659 336.52V334.54H309.375V336.52H307.659ZM310.673 336.52V334.54H312.389V336.52H310.673ZM316.603 349.5V347.938H319.771L318.979 348.576V338.5H320.695V349.5H316.603ZM316.603 349.5C316.515 349.5 316.441 349.485 316.383 349.456C316.324 349.412 316.28 349.361 316.251 349.302C316.221 349.229 316.199 349.141 316.185 349.038C316.17 348.935 316.163 348.825 316.163 348.708C316.163 348.547 316.177 348.415 316.207 348.312C316.221 348.195 316.265 348.107 316.339 348.048C316.397 347.975 316.485 347.938 316.603 347.938V349.5ZM318.803 336.52C318.568 336.227 318.385 335.941 318.253 335.662C318.135 335.383 318.077 335.09 318.077 334.782C318.077 334.357 318.179 333.975 318.385 333.638C318.605 333.301 318.891 333.037 319.243 332.846C319.595 332.655 319.976 332.56 320.387 332.56C320.621 332.56 320.856 332.597 321.091 332.67C321.325 332.729 321.531 332.817 321.707 332.934L321.135 333.924C321.017 333.851 320.9 333.807 320.783 333.792C320.68 333.763 320.57 333.748 320.453 333.748C320.115 333.748 319.844 333.843 319.639 334.034C319.448 334.225 319.353 334.474 319.353 334.782C319.353 334.973 319.389 335.156 319.463 335.332C319.551 335.508 319.675 335.699 319.837 335.904L318.803 336.52ZM317.659 336.52V335.354H321.993V336.52H317.659ZM326.274 349.5V347.938H328.958V349.5H326.274ZM324.58 349.5V333.726H326.274V349.5H324.58ZM328.958 349.5V347.938C329.046 347.938 329.119 347.96 329.178 348.004C329.236 348.033 329.28 348.085 329.31 348.158C329.339 348.217 329.361 348.297 329.376 348.4C329.39 348.488 329.398 348.591 329.398 348.708C329.398 348.825 329.39 348.935 329.376 349.038C329.361 349.141 329.339 349.229 329.31 349.302C329.28 349.361 329.236 349.412 329.178 349.456C329.119 349.485 329.046 349.5 328.958 349.5ZM328.956 349.5V347.938H340.066L338.922 348.928V339.314L339.824 340.062H336.084C335.233 340.062 334.573 340.165 334.104 340.37C333.649 340.575 333.334 340.964 333.158 341.536C332.982 342.093 332.894 342.915 332.894 344C332.894 345.085 332.982 345.914 333.158 346.486C333.334 347.043 333.649 347.425 334.104 347.63C334.573 347.835 335.233 347.938 336.084 347.938V349.06C334.808 349.06 333.811 348.906 333.092 348.598C332.388 348.275 331.889 347.747 331.596 347.014C331.317 346.266 331.178 345.261 331.178 344C331.178 342.739 331.317 341.705 331.596 340.898C331.889 340.077 332.388 339.475 333.092 339.094C333.811 338.698 334.808 338.5 336.084 338.5H340.638V349.5H328.956ZM328.956 349.5C328.868 349.5 328.795 349.485 328.736 349.456C328.677 349.412 328.633 349.361 328.604 349.302C328.575 349.229 328.553 349.141 328.538 349.038C328.523 348.935 328.516 348.825 328.516 348.708C328.516 348.547 328.531 348.415 328.56 348.312C328.575 348.195 328.619 348.107 328.692 348.048C328.751 347.975 328.839 347.938 328.956 347.938V349.5ZM334.06 336.52V334.54H335.776V336.52H334.06ZM337.074 336.52V334.54H338.79V336.52H337.074ZM343.199 349.5V347.938H351.405L349.997 349.192V344.396C349.997 343.311 349.873 342.453 349.623 341.822C349.374 341.191 348.963 340.744 348.391 340.48C347.834 340.201 347.079 340.062 346.125 340.062H344.343V338.5H346.125C347.299 338.5 348.303 338.683 349.139 339.05C349.975 339.417 350.613 340.033 351.053 340.898C351.493 341.749 351.713 342.915 351.713 344.396V349.5H343.199ZM364.608 349.5V336.938L360.912 339.402L360.098 338.06L364.718 334.98H366.368V349.5H364.608ZM376.259 349.72C375.423 349.72 374.675 349.603 374.015 349.368C373.369 349.133 372.812 348.745 372.343 348.202C371.888 347.645 371.536 346.897 371.287 345.958C371.052 345.019 370.935 343.853 370.935 342.46C370.935 340.979 371.052 339.739 371.287 338.742C371.521 337.745 371.866 336.953 372.321 336.366C372.79 335.779 373.347 335.361 373.993 335.112C374.653 334.863 375.401 334.738 376.237 334.738C377.102 334.738 377.865 334.863 378.525 335.112C379.185 335.361 379.735 335.779 380.175 336.366C380.629 336.953 380.974 337.745 381.209 338.742C381.443 339.725 381.561 340.964 381.561 342.46C381.561 344.308 381.348 345.76 380.923 346.816C380.497 347.872 379.889 348.62 379.097 349.06C378.319 349.5 377.373 349.72 376.259 349.72ZM376.259 348.158C376.831 348.158 377.329 348.07 377.755 347.894C378.195 347.718 378.561 347.417 378.855 346.992C379.148 346.567 379.368 345.987 379.515 345.254C379.661 344.506 379.735 343.575 379.735 342.46C379.735 341.243 379.661 340.238 379.515 339.446C379.383 338.654 379.17 338.031 378.877 337.576C378.598 337.107 378.239 336.777 377.799 336.586C377.373 336.395 376.86 336.3 376.259 336.3C375.672 336.3 375.159 336.395 374.719 336.586C374.279 336.777 373.912 337.099 373.619 337.554C373.34 338.009 373.127 338.639 372.981 339.446C372.834 340.238 372.761 341.25 372.761 342.482C372.761 343.597 372.834 344.528 372.981 345.276C373.142 346.009 373.369 346.589 373.663 347.014C373.971 347.425 374.337 347.718 374.763 347.894C375.203 348.07 375.701 348.158 376.259 348.158ZM393.909 355.352C392.838 355.352 391.863 355.154 390.983 354.758C390.103 354.362 389.406 353.812 388.893 353.108C388.38 352.404 388.123 351.59 388.123 350.666C388.123 350.358 388.152 349.94 388.211 349.412C388.27 348.869 388.343 348.283 388.431 347.652C388.519 347.007 388.614 346.354 388.717 345.694C388.82 345.034 388.915 344.433 389.003 343.89L390.697 344.154C390.536 345.151 390.389 346.075 390.257 346.926C390.125 347.762 390.022 348.488 389.949 349.104C389.89 349.72 389.861 350.197 389.861 350.534C389.861 351.223 390.03 351.81 390.367 352.294C390.704 352.778 391.174 353.145 391.775 353.394C392.391 353.658 393.102 353.79 393.909 353.79H399.013C399.82 353.79 400.502 353.665 401.059 353.416C401.631 353.167 402.071 352.815 402.379 352.36C402.687 351.92 402.841 351.392 402.841 350.776V339.314L403.743 340.062H400.003C399.152 340.062 398.492 340.165 398.023 340.37C397.568 340.575 397.253 340.964 397.077 341.536C396.901 342.093 396.813 342.915 396.813 344C396.813 345.085 396.901 345.914 397.077 346.486C397.253 347.043 397.568 347.425 398.023 347.63C398.492 347.835 399.152 347.938 400.003 347.938H402.841V349.5H400.003C398.712 349.5 397.715 349.309 397.011 348.928C396.307 348.532 395.808 347.931 395.515 347.124C395.236 346.303 395.097 345.261 395.097 344C395.097 342.739 395.236 341.705 395.515 340.898C395.808 340.077 396.307 339.475 397.011 339.094C397.715 338.698 398.712 338.5 400.003 338.5H404.557V350.776C404.557 351.788 404.293 352.631 403.765 353.306C403.252 353.995 402.57 354.509 401.719 354.846C400.883 355.183 399.981 355.352 399.013 355.352H393.909ZM397.979 336.52V334.54H399.695V336.52H397.979ZM400.993 336.52V334.54H402.709V336.52H400.993ZM410.019 349.5V347.938H412.835V349.5H410.019ZM406.433 354.362C406.243 354.362 406.045 354.347 405.839 354.318C405.619 354.303 405.407 354.289 405.201 354.274L405.399 352.712C405.605 352.727 405.795 352.741 405.971 352.756C406.147 352.785 406.301 352.8 406.433 352.8C407.123 352.8 407.68 352.536 408.105 352.008C408.531 351.495 408.743 350.776 408.743 349.852V338.5H410.459V349.852C410.459 350.747 410.283 351.531 409.931 352.206C409.594 352.895 409.125 353.423 408.523 353.79C407.922 354.171 407.225 354.362 406.433 354.362ZM412.835 349.5V347.938C412.923 347.938 412.997 347.96 413.055 348.004C413.114 348.033 413.158 348.085 413.187 348.158C413.217 348.217 413.239 348.297 413.253 348.4C413.268 348.488 413.275 348.591 413.275 348.708C413.275 348.825 413.268 348.935 413.253 349.038C413.239 349.141 413.217 349.229 413.187 349.302C413.158 349.361 413.114 349.412 413.055 349.456C412.997 349.485 412.923 349.5 412.835 349.5ZM412.831 349.5V347.938H415.779C416.659 347.938 417.502 347.799 418.309 347.52C419.116 347.227 419.856 346.845 420.531 346.376C421.206 345.892 421.792 345.364 422.291 344.792C422.79 344.205 423.178 343.611 423.457 343.01C423.736 342.409 423.875 341.844 423.875 341.316V339.996L424.799 341.382C423.948 340.942 423.112 340.612 422.291 340.392C421.47 340.172 420.67 340.062 419.893 340.062C419.116 340.062 418.316 340.172 417.495 340.392C416.674 340.612 415.845 340.942 415.009 341.382L415.933 339.996V341.316C415.933 341.844 416.072 342.409 416.351 343.01C416.63 343.611 417.011 344.205 417.495 344.792C417.994 345.364 418.58 345.892 419.255 346.376C419.93 346.845 420.67 347.227 421.477 347.52C422.284 347.799 423.127 347.938 424.007 347.938H426.823V349.5H424.007C422.863 349.5 421.792 349.317 420.795 348.95C419.798 348.583 418.896 348.099 418.089 347.498C417.282 346.882 416.586 346.215 415.999 345.496C415.427 344.763 414.987 344.037 414.679 343.318C414.371 342.585 414.217 341.917 414.217 341.316V339.996C414.848 339.659 415.486 339.38 416.131 339.16C416.776 338.94 417.414 338.779 418.045 338.676C418.69 338.559 419.306 338.5 419.893 338.5C420.494 338.5 421.11 338.559 421.741 338.676C422.372 338.779 423.01 338.94 423.655 339.16C424.3 339.38 424.938 339.659 425.569 339.996V341.316C425.569 341.917 425.415 342.585 425.107 343.318C424.799 344.037 424.352 344.763 423.765 345.496C423.193 346.215 422.504 346.882 421.697 347.498C420.89 348.099 419.988 348.583 418.991 348.95C417.994 349.317 416.923 349.5 415.779 349.5H412.831ZM412.831 349.5C412.743 349.5 412.67 349.485 412.611 349.456C412.552 349.412 412.508 349.361 412.479 349.302C412.45 349.229 412.428 349.141 412.413 349.038C412.398 348.935 412.391 348.825 412.391 348.708C412.391 348.547 412.406 348.415 412.435 348.312C412.45 348.195 412.494 348.107 412.567 348.048C412.626 347.975 412.714 347.938 412.831 347.938V349.5ZM426.823 349.5V347.938C426.911 347.938 426.984 347.96 427.043 348.004C427.102 348.033 427.146 348.085 427.175 348.158C427.204 348.217 427.226 348.297 427.241 348.4C427.256 348.488 427.263 348.591 427.263 348.708C427.263 348.825 427.256 348.935 427.241 349.038C427.226 349.141 427.204 349.229 427.175 349.302C427.146 349.361 427.102 349.412 427.043 349.456C426.984 349.485 426.911 349.5 426.823 349.5ZM419.013 336.52V334.54H420.729V336.52H419.013ZM430.909 349.5V347.938H433.285V349.5H430.909ZM433.285 349.5V347.938C433.373 347.938 433.447 347.96 433.505 348.004C433.564 348.033 433.608 348.085 433.637 348.158C433.667 348.217 433.689 348.297 433.703 348.4C433.718 348.488 433.725 348.591 433.725 348.708C433.725 348.825 433.718 348.935 433.703 349.038C433.689 349.141 433.667 349.229 433.637 349.302C433.608 349.361 433.564 349.412 433.505 349.456C433.447 349.485 433.373 349.5 433.285 349.5ZM426.817 349.5C426.729 349.5 426.656 349.485 426.597 349.456C426.539 349.412 426.495 349.361 426.465 349.302C426.436 349.229 426.414 349.141 426.399 349.038C426.385 348.935 426.377 348.825 426.377 348.708C426.377 348.547 426.392 348.415 426.421 348.312C426.436 348.195 426.48 348.107 426.553 348.048C426.612 347.975 426.7 347.938 426.817 347.938V349.5ZM426.817 349.5V347.938H429.985L429.193 348.576V338.5H430.909V349.5H426.817ZM427.697 336.52V334.54H429.413V336.52H427.697ZM430.711 336.52V334.54H432.427V336.52H430.711ZM449.828 349.5V347.938H452.204V349.5H449.828ZM433.284 349.5C433.196 349.5 433.123 349.485 433.064 349.456C433.006 349.412 432.962 349.361 432.932 349.302C432.903 349.229 432.881 349.141 432.866 349.038C432.852 348.935 432.844 348.825 432.844 348.708C432.844 348.547 432.859 348.415 432.888 348.312C432.903 348.195 432.947 348.107 433.02 348.048C433.079 347.975 433.167 347.938 433.284 347.938V349.5ZM444.856 349.5C444.358 349.5 443.866 349.405 443.382 349.214C442.913 349.023 442.458 348.723 442.018 348.312L443.14 347.146C443.478 347.425 443.778 347.63 444.042 347.762C444.306 347.879 444.578 347.938 444.856 347.938H448.772L448.112 348.642V343.384C448.112 343.12 448.083 342.746 448.024 342.262C447.98 341.778 447.907 341.235 447.804 340.634C447.716 340.018 447.606 339.402 447.474 338.786L449.146 338.5C449.249 339.013 449.352 339.585 449.454 340.216C449.557 340.847 449.645 341.448 449.718 342.02C449.792 342.577 449.828 343.032 449.828 343.384V349.5H444.856ZM433.284 349.5V347.938H436.496L436.056 348.378V340.7H437.75V349.5H433.284ZM437.75 349.5V347.938H440.236C440.735 347.938 441.109 347.865 441.358 347.718C441.622 347.571 441.806 347.278 441.908 346.838C442.011 346.398 442.062 345.753 442.062 344.902V339.6H443.778V344.902C443.778 346.046 443.654 346.955 443.404 347.63C443.17 348.305 442.796 348.789 442.282 349.082C441.769 349.361 441.087 349.5 440.236 349.5H437.75ZM452.204 349.5V347.938C452.292 347.938 452.366 347.96 452.424 348.004C452.483 348.033 452.527 348.085 452.556 348.158C452.586 348.217 452.608 348.297 452.622 348.4C452.637 348.488 452.644 348.591 452.644 348.708C452.644 348.825 452.637 348.935 452.622 349.038C452.608 349.141 452.586 349.229 452.556 349.302C452.527 349.361 452.483 349.412 452.424 349.456C452.366 349.485 452.292 349.5 452.204 349.5ZM452.212 349.5V347.938H455.38L454.588 348.576V338.5H456.304V349.5H452.212ZM452.212 349.5C452.124 349.5 452.051 349.485 451.992 349.456C451.933 349.412 451.889 349.361 451.86 349.302C451.831 349.229 451.809 349.141 451.794 349.038C451.779 348.935 451.772 348.825 451.772 348.708C451.772 348.547 451.787 348.415 451.816 348.312C451.831 348.195 451.875 348.107 451.948 348.048C452.007 347.975 452.095 347.938 452.212 347.938V349.5ZM453.092 353.46V351.48H454.808V353.46H453.092ZM456.106 353.46V351.48H457.822V353.46H456.106Z" fill="#64748B"/>
</g>
<defs>
<filter id="filter0_d_283_5119" x="0" y="0" width="755" height="535" filterUnits="userSpaceOnUse" color-interpolation-filters="sRGB">
<feFlood flood-opacity="0" result="BackgroundImageFix"/>
<feColorMatrix in="SourceAlpha" type="matrix" values="0 0 0 0 0 0 0 0 0 0 0 0 0 0 0 0 0 0 127 0" result="hardAlpha"/>
<feOffset dy="10"/>
<feGaussianBlur stdDeviation="7.5"/>
<feComposite in2="hardAlpha" operator="out"/>
<feColorMatrix type="matrix" values="0 0 0 0 0.231373 0 0 0 0 0.509804 0 0 0 0 0.964706 0 0 0 0.15 0"/>
<feBlend mode="normal" in2="BackgroundImageFix" result="effect1_dropShadow_283_5119"/>
<feBlend mode="normal" in="SourceGraphic" in2="effect1_dropShadow_283_5119" result="shape"/>
</filter>
<linearGradient id="paint0_linear_283_5119" x1="340.06" y1="175.664" x2="409.509" y2="242.828" gradientUnits="userSpaceOnUse">
<stop stop-color="#83E2ED"/>
<stop offset="1" stop-color="#0F6FEF"/>
</linearGradient>
</defs>
</svg>
