<svg width="755" height="535" viewBox="0 0 755 535" fill="none" xmlns="http://www.w3.org/2000/svg">
<g filter="url(#filter0_d_1_704)">
<mask id="path-1-inside-1_1_704" fill="white">
<path d="M15 44.3962C15 22.6383 32.6383 5 54.3962 5H700.604C722.362 5 740 22.6383 740 44.3962V470.604C740 492.362 722.362 510 700.604 510H54.3962C32.6383 510 15 492.362 15 470.604V44.3962Z"/>
</mask>
<path d="M15 44.3962C15 22.6383 32.6383 5 54.3962 5H700.604C722.362 5 740 22.6383 740 44.3962V470.604C740 492.362 722.362 510 700.604 510H54.3962C32.6383 510 15 492.362 15 470.604V44.3962Z" fill="#FCFCFC" shape-rendering="crispEdges"/>
<path d="M54.3962 5V6.64151H700.604V5V3.35849H54.3962V5ZM740 44.3962H738.359V470.604H740H741.641V44.3962H740ZM700.604 510V508.358H54.3962V510V511.642H700.604V510ZM15 470.604H16.6415V44.3962H15H13.3585V470.604H15ZM54.3962 510V508.358C33.5449 508.358 16.6415 491.455 16.6415 470.604H15H13.3585C13.3585 493.268 31.7317 511.642 54.3962 511.642V510ZM740 470.604H738.359C738.359 491.455 721.455 508.358 700.604 508.358V510V511.642C723.268 511.642 741.641 493.268 741.641 470.604H740ZM700.604 5V6.64151C721.455 6.64151 738.359 23.5449 738.359 44.3962H740H741.641C741.641 21.7317 723.268 3.35849 700.604 3.35849V5ZM54.3962 5V3.35849C31.7317 3.35849 13.3585 21.7317 13.3585 44.3962H15H16.6415C16.6415 23.5449 33.5449 6.64151 54.3962 6.64151V5Z" fill="#E5E7EB" mask="url(#path-1-inside-1_1_704)"/>
<rect x="329.5" y="158.5" width="96" height="96" rx="48" fill="url(#paint0_linear_1_704)"/>
<path d="M390.834 202.334V197.834C390.834 195.034 390.834 193.634 390.289 192.564C389.809 191.623 389.044 190.858 388.104 190.379C387.034 189.834 385.634 189.834 382.834 189.834H372.167C369.367 189.834 367.967 189.834 366.897 190.379C365.956 190.858 365.191 191.623 364.712 192.564C364.167 193.634 364.167 195.034 364.167 197.834V215.167C364.167 217.968 364.167 219.368 364.712 220.437C365.191 221.378 365.956 222.143 366.897 222.622C367.967 223.167 369.367 223.167 372.167 223.167H380.834M380.834 204.834H370.834M374.167 211.501H370.834M384.167 198.167H370.834M385 211.504C385.294 210.67 385.874 209.966 386.637 209.517C387.399 209.069 388.296 208.905 389.169 209.055C390.041 209.204 390.832 209.658 391.402 210.335C391.972 211.012 392.284 211.869 392.282 212.753C392.282 215.252 388.535 216.501 388.535 216.501M388.583 221.501H388.6" stroke="#FCFCFC" stroke-width="3" stroke-linecap="round" stroke-linejoin="round"/>
<path d="M231.964 311.5L238.756 294.628H241.42L248.188 311.5H244.708L239.476 297.652H240.676L235.372 311.5H231.964ZM235.564 308.356V305.62H244.636V308.356H235.564ZM257.833 311.5V304.852C257.833 304.164 257.617 303.604 257.185 303.172C256.753 302.74 256.193 302.524 255.505 302.524C255.057 302.524 254.657 302.62 254.305 302.812C253.953 303.004 253.673 303.276 253.465 303.628C253.273 303.98 253.177 304.388 253.177 304.852L251.953 304.228C251.953 303.316 252.145 302.524 252.529 301.852C252.929 301.164 253.473 300.628 254.161 300.244C254.865 299.86 255.657 299.668 256.537 299.668C257.385 299.668 258.145 299.884 258.817 300.316C259.489 300.732 260.017 301.284 260.401 301.972C260.785 302.644 260.977 303.372 260.977 304.156V311.5H257.833ZM250.033 311.5V299.908H253.177V311.5H250.033ZM267.493 311.764C266.837 311.764 266.189 311.676 265.549 311.5C264.925 311.324 264.349 311.084 263.821 310.78C263.293 310.46 262.837 310.076 262.453 309.628L264.325 307.732C264.725 308.18 265.189 308.516 265.717 308.74C266.245 308.964 266.829 309.076 267.469 309.076C267.981 309.076 268.365 309.004 268.621 308.86C268.893 308.716 269.029 308.5 269.029 308.212C269.029 307.892 268.885 307.644 268.597 307.468C268.325 307.292 267.965 307.148 267.517 307.036C267.069 306.908 266.597 306.772 266.101 306.628C265.621 306.468 265.157 306.268 264.709 306.028C264.261 305.772 263.893 305.428 263.605 304.996C263.333 304.548 263.197 303.972 263.197 303.268C263.197 302.532 263.373 301.892 263.725 301.348C264.093 300.804 264.613 300.38 265.285 300.076C265.957 299.772 266.749 299.62 267.661 299.62C268.621 299.62 269.485 299.788 270.253 300.124C271.037 300.46 271.685 300.964 272.197 301.636L270.301 303.532C269.949 303.1 269.549 302.788 269.101 302.596C268.669 302.404 268.197 302.308 267.685 302.308C267.221 302.308 266.861 302.38 266.605 302.524C266.365 302.668 266.245 302.868 266.245 303.124C266.245 303.412 266.381 303.636 266.653 303.796C266.941 303.956 267.309 304.1 267.757 304.228C268.205 304.34 268.669 304.476 269.149 304.636C269.645 304.78 270.109 304.988 270.541 305.26C270.989 305.532 271.349 305.892 271.621 306.34C271.909 306.788 272.053 307.364 272.053 308.068C272.053 309.204 271.645 310.108 270.829 310.78C270.013 311.436 268.901 311.764 267.493 311.764ZM277.269 311.5L272.925 299.908H276.093L278.925 308.332L277.965 308.356L280.869 299.908H283.149L286.053 308.356L285.093 308.332L287.925 299.908H291.093L286.773 311.5H284.493L281.565 303.484H282.453L279.525 311.5H277.269ZM297.905 311.74C296.689 311.74 295.609 311.484 294.665 310.972C293.721 310.444 292.969 309.724 292.409 308.812C291.865 307.9 291.593 306.86 291.593 305.692C291.593 304.54 291.857 303.516 292.385 302.62C292.929 301.708 293.665 300.988 294.593 300.46C295.521 299.916 296.553 299.644 297.689 299.644C298.809 299.644 299.793 299.9 300.641 300.412C301.505 300.908 302.177 301.596 302.657 302.476C303.153 303.34 303.401 304.324 303.401 305.428C303.401 305.636 303.385 305.852 303.353 306.076C303.337 306.284 303.297 306.524 303.233 306.796L293.489 306.82V304.468L301.769 304.444L300.497 305.428C300.465 304.74 300.337 304.164 300.113 303.7C299.905 303.236 299.593 302.884 299.177 302.644C298.777 302.388 298.281 302.26 297.689 302.26C297.065 302.26 296.521 302.404 296.057 302.692C295.593 302.964 295.233 303.356 294.977 303.868C294.737 304.364 294.617 304.956 294.617 305.644C294.617 306.348 294.745 306.964 295.001 307.492C295.273 308.004 295.657 308.404 296.153 308.692C296.649 308.964 297.225 309.1 297.881 309.1C298.473 309.1 299.009 309.004 299.489 308.812C299.969 308.604 300.385 308.3 300.737 307.9L302.585 309.748C302.025 310.404 301.337 310.9 300.521 311.236C299.721 311.572 298.849 311.74 297.905 311.74ZM305.345 311.5V299.908H308.489V311.5H305.345ZM308.489 305.092L307.265 304.276C307.409 302.852 307.825 301.732 308.513 300.916C309.201 300.084 310.193 299.668 311.489 299.668C312.049 299.668 312.553 299.764 313.001 299.956C313.449 300.132 313.857 300.428 314.225 300.844L312.257 303.1C312.081 302.908 311.865 302.764 311.609 302.668C311.369 302.572 311.089 302.524 310.769 302.524C310.097 302.524 309.545 302.74 309.113 303.172C308.697 303.588 308.489 304.228 308.489 305.092ZM322.911 311.5V294.628H326.127V311.5H322.911ZM319.599 297.46V294.628H325.887V297.46H319.599ZM333.859 311.74C332.691 311.74 331.627 311.54 330.667 311.14C329.707 310.724 328.907 310.132 328.267 309.364L330.427 307.228C330.747 307.708 331.203 308.092 331.795 308.38C332.403 308.668 333.067 308.812 333.787 308.812C334.443 308.812 335.011 308.692 335.491 308.452C335.987 308.212 336.371 307.876 336.643 307.444C336.931 306.996 337.075 306.476 337.075 305.884C337.075 305.26 336.931 304.732 336.643 304.3C336.371 303.868 336.003 303.54 335.539 303.316C335.075 303.092 334.555 302.98 333.979 302.98C333.371 302.98 332.819 303.06 332.323 303.22C331.843 303.364 331.379 303.604 330.931 303.94L331.123 301.876C331.427 301.556 331.747 301.3 332.083 301.108C332.419 300.9 332.795 300.748 333.211 300.652C333.643 300.54 334.147 300.484 334.723 300.484C335.955 300.484 336.979 300.74 337.795 301.252C338.627 301.748 339.259 302.42 339.691 303.268C340.123 304.1 340.339 305.02 340.339 306.028C340.339 307.132 340.067 308.116 339.523 308.98C338.979 309.844 338.219 310.524 337.243 311.02C336.283 311.5 335.155 311.74 333.859 311.74ZM330.931 303.94L329.371 302.404L330.139 294.628H333.091L332.227 302.524L330.931 303.94ZM330.643 297.46L330.139 294.628H339.403V297.46H330.643ZM352.437 311.74C351.077 311.74 349.909 311.508 348.933 311.044C347.973 310.58 347.101 309.884 346.317 308.956L348.477 306.796C348.973 307.452 349.549 307.964 350.205 308.332C350.861 308.684 351.661 308.86 352.605 308.86C353.453 308.86 354.125 308.692 354.621 308.356C355.133 308.02 355.389 307.556 355.389 306.964C355.389 306.452 355.245 306.036 354.957 305.716C354.669 305.396 354.285 305.124 353.805 304.9C353.341 304.676 352.821 304.476 352.245 304.3C351.685 304.108 351.117 303.892 350.541 303.652C349.981 303.412 349.461 303.116 348.98 302.764C348.517 302.396 348.141 301.932 347.853 301.372C347.565 300.796 347.421 300.076 347.421 299.212C347.421 298.188 347.669 297.316 348.165 296.596C348.661 295.876 349.341 295.324 350.205 294.94C351.069 294.556 352.045 294.364 353.133 294.364C354.285 294.364 355.325 294.58 356.253 295.012C357.181 295.444 357.941 296.004 358.533 296.692L356.373 298.852C355.877 298.308 355.365 297.908 354.837 297.652C354.325 297.396 353.741 297.268 353.085 297.268C352.333 297.268 351.741 297.412 351.309 297.7C350.877 297.988 350.661 298.404 350.661 298.948C350.661 299.412 350.805 299.788 351.093 300.076C351.381 300.364 351.757 300.612 352.221 300.82C352.701 301.028 353.221 301.228 353.781 301.42C354.357 301.612 354.925 301.828 355.485 302.068C356.061 302.308 356.581 302.62 357.045 303.004C357.525 303.388 357.909 303.884 358.197 304.492C358.485 305.084 358.629 305.82 358.629 306.7C358.629 308.268 358.077 309.5 356.973 310.396C355.869 311.292 354.357 311.74 352.437 311.74ZM362.573 311.5V295.084H365.717V311.5H362.573ZM359.861 302.668V299.908H368.429V302.668H359.861ZM374.763 311.74C373.707 311.74 372.755 311.476 371.907 310.948C371.059 310.42 370.395 309.7 369.915 308.788C369.435 307.876 369.195 306.852 369.195 305.716C369.195 304.564 369.435 303.532 369.915 302.62C370.395 301.708 371.059 300.988 371.907 300.46C372.755 299.932 373.707 299.668 374.763 299.668C375.595 299.668 376.339 299.836 376.995 300.172C377.651 300.508 378.171 300.98 378.555 301.588C378.955 302.18 379.171 302.852 379.203 303.604V307.78C379.171 308.548 378.955 309.228 378.555 309.82C378.171 310.412 377.651 310.884 376.995 311.236C376.339 311.572 375.595 311.74 374.763 311.74ZM375.339 308.836C376.219 308.836 376.931 308.548 377.475 307.972C378.019 307.38 378.291 306.62 378.291 305.692C378.291 305.084 378.163 304.548 377.907 304.084C377.667 303.604 377.323 303.236 376.875 302.98C376.443 302.708 375.931 302.572 375.339 302.572C374.763 302.572 374.251 302.708 373.803 302.98C373.371 303.236 373.027 303.604 372.771 304.084C372.531 304.548 372.411 305.084 372.411 305.692C372.411 306.316 372.531 306.868 372.771 307.348C373.027 307.812 373.371 308.18 373.803 308.452C374.251 308.708 374.763 308.836 375.339 308.836ZM378.123 311.5V308.38L378.627 305.548L378.123 302.764V299.908H381.243V311.5H378.123ZM385.729 311.5V295.084H388.873V311.5H385.729ZM383.017 302.668V299.908H391.585V302.668H383.017ZM393.353 311.5V299.908H396.521V311.5H393.353ZM394.937 298.036C394.425 298.036 394.001 297.868 393.665 297.532C393.329 297.18 393.161 296.748 393.161 296.236C393.161 295.74 393.329 295.316 393.665 294.964C394.001 294.612 394.425 294.436 394.937 294.436C395.465 294.436 395.889 294.612 396.209 294.964C396.545 295.316 396.713 295.74 396.713 296.236C396.713 296.748 396.545 297.18 396.209 297.532C395.889 297.868 395.465 298.036 394.937 298.036ZM404.778 311.74C403.594 311.74 402.53 311.476 401.586 310.948C400.642 310.42 399.898 309.7 399.354 308.788C398.81 307.876 398.538 306.852 398.538 305.716C398.538 304.564 398.81 303.532 399.354 302.62C399.898 301.708 400.642 300.988 401.586 300.46C402.546 299.916 403.61 299.644 404.778 299.644C405.69 299.644 406.53 299.812 407.298 300.148C408.066 300.484 408.73 300.964 409.29 301.588L407.274 303.628C406.97 303.292 406.602 303.036 406.17 302.86C405.754 302.684 405.29 302.596 404.778 302.596C404.202 302.596 403.682 302.732 403.218 303.004C402.77 303.26 402.41 303.62 402.138 304.084C401.882 304.532 401.754 305.068 401.754 305.692C401.754 306.3 401.882 306.844 402.138 307.324C402.41 307.788 402.77 308.156 403.218 308.428C403.682 308.684 404.202 308.812 404.778 308.812C405.306 308.812 405.778 308.724 406.194 308.548C406.626 308.356 406.994 308.084 407.298 307.732L409.338 309.772C408.746 310.412 408.066 310.9 407.298 311.236C406.53 311.572 405.69 311.74 404.778 311.74ZM424.062 311.764C422.83 311.764 421.678 311.54 420.606 311.092C419.55 310.644 418.622 310.028 417.822 309.244C417.022 308.444 416.398 307.516 415.95 306.46C415.518 305.388 415.302 304.244 415.302 303.028C415.302 301.812 415.518 300.684 415.95 299.644C416.398 298.588 417.014 297.668 417.798 296.884C418.598 296.084 419.526 295.468 420.582 295.036C421.638 294.588 422.782 294.364 424.014 294.364C425.246 294.364 426.39 294.588 427.446 295.036C428.502 295.468 429.43 296.084 430.23 296.884C431.03 297.668 431.646 298.588 432.078 299.644C432.526 300.7 432.75 301.836 432.75 303.052C432.75 304.268 432.526 305.404 432.078 306.46C431.646 307.516 431.03 308.444 430.23 309.244C429.446 310.028 428.526 310.644 427.47 311.092C426.414 311.54 425.278 311.764 424.062 311.764ZM431.67 312.748L423.942 305.02L425.91 303.028L433.662 310.78L431.67 312.748ZM424.014 308.716C425.086 308.716 426.022 308.476 426.822 307.996C427.638 307.516 428.27 306.852 428.718 306.004C429.182 305.156 429.414 304.164 429.414 303.028C429.414 302.196 429.278 301.436 429.006 300.748C428.75 300.06 428.382 299.468 427.902 298.972C427.422 298.46 426.854 298.068 426.198 297.796C425.542 297.524 424.814 297.388 424.014 297.388C422.958 297.388 422.022 297.628 421.206 298.108C420.406 298.572 419.774 299.228 419.31 300.076C418.862 300.924 418.638 301.908 418.638 303.028C418.638 303.876 418.766 304.652 419.022 305.356C419.294 306.06 419.662 306.66 420.126 307.156C420.606 307.652 421.174 308.036 421.83 308.308C422.502 308.58 423.23 308.716 424.014 308.716ZM440.438 311.74C439.414 311.74 438.502 311.524 437.702 311.092C436.918 310.66 436.302 310.06 435.854 309.292C435.406 308.524 435.182 307.636 435.182 306.628V299.908H438.35V306.556C438.35 307.036 438.43 307.452 438.59 307.804C438.75 308.14 438.99 308.396 439.31 308.572C439.63 308.748 440.006 308.836 440.438 308.836C441.094 308.836 441.606 308.636 441.974 308.236C442.342 307.836 442.526 307.276 442.526 306.556V299.908H445.67V306.628C445.67 307.652 445.446 308.548 444.998 309.316C444.566 310.084 443.95 310.684 443.15 311.116C442.366 311.532 441.462 311.74 440.438 311.74ZM453.717 311.74C452.501 311.74 451.421 311.484 450.477 310.972C449.533 310.444 448.781 309.724 448.221 308.812C447.677 307.9 447.405 306.86 447.405 305.692C447.405 304.54 447.669 303.516 448.197 302.62C448.741 301.708 449.477 300.988 450.405 300.46C451.333 299.916 452.365 299.644 453.501 299.644C454.621 299.644 455.605 299.9 456.453 300.412C457.317 300.908 457.989 301.596 458.469 302.476C458.965 303.34 459.213 304.324 459.213 305.428C459.213 305.636 459.197 305.852 459.165 306.076C459.149 306.284 459.109 306.524 459.045 306.796L449.301 306.82V304.468L457.581 304.444L456.309 305.428C456.277 304.74 456.149 304.164 455.925 303.7C455.717 303.236 455.405 302.884 454.989 302.644C454.589 302.388 454.093 302.26 453.501 302.26C452.877 302.26 452.333 302.404 451.869 302.692C451.405 302.964 451.045 303.356 450.789 303.868C450.549 304.364 450.429 304.956 450.429 305.644C450.429 306.348 450.557 306.964 450.813 307.492C451.085 308.004 451.469 308.404 451.965 308.692C452.461 308.964 453.037 309.1 453.693 309.1C454.285 309.1 454.821 309.004 455.301 308.812C455.781 308.604 456.197 308.3 456.549 307.9L458.397 309.748C457.837 310.404 457.149 310.9 456.333 311.236C455.533 311.572 454.661 311.74 453.717 311.74ZM465.142 311.764C464.486 311.764 463.838 311.676 463.198 311.5C462.574 311.324 461.998 311.084 461.47 310.78C460.942 310.46 460.486 310.076 460.102 309.628L461.974 307.732C462.374 308.18 462.838 308.516 463.366 308.74C463.894 308.964 464.478 309.076 465.118 309.076C465.63 309.076 466.014 309.004 466.27 308.86C466.542 308.716 466.678 308.5 466.678 308.212C466.678 307.892 466.534 307.644 466.246 307.468C465.974 307.292 465.614 307.148 465.166 307.036C464.718 306.908 464.246 306.772 463.75 306.628C463.27 306.468 462.806 306.268 462.358 306.028C461.91 305.772 461.542 305.428 461.254 304.996C460.982 304.548 460.846 303.972 460.846 303.268C460.846 302.532 461.022 301.892 461.374 301.348C461.742 300.804 462.262 300.38 462.934 300.076C463.606 299.772 464.398 299.62 465.31 299.62C466.27 299.62 467.134 299.788 467.902 300.124C468.686 300.46 469.334 300.964 469.846 301.636L467.95 303.532C467.598 303.1 467.198 302.788 466.75 302.596C466.318 302.404 465.846 302.308 465.334 302.308C464.87 302.308 464.51 302.38 464.254 302.524C464.014 302.668 463.894 302.868 463.894 303.124C463.894 303.412 464.03 303.636 464.302 303.796C464.59 303.956 464.958 304.1 465.406 304.228C465.854 304.34 466.318 304.476 466.798 304.636C467.294 304.78 467.758 304.988 468.19 305.26C468.638 305.532 468.998 305.892 469.27 306.34C469.558 306.788 469.702 307.364 469.702 308.068C469.702 309.204 469.294 310.108 468.478 310.78C467.662 311.436 466.55 311.764 465.142 311.764ZM473.526 311.5V295.084H476.67V311.5H473.526ZM470.814 302.668V299.908H479.382V302.668H470.814ZM481.15 311.5V299.908H484.318V311.5H481.15ZM482.734 298.036C482.222 298.036 481.798 297.868 481.462 297.532C481.126 297.18 480.958 296.748 480.958 296.236C480.958 295.74 481.126 295.316 481.462 294.964C481.798 294.612 482.222 294.436 482.734 294.436C483.262 294.436 483.686 294.612 484.006 294.964C484.342 295.316 484.51 295.74 484.51 296.236C484.51 296.748 484.342 297.18 484.006 297.532C483.686 297.868 483.262 298.036 482.734 298.036ZM492.551 311.74C491.383 311.74 490.327 311.476 489.383 310.948C488.455 310.404 487.711 309.676 487.151 308.764C486.607 307.836 486.335 306.804 486.335 305.668C486.335 304.532 486.607 303.516 487.151 302.62C487.695 301.708 488.439 300.988 489.383 300.46C490.327 299.916 491.375 299.644 492.527 299.644C493.711 299.644 494.767 299.916 495.695 300.46C496.639 300.988 497.383 301.708 497.927 302.62C498.471 303.516 498.743 304.532 498.743 305.668C498.743 306.804 498.471 307.836 497.927 308.764C497.383 309.676 496.639 310.404 495.695 310.948C494.767 311.476 493.719 311.74 492.551 311.74ZM492.527 308.812C493.119 308.812 493.639 308.684 494.087 308.428C494.551 308.156 494.903 307.788 495.143 307.324C495.399 306.844 495.527 306.3 495.527 305.692C495.527 305.084 495.399 304.548 495.143 304.084C494.887 303.62 494.535 303.26 494.087 303.004C493.639 302.732 493.119 302.596 492.527 302.596C491.951 302.596 491.439 302.732 490.991 303.004C490.543 303.26 490.191 303.62 489.935 304.084C489.679 304.548 489.551 305.084 489.551 305.692C489.551 306.3 489.679 306.844 489.935 307.324C490.191 307.788 490.543 308.156 490.991 308.428C491.439 308.684 491.951 308.812 492.527 308.812ZM508.567 311.5V304.852C508.567 304.164 508.351 303.604 507.919 303.172C507.487 302.74 506.927 302.524 506.239 302.524C505.791 302.524 505.391 302.62 505.039 302.812C504.687 303.004 504.407 303.276 504.199 303.628C504.007 303.98 503.911 304.388 503.911 304.852L502.687 304.228C502.687 303.316 502.879 302.524 503.263 301.852C503.663 301.164 504.207 300.628 504.895 300.244C505.599 299.86 506.391 299.668 507.271 299.668C508.119 299.668 508.879 299.884 509.551 300.316C510.223 300.732 510.751 301.284 511.135 301.972C511.519 302.644 511.711 303.372 511.711 304.156V311.5H508.567ZM500.767 311.5V299.908H503.911V311.5H500.767ZM518.228 311.764C517.572 311.764 516.924 311.676 516.284 311.5C515.66 311.324 515.084 311.084 514.556 310.78C514.028 310.46 513.572 310.076 513.188 309.628L515.06 307.732C515.46 308.18 515.924 308.516 516.452 308.74C516.98 308.964 517.564 309.076 518.204 309.076C518.716 309.076 519.1 309.004 519.356 308.86C519.628 308.716 519.764 308.5 519.764 308.212C519.764 307.892 519.62 307.644 519.332 307.468C519.06 307.292 518.7 307.148 518.252 307.036C517.804 306.908 517.332 306.772 516.836 306.628C516.356 306.468 515.892 306.268 515.444 306.028C514.996 305.772 514.628 305.428 514.34 304.996C514.068 304.548 513.932 303.972 513.932 303.268C513.932 302.532 514.108 301.892 514.46 301.348C514.828 300.804 515.348 300.38 516.02 300.076C516.692 299.772 517.484 299.62 518.396 299.62C519.356 299.62 520.22 299.788 520.988 300.124C521.772 300.46 522.42 300.964 522.932 301.636L521.036 303.532C520.684 303.1 520.284 302.788 519.836 302.596C519.404 302.404 518.932 302.308 518.42 302.308C517.956 302.308 517.596 302.38 517.34 302.524C517.1 302.668 516.98 302.868 516.98 303.124C516.98 303.412 517.116 303.636 517.388 303.796C517.676 303.956 518.044 304.1 518.492 304.228C518.94 304.34 519.404 304.476 519.884 304.636C520.38 304.78 520.844 304.988 521.276 305.26C521.724 305.532 522.084 305.892 522.356 306.34C522.644 306.788 522.788 307.364 522.788 308.068C522.788 309.204 522.38 310.108 521.564 310.78C520.748 311.436 519.636 311.764 518.228 311.764Z" fill="#333333"/>
<path d="M326.945 349.5V334.672H329.013V349.5H326.945ZM321.753 336.124V334.232H334.183V336.124H321.753ZM337.838 349.72C336.885 349.72 336.02 349.485 335.242 349.016C334.465 348.532 333.849 347.879 333.394 347.058C332.954 346.237 332.734 345.313 332.734 344.286C332.734 343.259 332.954 342.335 333.394 341.514C333.849 340.693 334.458 340.04 335.22 339.556C335.998 339.072 336.87 338.83 337.838 338.83C338.63 338.83 339.334 338.999 339.95 339.336C340.581 339.659 341.087 340.113 341.468 340.7C341.85 341.272 342.062 341.939 342.106 342.702V345.848C342.062 346.596 341.85 347.263 341.468 347.85C341.102 348.437 340.603 348.899 339.972 349.236C339.356 349.559 338.645 349.72 337.838 349.72ZM338.168 347.85C339.151 347.85 339.943 347.52 340.544 346.86C341.146 346.185 341.446 345.327 341.446 344.286C341.446 343.567 341.307 342.944 341.028 342.416C340.764 341.873 340.383 341.455 339.884 341.162C339.386 340.854 338.806 340.7 338.146 340.7C337.486 340.7 336.9 340.854 336.386 341.162C335.888 341.47 335.492 341.895 335.198 342.438C334.92 342.966 334.78 343.575 334.78 344.264C334.78 344.968 334.92 345.591 335.198 346.134C335.492 346.662 335.895 347.08 336.408 347.388C336.922 347.696 337.508 347.85 338.168 347.85ZM341.314 349.5V346.684L341.688 344.132L341.314 341.602V339.05H343.316V349.5H341.314ZM352.887 349.5L348.003 344.154L352.843 339.05H355.241L349.851 344.682L349.939 343.538L355.439 349.5H352.887ZM346.199 349.5V333.792H348.179V349.5H346.199ZM361.395 349.72C360.353 349.72 359.415 349.485 358.579 349.016C357.743 348.532 357.083 347.879 356.599 347.058C356.115 346.237 355.873 345.305 355.873 344.264C355.873 343.237 356.107 342.313 356.577 341.492C357.061 340.671 357.706 340.025 358.513 339.556C359.334 339.072 360.251 338.83 361.263 338.83C362.231 338.83 363.081 339.05 363.815 339.49C364.563 339.93 365.142 340.539 365.553 341.316C365.978 342.093 366.191 342.973 366.191 343.956C366.191 344.103 366.183 344.264 366.169 344.44C366.154 344.601 366.125 344.792 366.081 345.012H357.259V343.362H365.025L364.299 344C364.299 343.296 364.174 342.702 363.925 342.218C363.675 341.719 363.323 341.338 362.869 341.074C362.414 340.795 361.864 340.656 361.219 340.656C360.544 340.656 359.95 340.803 359.437 341.096C358.923 341.389 358.527 341.8 358.249 342.328C357.97 342.856 357.831 343.479 357.831 344.198C357.831 344.931 357.977 345.577 358.271 346.134C358.564 346.677 358.982 347.102 359.525 347.41C360.067 347.703 360.691 347.85 361.395 347.85C361.981 347.85 362.517 347.747 363.001 347.542C363.499 347.337 363.925 347.029 364.277 346.618L365.553 347.916C365.054 348.503 364.438 348.95 363.705 349.258C362.986 349.566 362.216 349.72 361.395 349.72ZM375.28 349.5V334.232H377.326V349.5H375.28ZM372.156 336.08V334.232H377.106V336.08H372.156ZM386.361 349.72C385.217 349.72 384.168 349.397 383.215 348.752C382.276 348.107 381.528 347.197 380.971 346.024C380.413 344.836 380.135 343.443 380.135 341.844C380.135 340.245 380.406 338.859 380.949 337.686C381.506 336.513 382.254 335.611 383.193 334.98C384.131 334.335 385.165 334.012 386.295 334.012C387.453 334.012 388.502 334.335 389.441 334.98C390.379 335.611 391.12 336.513 391.663 337.686C392.22 338.859 392.499 340.253 392.499 341.866C392.499 343.465 392.22 344.858 391.663 346.046C391.12 347.219 390.379 348.129 389.441 348.774C388.517 349.405 387.49 349.72 386.361 349.72ZM386.317 347.762C387.123 347.762 387.827 347.542 388.429 347.102C389.045 346.647 389.529 345.98 389.881 345.1C390.233 344.22 390.409 343.135 390.409 341.844C390.409 340.553 390.233 339.475 389.881 338.61C389.529 337.73 389.045 337.07 388.429 336.63C387.813 336.175 387.101 335.948 386.295 335.948C385.503 335.948 384.799 336.175 384.183 336.63C383.567 337.07 383.083 337.73 382.731 338.61C382.393 339.475 382.225 340.553 382.225 341.844C382.225 343.135 382.393 344.22 382.731 345.1C383.083 345.98 383.567 346.647 384.183 347.102C384.799 347.542 385.51 347.762 386.317 347.762ZM399.566 349.5V339.05H401.546V349.5H399.566ZM406.628 349.5V343.186C406.628 342.409 406.386 341.8 405.902 341.36C405.433 340.905 404.839 340.678 404.12 340.678C403.636 340.678 403.204 340.781 402.822 340.986C402.441 341.191 402.133 341.477 401.898 341.844C401.664 342.211 401.546 342.651 401.546 343.164L400.732 342.768C400.732 341.976 400.901 341.287 401.238 340.7C401.59 340.113 402.067 339.659 402.668 339.336C403.27 338.999 403.944 338.83 404.692 338.83C405.426 338.83 406.086 338.991 406.672 339.314C407.274 339.637 407.743 340.091 408.08 340.678C408.432 341.265 408.608 341.961 408.608 342.768V349.5H406.628ZM413.69 349.5V343.186C413.69 342.409 413.448 341.8 412.964 341.36C412.495 340.905 411.908 340.678 411.204 340.678C410.72 340.678 410.28 340.781 409.884 340.986C409.503 341.191 409.195 341.477 408.96 341.844C408.726 342.211 408.608 342.651 408.608 343.164L407.486 342.768C407.53 341.961 407.743 341.272 408.124 340.7C408.52 340.113 409.026 339.659 409.642 339.336C410.258 338.999 410.933 338.83 411.666 338.83C412.429 338.83 413.111 338.991 413.712 339.314C414.314 339.637 414.79 340.091 415.142 340.678C415.509 341.265 415.692 341.969 415.692 342.79V349.5H413.69ZM418.409 349.5V339.05H420.389V349.5H418.409ZM419.399 336.96C419.032 336.96 418.731 336.843 418.497 336.608C418.262 336.359 418.145 336.051 418.145 335.684C418.145 335.332 418.262 335.039 418.497 334.804C418.731 334.555 419.032 334.43 419.399 334.43C419.765 334.43 420.066 334.555 420.301 334.804C420.535 335.039 420.653 335.332 420.653 335.684C420.653 336.051 420.535 336.359 420.301 336.608C420.066 336.843 419.765 336.96 419.399 336.96ZM430.698 349.5V343.406C430.698 342.614 430.449 341.961 429.95 341.448C429.452 340.935 428.806 340.678 428.014 340.678C427.486 340.678 427.017 340.795 426.606 341.03C426.196 341.265 425.873 341.587 425.638 341.998C425.404 342.409 425.286 342.878 425.286 343.406L424.472 342.944C424.472 342.152 424.648 341.448 425 340.832C425.352 340.216 425.844 339.732 426.474 339.38C427.105 339.013 427.816 338.83 428.608 338.83C429.4 338.83 430.097 339.028 430.698 339.424C431.314 339.82 431.798 340.341 432.15 340.986C432.502 341.617 432.678 342.291 432.678 343.01V349.5H430.698ZM423.306 349.5V339.05H425.286V349.5H423.306Z" fill="#64748B"/>
</g>
<defs>
<filter id="filter0_d_1_704" x="0" y="0" width="755" height="535" filterUnits="userSpaceOnUse" color-interpolation-filters="sRGB">
<feFlood flood-opacity="0" result="BackgroundImageFix"/>
<feColorMatrix in="SourceAlpha" type="matrix" values="0 0 0 0 0 0 0 0 0 0 0 0 0 0 0 0 0 0 127 0" result="hardAlpha"/>
<feOffset dy="10"/>
<feGaussianBlur stdDeviation="7.5"/>
<feComposite in2="hardAlpha" operator="out"/>
<feColorMatrix type="matrix" values="0 0 0 0 0.231373 0 0 0 0 0.509804 0 0 0 0 0.964706 0 0 0 0.15 0"/>
<feBlend mode="normal" in2="BackgroundImageFix" result="effect1_dropShadow_1_704"/>
<feBlend mode="normal" in="SourceGraphic" in2="effect1_dropShadow_1_704" result="shape"/>
</filter>
<linearGradient id="paint0_linear_1_704" x1="340.06" y1="175.664" x2="409.509" y2="242.828" gradientUnits="userSpaceOnUse">
<stop stop-color="#83E2ED"/>
<stop offset="1" stop-color="#0F6FEF"/>
</linearGradient>
</defs>
</svg>
