<svg width="718" height="509" viewBox="0 0 718 509" fill="none" xmlns="http://www.w3.org/2000/svg">
<g filter="url(#filter0_d_1_713)">
<mask id="path-1-inside-1_1_713" fill="white">
<path d="M15 44.3962C15 22.6383 32.6383 5 54.3962 5H663.604C685.362 5 703 22.6383 703 44.3962V444.604C703 466.362 685.362 484 663.604 484H54.3963C32.6383 484 15 466.362 15 444.604V44.3962Z"/>
</mask>
<path d="M15 44.3962C15 22.6383 32.6383 5 54.3962 5H663.604C685.362 5 703 22.6383 703 44.3962V444.604C703 466.362 685.362 484 663.604 484H54.3963C32.6383 484 15 466.362 15 444.604V44.3962Z" fill="#FCFCFC" shape-rendering="crispEdges"/>
<path d="M54.3962 5V6.64151H663.604V5V3.35849H54.3962V5ZM703 44.3962H701.359V444.604H703H704.641V44.3962H703ZM663.604 484V482.358H54.3963V484V485.642H663.604V484ZM15 444.604H16.6415V44.3962H15H13.3585V444.604H15ZM54.3963 484V482.358C33.5449 482.358 16.6415 465.455 16.6415 444.604H15H13.3585C13.3585 467.268 31.7317 485.642 54.3963 485.642V484ZM703 444.604H701.359C701.359 465.455 684.455 482.358 663.604 482.358V484V485.642C686.268 485.642 704.641 467.268 704.641 444.604H703ZM663.604 5V6.64151C684.455 6.64151 701.359 23.5449 701.359 44.3962H703H704.641C704.641 21.7317 686.268 3.35849 663.604 3.35849V5ZM54.3962 5V3.35849C31.7317 3.35849 13.3585 21.7317 13.3585 44.3962H15H16.6415C16.6415 23.5449 33.5449 6.64151 54.3962 6.64151V5Z" fill="#E5E7EB" mask="url(#path-1-inside-1_1_713)"/>
<path d="M359.446 169.073C370.366 169.073 381.284 169.062 392.205 169.073C405.622 169.088 416.749 178.473 419.06 191.8C419.405 193.797 419.501 195.867 419.487 197.901C419.43 205.227 419.626 212.55 419.338 219.884C419.149 224.669 418.038 229.039 415.485 232.991C410.489 240.718 403.656 245.459 394.305 246.051C392.408 246.17 390.52 246.274 388.622 246.274C367.731 246.267 346.844 246.263 325.953 246.213C324.945 246.213 324.24 246.61 323.567 247.194C317.318 252.631 311.076 258.076 304.845 263.538C303.791 264.461 302.758 265.507 301.241 264.876C299.678 264.227 299.5 262.763 299.5 261.249C299.514 238.955 299.482 216.661 299.536 194.363C299.561 183.824 308.22 173.043 318.785 170.184C321.488 169.452 324.222 169.055 327.043 169.07C337.842 169.116 348.646 169.088 359.446 169.088V169.073ZM399.198 204.841C399.205 197.194 393.13 191.169 385.411 191.165C377.876 191.162 371.883 197.035 371.88 204.434C371.876 212.695 377.609 218.518 385.738 218.503C393.091 218.493 399.194 212.302 399.198 204.841ZM319.836 204.784C319.828 212.601 325.49 218.392 333.046 218.529C340.406 218.666 346.548 212.987 346.791 204.777C347.015 197.259 340.687 191.154 333.128 191.151C325.511 191.151 319.843 196.963 319.836 204.784Z" fill="url(#paint0_linear_1_713)"/>
<rect x="140.363" y="304.564" width="437.273" height="8.74545" rx="4.37273" fill="#EDF2F7"/>
<rect x="140.5" y="304.568" width="193" height="9" rx="4.5" fill="#2E87FE"/>
<g filter="url(#filter1_f_1_713)">
<rect x="322.5" y="295.5" width="21" height="26" rx="10.5" fill="#7EB2FF" fill-opacity="0.7"/>
</g>
</g>
<defs>
<filter id="filter0_d_1_713" x="0" y="0" width="718" height="509" filterUnits="userSpaceOnUse" color-interpolation-filters="sRGB">
<feFlood flood-opacity="0" result="BackgroundImageFix"/>
<feColorMatrix in="SourceAlpha" type="matrix" values="0 0 0 0 0 0 0 0 0 0 0 0 0 0 0 0 0 0 127 0" result="hardAlpha"/>
<feOffset dy="10"/>
<feGaussianBlur stdDeviation="7.5"/>
<feComposite in2="hardAlpha" operator="out"/>
<feColorMatrix type="matrix" values="0 0 0 0 0.231373 0 0 0 0 0.509804 0 0 0 0 0.964706 0 0 0 0.15 0"/>
<feBlend mode="normal" in2="BackgroundImageFix" result="effect1_dropShadow_1_713"/>
<feBlend mode="normal" in="SourceGraphic" in2="effect1_dropShadow_1_713" result="shape"/>
</filter>
<filter id="filter1_f_1_713" x="282.708" y="255.708" width="100.584" height="105.584" filterUnits="userSpaceOnUse" color-interpolation-filters="sRGB">
<feFlood flood-opacity="0" result="BackgroundImageFix"/>
<feBlend mode="normal" in="SourceGraphic" in2="BackgroundImageFix" result="shape"/>
<feGaussianBlur stdDeviation="19.8959" result="effect1_foregroundBlur_1_713"/>
</filter>
<linearGradient id="paint0_linear_1_713" x1="414.157" y1="237.035" x2="304.205" y2="177.085" gradientUnits="userSpaceOnUse">
<stop stop-color="#2982FF"/>
<stop offset="1" stop-color="#86E5EC"/>
</linearGradient>
</defs>
</svg>
