<svg width="718" height="508" viewBox="0 0 718 508" fill="none" xmlns="http://www.w3.org/2000/svg">
<g filter="url(#filter0_d_1_768)">
<mask id="path-1-inside-1_1_768" fill="white">
<path d="M15 45C15 22.9086 32.9086 5 55 5H663C685.091 5 703 22.9086 703 45V443C703 465.091 685.091 483 663 483H55C32.9086 483 15 465.091 15 443V45Z"/>
</mask>
<path d="M15 45C15 22.9086 32.9086 5 55 5H663C685.091 5 703 22.9086 703 45V443C703 465.091 685.091 483 663 483H55C32.9086 483 15 465.091 15 443V45Z" fill="#FCFCFC" shape-rendering="crispEdges"/>
<path d="M55 5V6.64151H663V5V3.35849H55V5ZM703 45H701.359V443H703H704.641V45H703ZM663 483V481.358H55V483V484.642H663V483ZM15 443H16.6415V45H15H13.3585V443H15ZM55 483V481.358C33.8152 481.358 16.6415 464.185 16.6415 443H15H13.3585C13.3585 465.998 32.0021 484.642 55 484.642V483ZM703 443H701.359C701.359 464.185 684.185 481.358 663 481.358V483V484.642C685.998 484.642 704.641 465.998 704.641 443H703ZM663 5V6.64151C684.185 6.64151 701.359 23.8152 701.359 45H703H704.641C704.641 22.002 685.998 3.35849 663 3.35849V5ZM55 5V3.35849C32.002 3.35849 13.3585 22.002 13.3585 45H15H16.6415C16.6415 23.8152 33.8152 6.64151 55 6.64151V5Z" fill="#E5E7EB" mask="url(#path-1-inside-1_1_768)"/>
<rect x="311" y="130" width="96" height="96" rx="48" fill="url(#paint0_linear_1_768)"/>
<path d="M349.833 168.833H349.85M368.167 168.833H368.183M349.833 187.167H349.85M360.667 179.667H360.683M368.167 187.167H368.183M367.333 193H374V186.333M362.333 185.5V193M374 181.333H366.5M365 174.667H371.333C372.267 174.667 372.733 174.667 373.09 174.485C373.404 174.325 373.659 174.07 373.818 173.757C374 173.4 374 172.933 374 172V165.667C374 164.733 374 164.267 373.818 163.91C373.659 163.596 373.404 163.341 373.09 163.182C372.733 163 372.267 163 371.333 163H365C364.067 163 363.6 163 363.243 163.182C362.93 163.341 362.675 163.596 362.515 163.91C362.333 164.267 362.333 164.733 362.333 165.667V172C362.333 172.933 362.333 173.4 362.515 173.757C362.675 174.07 362.93 174.325 363.243 174.485C363.6 174.667 364.067 174.667 365 174.667ZM346.667 174.667H353C353.933 174.667 354.4 174.667 354.757 174.485C355.07 174.325 355.325 174.07 355.485 173.757C355.667 173.4 355.667 172.933 355.667 172V165.667C355.667 164.733 355.667 164.267 355.485 163.91C355.325 163.596 355.07 163.341 354.757 163.182C354.4 163 353.933 163 353 163H346.667C345.733 163 345.267 163 344.91 163.182C344.596 163.341 344.341 163.596 344.182 163.91C344 164.267 344 164.733 344 165.667V172C344 172.933 344 173.4 344.182 173.757C344.341 174.07 344.596 174.325 344.91 174.485C345.267 174.667 345.733 174.667 346.667 174.667ZM346.667 193H353C353.933 193 354.4 193 354.757 192.818C355.07 192.659 355.325 192.404 355.485 192.09C355.667 191.733 355.667 191.267 355.667 190.333V184C355.667 183.067 355.667 182.6 355.485 182.243C355.325 181.93 355.07 181.675 354.757 181.515C354.4 181.333 353.933 181.333 353 181.333H346.667C345.733 181.333 345.267 181.333 344.91 181.515C344.596 181.675 344.341 181.93 344.182 182.243C344 182.6 344 183.067 344 184V190.333C344 191.267 344 191.733 344.182 192.09C344.341 192.404 344.596 192.659 344.91 192.818C345.267 193 345.733 193 346.667 193Z" stroke="#FCFCFC" stroke-width="3" stroke-linecap="round" stroke-linejoin="round"/>
<path d="M252.839 276.496L246.311 266.128H250.079L255.143 274.432H252.983L258.047 266.128H261.767L255.167 276.496H252.839ZM252.407 283V274.744H255.695V283H252.407ZM265.539 283.24C264.371 283.24 263.315 282.976 262.371 282.448C261.443 281.904 260.699 281.176 260.139 280.264C259.595 279.336 259.323 278.304 259.323 277.168C259.323 276.032 259.595 275.016 260.139 274.12C260.683 273.208 261.427 272.488 262.371 271.96C263.315 271.416 264.363 271.144 265.515 271.144C266.699 271.144 267.755 271.416 268.683 271.96C269.627 272.488 270.371 273.208 270.915 274.12C271.459 275.016 271.731 276.032 271.731 277.168C271.731 278.304 271.459 279.336 270.915 280.264C270.371 281.176 269.627 281.904 268.683 282.448C267.755 282.976 266.707 283.24 265.539 283.24ZM265.515 280.312C266.107 280.312 266.627 280.184 267.075 279.928C267.539 279.656 267.891 279.288 268.131 278.824C268.387 278.344 268.515 277.8 268.515 277.192C268.515 276.584 268.387 276.048 268.131 275.584C267.875 275.12 267.523 274.76 267.075 274.504C266.627 274.232 266.107 274.096 265.515 274.096C264.939 274.096 264.427 274.232 263.979 274.504C263.531 274.76 263.179 275.12 262.923 275.584C262.667 276.048 262.539 276.584 262.539 277.192C262.539 277.8 262.667 278.344 262.923 278.824C263.179 279.288 263.531 279.656 263.979 279.928C264.427 280.184 264.939 280.312 265.515 280.312ZM278.699 283.24C277.675 283.24 276.763 283.024 275.963 282.592C275.179 282.16 274.563 281.56 274.115 280.792C273.667 280.024 273.443 279.136 273.443 278.128V271.408H276.611V278.056C276.611 278.536 276.691 278.952 276.851 279.304C277.011 279.64 277.251 279.896 277.571 280.072C277.891 280.248 278.267 280.336 278.699 280.336C279.355 280.336 279.867 280.136 280.235 279.736C280.603 279.336 280.787 278.776 280.787 278.056V271.408H283.931V278.128C283.931 279.152 283.707 280.048 283.259 280.816C282.827 281.584 282.211 282.184 281.411 282.616C280.627 283.032 279.723 283.24 278.699 283.24ZM286.435 283V271.408H289.579V283H286.435ZM289.579 276.592L288.355 275.776C288.499 274.352 288.915 273.232 289.603 272.416C290.291 271.584 291.283 271.168 292.579 271.168C293.139 271.168 293.643 271.264 294.091 271.456C294.539 271.632 294.947 271.928 295.315 272.344L293.347 274.6C293.171 274.408 292.955 274.264 292.699 274.168C292.459 274.072 292.179 274.024 291.859 274.024C291.187 274.024 290.635 274.24 290.203 274.672C289.787 275.088 289.579 275.728 289.579 276.592ZM309.689 283.24C308.457 283.24 307.313 283.024 306.257 282.592C305.201 282.144 304.273 281.528 303.473 280.744C302.689 279.944 302.081 279.016 301.649 277.96C301.233 276.904 301.025 275.768 301.025 274.552C301.025 273.336 301.233 272.2 301.649 271.144C302.081 270.088 302.689 269.168 303.473 268.384C304.273 267.6 305.193 266.984 306.233 266.536C307.289 266.088 308.441 265.864 309.689 265.864C311.033 265.864 312.217 266.088 313.241 266.536C314.265 266.968 315.169 267.568 315.953 268.336L313.745 270.544C313.281 270.032 312.713 269.632 312.041 269.344C311.369 269.056 310.585 268.912 309.689 268.912C308.905 268.912 308.185 269.048 307.529 269.32C306.889 269.576 306.329 269.96 305.849 270.472C305.369 270.968 305.001 271.568 304.745 272.272C304.489 272.96 304.361 273.72 304.361 274.552C304.361 275.4 304.489 276.168 304.745 276.856C305.001 277.544 305.369 278.144 305.849 278.656C306.329 279.152 306.889 279.536 307.529 279.808C308.185 280.08 308.905 280.216 309.689 280.216C310.633 280.216 311.441 280.072 312.113 279.784C312.801 279.496 313.377 279.088 313.841 278.56L316.049 280.768C315.265 281.552 314.353 282.16 313.313 282.592C312.273 283.024 311.065 283.24 309.689 283.24ZM323.718 283L317.07 266.128H320.598L325.734 279.784H324.366L329.55 266.128H333.03L326.31 283H323.718ZM342.327 283V280.336H346.719C347.503 280.336 348.111 280.096 348.543 279.616C348.991 279.136 349.215 278.568 349.215 277.912C349.215 277.464 349.119 277.056 348.927 276.688C348.735 276.32 348.447 276.032 348.063 275.824C347.695 275.6 347.247 275.488 346.719 275.488H342.327V272.848H346.359C347.031 272.848 347.567 272.68 347.967 272.344C348.383 272.008 348.591 271.504 348.591 270.832C348.591 270.144 348.383 269.632 347.967 269.296C347.567 268.96 347.031 268.792 346.359 268.792H342.327V266.128H346.743C347.863 266.128 348.799 266.336 349.551 266.752C350.319 267.152 350.895 267.688 351.279 268.36C351.663 269.016 351.855 269.736 351.855 270.52C351.855 271.48 351.559 272.312 350.967 273.016C350.391 273.704 349.543 274.216 348.423 274.552L348.567 273.496C349.815 273.848 350.775 274.432 351.447 275.248C352.135 276.048 352.479 277.016 352.479 278.152C352.479 279.048 352.255 279.864 351.807 280.6C351.375 281.32 350.735 281.904 349.887 282.352C349.055 282.784 348.039 283 346.839 283H342.327ZM339.927 283V266.128H343.167V283H339.927ZM360.18 283.24C359.012 283.24 357.956 282.976 357.012 282.448C356.084 281.904 355.34 281.176 354.78 280.264C354.236 279.336 353.964 278.304 353.964 277.168C353.964 276.032 354.236 275.016 354.78 274.12C355.324 273.208 356.068 272.488 357.012 271.96C357.956 271.416 359.004 271.144 360.156 271.144C361.34 271.144 362.396 271.416 363.324 271.96C364.268 272.488 365.012 273.208 365.556 274.12C366.1 275.016 366.372 276.032 366.372 277.168C366.372 278.304 366.1 279.336 365.556 280.264C365.012 281.176 364.268 281.904 363.324 282.448C362.396 282.976 361.348 283.24 360.18 283.24ZM360.156 280.312C360.748 280.312 361.268 280.184 361.716 279.928C362.18 279.656 362.532 279.288 362.772 278.824C363.028 278.344 363.156 277.8 363.156 277.192C363.156 276.584 363.028 276.048 362.772 275.584C362.516 275.12 362.164 274.76 361.716 274.504C361.268 274.232 360.748 274.096 360.156 274.096C359.58 274.096 359.068 274.232 358.62 274.504C358.172 274.76 357.82 275.12 357.564 275.584C357.308 276.048 357.18 276.584 357.18 277.192C357.18 277.8 357.308 278.344 357.564 278.824C357.82 279.288 358.172 279.656 358.62 279.928C359.068 280.184 359.58 280.312 360.156 280.312ZM369.819 283V266.584H372.963V283H369.819ZM367.107 274.168V271.408H375.675V274.168H367.107ZM382.13 283V271.408H385.298V283H382.13ZM383.714 269.536C383.202 269.536 382.778 269.368 382.442 269.032C382.106 268.68 381.938 268.248 381.938 267.736C381.938 267.24 382.106 266.816 382.442 266.464C382.778 266.112 383.202 265.936 383.714 265.936C384.242 265.936 384.666 266.112 384.986 266.464C385.322 266.816 385.49 267.24 385.49 267.736C385.49 268.248 385.322 268.68 384.986 269.032C384.666 269.368 384.242 269.536 383.714 269.536ZM392.067 283.264C391.411 283.264 390.763 283.176 390.123 283C389.499 282.824 388.923 282.584 388.395 282.28C387.867 281.96 387.411 281.576 387.027 281.128L388.899 279.232C389.299 279.68 389.763 280.016 390.291 280.24C390.819 280.464 391.403 280.576 392.043 280.576C392.555 280.576 392.939 280.504 393.195 280.36C393.467 280.216 393.603 280 393.603 279.712C393.603 279.392 393.459 279.144 393.171 278.968C392.899 278.792 392.539 278.648 392.091 278.536C391.643 278.408 391.171 278.272 390.675 278.128C390.195 277.968 389.731 277.768 389.283 277.528C388.835 277.272 388.467 276.928 388.179 276.496C387.907 276.048 387.771 275.472 387.771 274.768C387.771 274.032 387.947 273.392 388.299 272.848C388.667 272.304 389.187 271.88 389.859 271.576C390.531 271.272 391.323 271.12 392.235 271.12C393.195 271.12 394.059 271.288 394.827 271.624C395.611 271.96 396.259 272.464 396.771 273.136L394.875 275.032C394.523 274.6 394.123 274.288 393.675 274.096C393.243 273.904 392.771 273.808 392.259 273.808C391.795 273.808 391.435 273.88 391.179 274.024C390.939 274.168 390.819 274.368 390.819 274.624C390.819 274.912 390.955 275.136 391.227 275.296C391.515 275.456 391.883 275.6 392.331 275.728C392.779 275.84 393.243 275.976 393.723 276.136C394.219 276.28 394.683 276.488 395.115 276.76C395.563 277.032 395.923 277.392 396.195 277.84C396.483 278.288 396.627 278.864 396.627 279.568C396.627 280.704 396.219 281.608 395.403 282.28C394.587 282.936 393.475 283.264 392.067 283.264ZM403.435 283V271.408H406.579V283H403.435ZM406.579 276.592L405.355 275.776C405.499 274.352 405.915 273.232 406.603 272.416C407.291 271.584 408.283 271.168 409.579 271.168C410.139 271.168 410.643 271.264 411.091 271.456C411.539 271.632 411.947 271.928 412.315 272.344L410.347 274.6C410.171 274.408 409.955 274.264 409.699 274.168C409.459 274.072 409.179 274.024 408.859 274.024C408.187 274.024 407.635 274.24 407.203 274.672C406.787 275.088 406.579 275.728 406.579 276.592ZM418.635 283.24C417.419 283.24 416.339 282.984 415.395 282.472C414.451 281.944 413.699 281.224 413.139 280.312C412.595 279.4 412.323 278.36 412.323 277.192C412.323 276.04 412.587 275.016 413.115 274.12C413.659 273.208 414.395 272.488 415.323 271.96C416.251 271.416 417.283 271.144 418.419 271.144C419.539 271.144 420.523 271.4 421.371 271.912C422.235 272.408 422.907 273.096 423.387 273.976C423.883 274.84 424.131 275.824 424.131 276.928C424.131 277.136 424.115 277.352 424.083 277.576C424.067 277.784 424.027 278.024 423.963 278.296L414.219 278.32V275.968L422.499 275.944L421.227 276.928C421.195 276.24 421.067 275.664 420.843 275.2C420.635 274.736 420.323 274.384 419.907 274.144C419.507 273.888 419.011 273.76 418.419 273.76C417.795 273.76 417.251 273.904 416.787 274.192C416.323 274.464 415.963 274.856 415.707 275.368C415.467 275.864 415.347 276.456 415.347 277.144C415.347 277.848 415.475 278.464 415.731 278.992C416.003 279.504 416.387 279.904 416.883 280.192C417.379 280.464 417.955 280.6 418.611 280.6C419.203 280.6 419.739 280.504 420.219 280.312C420.699 280.104 421.115 279.8 421.467 279.4L423.315 281.248C422.755 281.904 422.067 282.4 421.251 282.736C420.451 283.072 419.579 283.24 418.635 283.24ZM430.924 283.24C429.868 283.24 428.916 282.976 428.068 282.448C427.22 281.92 426.556 281.2 426.076 280.288C425.596 279.376 425.356 278.352 425.356 277.216C425.356 276.064 425.596 275.032 426.076 274.12C426.556 273.208 427.22 272.488 428.068 271.96C428.916 271.432 429.868 271.168 430.924 271.168C431.756 271.168 432.5 271.336 433.156 271.672C433.812 272.008 434.332 272.48 434.716 273.088C435.116 273.68 435.332 274.352 435.364 275.104V279.28C435.332 280.048 435.116 280.728 434.716 281.32C434.332 281.912 433.812 282.384 433.156 282.736C432.5 283.072 431.756 283.24 430.924 283.24ZM431.5 280.336C432.38 280.336 433.092 280.048 433.636 279.472C434.18 278.88 434.452 278.12 434.452 277.192C434.452 276.584 434.324 276.048 434.068 275.584C433.828 275.104 433.484 274.736 433.036 274.48C432.604 274.208 432.092 274.072 431.5 274.072C430.924 274.072 430.412 274.208 429.964 274.48C429.532 274.736 429.188 275.104 428.932 275.584C428.692 276.048 428.572 276.584 428.572 277.192C428.572 277.816 428.692 278.368 428.932 278.848C429.188 279.312 429.532 279.68 429.964 279.952C430.412 280.208 430.924 280.336 431.5 280.336ZM434.284 283V279.88L434.788 277.048L434.284 274.264V271.408H437.404V283H434.284ZM445.081 283.24C444.009 283.24 443.049 282.976 442.201 282.448C441.353 281.92 440.681 281.2 440.185 280.288C439.705 279.376 439.465 278.352 439.465 277.216C439.465 276.064 439.705 275.032 440.185 274.12C440.681 273.208 441.345 272.488 442.177 271.96C443.025 271.432 443.993 271.168 445.081 271.168C445.913 271.168 446.657 271.336 447.313 271.672C447.985 272.008 448.521 272.48 448.921 273.088C449.337 273.68 449.561 274.352 449.593 275.104V279.232C449.561 279.984 449.345 280.664 448.945 281.272C448.545 281.88 448.009 282.36 447.337 282.712C446.665 283.064 445.913 283.24 445.081 283.24ZM445.609 280.336C446.201 280.336 446.713 280.208 447.145 279.952C447.593 279.68 447.937 279.312 448.177 278.848C448.433 278.368 448.561 277.816 448.561 277.192C448.561 276.584 448.433 276.048 448.177 275.584C447.937 275.104 447.593 274.736 447.145 274.48C446.713 274.208 446.209 274.072 445.633 274.072C445.041 274.072 444.521 274.208 444.073 274.48C443.641 274.752 443.297 275.12 443.041 275.584C442.801 276.048 442.681 276.584 442.681 277.192C442.681 277.816 442.801 278.368 443.041 278.848C443.297 279.312 443.649 279.68 444.097 279.952C444.545 280.208 445.049 280.336 445.609 280.336ZM451.513 283H448.393V279.88L448.897 277.048L448.369 274.264V265.648H451.513V283ZM457.942 283.096L453.094 271.408H456.502L459.718 280.336H458.566L461.902 271.408H465.334L460.174 283.096H457.942ZM454.726 287.848L458.254 280.384L460.174 283.096L458.062 287.848H454.726ZM467.551 277.12L467.071 265.648H470.431L469.951 277.12H467.551ZM468.751 283.24C468.175 283.24 467.703 283.048 467.335 282.664C466.967 282.28 466.783 281.808 466.783 281.248C466.783 280.688 466.967 280.216 467.335 279.832C467.703 279.448 468.175 279.256 468.751 279.256C469.327 279.256 469.799 279.448 470.167 279.832C470.535 280.216 470.719 280.688 470.719 281.248C470.719 281.808 470.535 282.28 470.167 282.664C469.799 283.048 469.327 283.24 468.751 283.24Z" fill="#333333"/>
<g filter="url(#filter1_dd_1_768)">
<path d="M199 322C199 317.582 202.582 314 207 314H511C515.418 314 519 317.582 519 322V350C519 354.418 515.418 358 511 358H207C202.582 358 199 354.418 199 350V322Z" fill="#FCFCFC"/>
<path d="M207 314.5H511C515.142 314.5 518.5 317.858 518.5 322V350C518.5 354.142 515.142 357.5 511 357.5H207C202.858 357.5 199.5 354.142 199.5 350V322C199.5 317.858 202.858 314.5 207 314.5Z" stroke="#2D86FE"/>
<path d="M219.03 341.5V337.345C219.03 336.805 218.86 336.36 218.52 336.01C218.18 335.66 217.74 335.485 217.2 335.485C216.84 335.485 216.52 335.565 216.24 335.725C215.96 335.885 215.74 336.105 215.58 336.385C215.42 336.665 215.34 336.985 215.34 337.345L214.785 337.03C214.785 336.49 214.905 336.01 215.145 335.59C215.385 335.17 215.72 334.84 216.15 334.6C216.58 334.35 217.065 334.225 217.605 334.225C218.145 334.225 218.62 334.345 219.03 334.585C219.45 334.825 219.78 335.16 220.02 335.59C220.26 336.02 220.38 336.515 220.38 337.075V341.5H219.03ZM213.99 341.5V330.79H215.34V341.5H213.99ZM223.303 341.5V331.39H224.653V341.5H223.303ZM221.548 335.605V334.375H230.653V335.605H221.548ZM227.548 341.5V331.39H228.898V341.5H227.548ZM235.728 341.65C235.188 341.65 234.698 341.54 234.258 341.32C233.828 341.09 233.483 340.775 233.223 340.375C232.963 339.975 232.818 339.52 232.788 339.01V336.865C232.818 336.345 232.963 335.89 233.223 335.5C233.493 335.1 233.843 334.79 234.273 334.57C234.713 334.34 235.198 334.225 235.728 334.225C236.378 334.225 236.963 334.39 237.483 334.72C238.013 335.05 238.428 335.495 238.728 336.055C239.028 336.615 239.178 337.245 239.178 337.945C239.178 338.645 239.028 339.275 238.728 339.835C238.428 340.395 238.013 340.84 237.483 341.17C236.963 341.49 236.378 341.65 235.728 341.65ZM231.978 344.485V334.375H233.328V336.25L233.073 337.975L233.328 339.715V344.485H231.978ZM235.503 340.375C235.953 340.375 236.348 340.27 236.688 340.06C237.028 339.85 237.298 339.565 237.498 339.205C237.698 338.835 237.798 338.41 237.798 337.93C237.798 337.46 237.698 337.04 237.498 336.67C237.298 336.3 237.028 336.015 236.688 335.815C236.348 335.605 235.958 335.5 235.518 335.5C235.068 335.5 234.673 335.605 234.333 335.815C233.993 336.015 233.728 336.3 233.538 336.67C233.348 337.04 233.253 337.465 233.253 337.945C233.253 338.415 233.343 338.835 233.523 339.205C233.713 339.565 233.978 339.85 234.318 340.06C234.668 340.27 235.063 340.375 235.503 340.375ZM242.974 341.65C242.574 341.65 242.194 341.6 241.834 341.5C241.484 341.39 241.159 341.24 240.859 341.05C240.559 340.85 240.299 340.615 240.079 340.345L240.949 339.475C241.209 339.795 241.509 340.035 241.849 340.195C242.189 340.345 242.569 340.42 242.989 340.42C243.409 340.42 243.734 340.35 243.964 340.21C244.194 340.06 244.309 339.855 244.309 339.595C244.309 339.335 244.214 339.135 244.024 338.995C243.844 338.845 243.609 338.725 243.319 338.635C243.029 338.535 242.719 338.44 242.389 338.35C242.069 338.25 241.764 338.125 241.474 337.975C241.184 337.825 240.944 337.62 240.754 337.36C240.574 337.1 240.484 336.755 240.484 336.325C240.484 335.895 240.589 335.525 240.799 335.215C241.009 334.895 241.299 334.65 241.669 334.48C242.049 334.31 242.504 334.225 243.034 334.225C243.594 334.225 244.089 334.325 244.519 334.525C244.959 334.715 245.319 335.005 245.599 335.395L244.729 336.265C244.529 336.005 244.279 335.805 243.979 335.665C243.689 335.525 243.359 335.455 242.989 335.455C242.599 335.455 242.299 335.525 242.089 335.665C241.889 335.795 241.789 335.98 241.789 336.22C241.789 336.46 241.879 336.645 242.059 336.775C242.239 336.905 242.474 337.015 242.764 337.105C243.064 337.195 243.374 337.29 243.694 337.39C244.014 337.48 244.319 337.605 244.609 337.765C244.899 337.925 245.134 338.14 245.314 338.41C245.504 338.68 245.599 339.035 245.599 339.475C245.599 340.145 245.359 340.675 244.879 341.065C244.409 341.455 243.774 341.65 242.974 341.65ZM248.145 341.65C247.865 341.65 247.63 341.555 247.44 341.365C247.26 341.165 247.17 340.935 247.17 340.675C247.17 340.385 247.26 340.15 247.44 339.97C247.63 339.78 247.865 339.685 248.145 339.685C248.425 339.685 248.655 339.78 248.835 339.97C249.025 340.15 249.12 340.385 249.12 340.675C249.12 340.935 249.025 341.165 248.835 341.365C248.655 341.555 248.425 341.65 248.145 341.65ZM248.145 336.97C247.865 336.97 247.63 336.875 247.44 336.685C247.26 336.495 247.17 336.265 247.17 335.995C247.17 335.705 247.26 335.47 247.44 335.29C247.63 335.1 247.865 335.005 248.145 335.005C248.425 335.005 248.655 335.1 248.835 335.29C249.025 335.47 249.12 335.705 249.12 335.995C249.12 336.265 249.025 336.495 248.835 336.685C248.655 336.875 248.425 336.97 248.145 336.97ZM250.402 342.1L254.572 330.505H255.832L251.677 342.1H250.402ZM256.247 342.1L260.417 330.505H261.677L257.522 342.1H256.247ZM265.336 341.65C264.636 341.65 264.001 341.485 263.431 341.155C262.871 340.825 262.426 340.38 262.096 339.82C261.776 339.25 261.616 338.62 261.616 337.93C261.616 337.23 261.776 336.6 262.096 336.04C262.426 335.48 262.871 335.04 263.431 334.72C264.001 334.39 264.636 334.225 265.336 334.225C265.886 334.225 266.396 334.33 266.866 334.54C267.336 334.74 267.741 335.035 268.081 335.425L267.181 336.325C266.961 336.065 266.691 335.87 266.371 335.74C266.061 335.6 265.716 335.53 265.336 335.53C264.886 335.53 264.486 335.635 264.136 335.845C263.786 336.045 263.511 336.325 263.311 336.685C263.111 337.045 263.011 337.46 263.011 337.93C263.011 338.4 263.111 338.815 263.311 339.175C263.511 339.535 263.786 339.82 264.136 340.03C264.486 340.24 264.886 340.345 265.336 340.345C265.716 340.345 266.061 340.28 266.371 340.15C266.691 340.01 266.966 339.81 267.196 339.55L268.081 340.45C267.751 340.83 267.346 341.125 266.866 341.335C266.396 341.545 265.886 341.65 265.336 341.65ZM271.865 341.5L268.595 334.375H270.095L272.72 340.39H271.85L274.49 334.375H275.93L272.66 341.5H271.865ZM280.058 341.65C279.358 341.65 278.723 341.485 278.153 341.155C277.593 340.825 277.148 340.38 276.818 339.82C276.498 339.25 276.338 338.62 276.338 337.93C276.338 337.23 276.498 336.6 276.818 336.04C277.148 335.48 277.593 335.04 278.153 334.72C278.723 334.39 279.358 334.225 280.058 334.225C280.608 334.225 281.118 334.33 281.588 334.54C282.058 334.74 282.463 335.035 282.803 335.425L281.903 336.325C281.683 336.065 281.413 335.87 281.093 335.74C280.783 335.6 280.438 335.53 280.058 335.53C279.608 335.53 279.208 335.635 278.858 335.845C278.508 336.045 278.233 336.325 278.033 336.685C277.833 337.045 277.733 337.46 277.733 337.93C277.733 338.4 277.833 338.815 278.033 339.175C278.233 339.535 278.508 339.82 278.858 340.03C279.208 340.24 279.608 340.345 280.058 340.345C280.438 340.345 280.783 340.28 281.093 340.15C281.413 340.01 281.688 339.81 281.918 339.55L282.803 340.45C282.473 340.83 282.068 341.125 281.588 341.335C281.118 341.545 280.608 341.65 280.058 341.65ZM289.181 341.5V337.345C289.181 336.805 289.011 336.36 288.671 336.01C288.331 335.66 287.891 335.485 287.351 335.485C286.991 335.485 286.671 335.565 286.391 335.725C286.111 335.885 285.891 336.105 285.731 336.385C285.571 336.665 285.491 336.985 285.491 337.345L284.936 337.03C284.936 336.49 285.056 336.01 285.296 335.59C285.536 335.17 285.871 334.84 286.301 334.6C286.731 334.35 287.216 334.225 287.756 334.225C288.296 334.225 288.771 334.345 289.181 334.585C289.601 334.825 289.931 335.16 290.171 335.59C290.411 336.02 290.531 336.515 290.531 337.075V341.5H289.181ZM284.141 341.5V330.79H285.491V341.5H284.141ZM295.389 341.65C294.739 341.65 294.149 341.49 293.619 341.17C293.089 340.84 292.669 340.395 292.359 339.835C292.059 339.275 291.909 338.645 291.909 337.945C291.909 337.245 292.059 336.615 292.359 336.055C292.669 335.495 293.084 335.05 293.604 334.72C294.134 334.39 294.729 334.225 295.389 334.225C295.929 334.225 296.409 334.34 296.829 334.57C297.259 334.79 297.604 335.1 297.864 335.5C298.124 335.89 298.269 336.345 298.299 336.865V339.01C298.269 339.52 298.124 339.975 297.864 340.375C297.614 340.775 297.274 341.09 296.844 341.32C296.424 341.54 295.939 341.65 295.389 341.65ZM295.614 340.375C296.284 340.375 296.824 340.15 297.234 339.7C297.644 339.24 297.849 338.655 297.849 337.945C297.849 337.455 297.754 337.03 297.564 336.67C297.384 336.3 297.124 336.015 296.784 335.815C296.444 335.605 296.049 335.5 295.599 335.5C295.149 335.5 294.749 335.605 294.399 335.815C294.059 336.025 293.789 336.315 293.589 336.685C293.399 337.045 293.304 337.46 293.304 337.93C293.304 338.41 293.399 338.835 293.589 339.205C293.789 339.565 294.064 339.85 294.414 340.06C294.764 340.27 295.164 340.375 295.614 340.375ZM297.759 341.5V339.58L298.014 337.84L297.759 336.115V334.375H299.124V341.5H297.759ZM302.155 341.5V331.39H303.505V341.5H302.155ZM300.4 335.605V334.375H305.26V335.605H300.4ZM307.255 341.65C306.975 341.65 306.74 341.555 306.55 341.365C306.37 341.165 306.28 340.93 306.28 340.66C306.28 340.38 306.37 340.15 306.55 339.97C306.74 339.78 306.975 339.685 307.255 339.685C307.535 339.685 307.765 339.78 307.945 339.97C308.135 340.15 308.23 340.38 308.23 340.66C308.23 340.93 308.135 341.165 307.945 341.365C307.765 341.555 307.535 341.65 307.255 341.65ZM313.158 341.65C312.508 341.65 311.918 341.49 311.388 341.17C310.858 340.84 310.438 340.395 310.128 339.835C309.828 339.275 309.678 338.645 309.678 337.945C309.678 337.245 309.828 336.615 310.128 336.055C310.438 335.495 310.853 335.05 311.373 334.72C311.903 334.39 312.498 334.225 313.158 334.225C313.698 334.225 314.178 334.34 314.598 334.57C315.028 334.79 315.373 335.1 315.633 335.5C315.893 335.89 316.038 336.345 316.068 336.865V339.01C316.038 339.52 315.893 339.975 315.633 340.375C315.383 340.775 315.043 341.09 314.613 341.32C314.193 341.54 313.708 341.65 313.158 341.65ZM313.383 340.375C314.053 340.375 314.593 340.15 315.003 339.7C315.413 339.24 315.618 338.655 315.618 337.945C315.618 337.455 315.523 337.03 315.333 336.67C315.153 336.3 314.893 336.015 314.553 335.815C314.213 335.605 313.818 335.5 313.368 335.5C312.918 335.5 312.518 335.605 312.168 335.815C311.828 336.025 311.558 336.315 311.358 336.685C311.168 337.045 311.073 337.46 311.073 337.93C311.073 338.41 311.168 338.835 311.358 339.205C311.558 339.565 311.833 339.85 312.183 340.06C312.533 340.27 312.933 340.375 313.383 340.375ZM315.528 341.5V339.58L315.783 337.84L315.528 336.115V334.375H316.893V341.5H315.528ZM318.873 341.5V334.375H320.223V341.5H318.873ZM319.548 332.95C319.298 332.95 319.093 332.87 318.933 332.71C318.773 332.54 318.693 332.33 318.693 332.08C318.693 331.84 318.773 331.64 318.933 331.48C319.093 331.31 319.298 331.225 319.548 331.225C319.798 331.225 320.003 331.31 320.163 331.48C320.323 331.64 320.403 331.84 320.403 332.08C320.403 332.33 320.323 332.54 320.163 332.71C320.003 332.87 319.798 332.95 319.548 332.95ZM321.433 342.1L325.603 330.505H326.863L322.708 342.1H321.433ZM328.057 341.5V330.79H329.407V341.5H328.057ZM334.638 341.65C333.938 341.65 333.308 341.485 332.748 341.155C332.188 340.825 331.743 340.38 331.413 339.82C331.083 339.25 330.918 338.615 330.918 337.915C330.918 337.225 331.083 336.605 331.413 336.055C331.743 335.495 332.188 335.05 332.748 334.72C333.308 334.39 333.938 334.225 334.638 334.225C335.328 334.225 335.953 334.39 336.513 334.72C337.083 335.04 337.533 335.48 337.863 336.04C338.193 336.6 338.358 337.225 338.358 337.915C338.358 338.615 338.193 339.25 337.863 339.82C337.533 340.38 337.083 340.825 336.513 341.155C335.953 341.485 335.328 341.65 334.638 341.65ZM334.638 340.345C335.088 340.345 335.488 340.24 335.838 340.03C336.188 339.82 336.463 339.535 336.663 339.175C336.863 338.805 336.963 338.385 336.963 337.915C336.963 337.455 336.858 337.045 336.648 336.685C336.448 336.325 336.173 336.045 335.823 335.845C335.483 335.635 335.088 335.53 334.638 335.53C334.188 335.53 333.788 335.635 333.438 335.845C333.088 336.045 332.813 336.325 332.613 336.685C332.413 337.045 332.313 337.455 332.313 337.915C332.313 338.385 332.413 338.805 332.613 339.175C332.813 339.535 333.088 339.82 333.438 340.03C333.788 340.24 334.188 340.345 334.638 340.345ZM339.879 341.5V330.79H341.229V341.5H339.879ZM346.234 341.65C345.584 341.65 344.994 341.49 344.464 341.17C343.934 340.84 343.514 340.395 343.204 339.835C342.904 339.275 342.754 338.645 342.754 337.945C342.754 337.245 342.904 336.615 343.204 336.055C343.514 335.495 343.929 335.05 344.449 334.72C344.979 334.39 345.574 334.225 346.234 334.225C346.774 334.225 347.254 334.34 347.674 334.57C348.104 334.79 348.449 335.1 348.709 335.5C348.969 335.89 349.114 336.345 349.144 336.865V339.01C349.114 339.52 348.969 339.975 348.709 340.375C348.459 340.775 348.119 341.09 347.689 341.32C347.269 341.54 346.784 341.65 346.234 341.65ZM346.459 340.375C347.129 340.375 347.669 340.15 348.079 339.7C348.489 339.24 348.694 338.655 348.694 337.945C348.694 337.455 348.599 337.03 348.409 336.67C348.229 336.3 347.969 336.015 347.629 335.815C347.289 335.605 346.894 335.5 346.444 335.5C345.994 335.5 345.594 335.605 345.244 335.815C344.904 336.025 344.634 336.315 344.434 336.685C344.244 337.045 344.149 337.46 344.149 337.93C344.149 338.41 344.244 338.835 344.434 339.205C344.634 339.565 344.909 339.85 345.259 340.06C345.609 340.27 346.009 340.375 346.459 340.375ZM348.604 341.5V339.58L348.859 337.84L348.604 336.115V334.375H349.969V341.5H348.604ZM351.934 338.32V337.045H356.869V338.32H351.934ZM360.063 341.5L363.198 337.225L363.708 336.955C363.588 337.155 363.443 337.33 363.273 337.48C363.103 337.63 362.893 337.745 362.643 337.825C362.403 337.905 362.108 337.945 361.758 337.945C361.158 337.945 360.603 337.8 360.093 337.51C359.593 337.22 359.193 336.82 358.893 336.31C358.593 335.79 358.443 335.205 358.443 334.555C358.443 333.885 358.608 333.28 358.938 332.74C359.268 332.19 359.708 331.755 360.258 331.435C360.808 331.105 361.418 330.94 362.088 330.94C362.768 330.94 363.383 331.1 363.933 331.42C364.483 331.74 364.918 332.17 365.238 332.71C365.558 333.24 365.718 333.84 365.718 334.51C365.718 335.43 365.398 336.345 364.758 337.255L361.698 341.5H360.063ZM362.088 336.835C362.508 336.835 362.883 336.735 363.213 336.535C363.553 336.325 363.818 336.05 364.008 335.71C364.208 335.36 364.308 334.975 364.308 334.555C364.308 334.115 364.208 333.725 364.008 333.385C363.818 333.035 363.553 332.76 363.213 332.56C362.883 332.36 362.508 332.26 362.088 332.26C361.668 332.26 361.288 332.36 360.948 332.56C360.618 332.76 360.353 333.035 360.153 333.385C359.953 333.725 359.853 334.115 359.853 334.555C359.853 334.985 359.953 335.37 360.153 335.71C360.353 336.05 360.623 336.325 360.963 336.535C361.303 336.735 361.678 336.835 362.088 336.835ZM370.187 341.65C369.497 341.65 368.887 341.52 368.357 341.26C367.837 341 367.432 340.64 367.142 340.18C366.852 339.72 366.707 339.2 366.707 338.62C366.707 338.15 366.797 337.72 366.977 337.33C367.157 336.94 367.422 336.61 367.772 336.34C368.122 336.06 368.532 335.86 369.002 335.74L369.047 336.145C368.647 336.035 368.307 335.86 368.027 335.62C367.747 335.37 367.532 335.08 367.382 334.75C367.242 334.41 367.172 334.05 367.172 333.67C367.172 333.13 367.302 332.655 367.562 332.245C367.822 331.835 368.177 331.515 368.627 331.285C369.087 331.045 369.607 330.925 370.187 330.925C370.777 330.925 371.297 331.045 371.747 331.285C372.197 331.515 372.552 331.835 372.812 332.245C373.072 332.655 373.202 333.13 373.202 333.67C373.202 334.05 373.127 334.41 372.977 334.75C372.837 335.08 372.627 335.37 372.347 335.62C372.077 335.86 371.742 336.035 371.342 336.145L371.372 335.74C371.852 335.86 372.262 336.06 372.602 336.34C372.952 336.61 373.217 336.94 373.397 337.33C373.587 337.72 373.682 338.15 373.682 338.62C373.682 339.2 373.537 339.72 373.247 340.18C372.957 340.64 372.547 341 372.017 341.26C371.497 341.52 370.887 341.65 370.187 341.65ZM370.187 340.375C370.607 340.375 370.972 340.295 371.282 340.135C371.602 339.965 371.852 339.735 372.032 339.445C372.222 339.155 372.317 338.82 372.317 338.44C372.317 338.07 372.222 337.74 372.032 337.45C371.852 337.16 371.602 336.935 371.282 336.775C370.972 336.605 370.607 336.52 370.187 336.52C369.777 336.52 369.412 336.605 369.092 336.775C368.772 336.935 368.517 337.16 368.327 337.45C368.147 337.74 368.057 338.07 368.057 338.44C368.057 338.82 368.147 339.155 368.327 339.445C368.517 339.735 368.772 339.965 369.092 340.135C369.412 340.295 369.777 340.375 370.187 340.375ZM370.187 335.425C370.687 335.425 371.097 335.27 371.417 334.96C371.737 334.65 371.897 334.25 371.897 333.76C371.897 333.28 371.737 332.89 371.417 332.59C371.097 332.28 370.687 332.125 370.187 332.125C369.697 332.125 369.292 332.28 368.972 332.59C368.652 332.89 368.492 333.28 368.492 333.76C368.492 334.25 368.652 334.65 368.972 334.96C369.292 335.27 369.697 335.425 370.187 335.425ZM375.984 341.5L379.884 331.915L381.279 331.96L377.469 341.5H375.984ZM374.349 332.35V331.09H381.279V331.96L380.664 332.35H374.349ZM385.147 341.65C384.467 341.65 383.847 341.525 383.287 341.275C382.737 341.015 382.272 340.64 381.892 340.15L382.852 339.19C383.082 339.54 383.397 339.82 383.797 340.03C384.197 340.23 384.642 340.33 385.132 340.33C385.592 340.33 385.987 340.245 386.317 340.075C386.657 339.895 386.922 339.645 387.112 339.325C387.312 339.005 387.412 338.635 387.412 338.215C387.412 337.785 387.312 337.415 387.112 337.105C386.922 336.785 386.652 336.54 386.302 336.37C385.952 336.2 385.537 336.115 385.057 336.115C384.877 336.115 384.697 336.13 384.517 336.16C384.337 336.18 384.162 336.215 383.992 336.265L384.592 335.455C384.782 335.365 384.987 335.295 385.207 335.245C385.427 335.195 385.647 335.17 385.867 335.17C386.427 335.17 386.927 335.3 387.367 335.56C387.817 335.82 388.172 336.185 388.432 336.655C388.702 337.125 388.837 337.67 388.837 338.29C388.837 338.95 388.677 339.535 388.357 340.045C388.047 340.545 387.617 340.94 387.067 341.23C386.517 341.51 385.877 341.65 385.147 341.65ZM383.992 336.265V335.41L387.037 331.945L388.717 331.93L385.582 335.485L383.992 336.265ZM382.387 332.35V331.09H388.717V331.93L387.487 332.35H382.387ZM390.009 340.645L393.849 336.595C394.239 336.195 394.544 335.85 394.764 335.56C394.984 335.26 395.139 334.985 395.229 334.735C395.329 334.485 395.379 334.225 395.379 333.955C395.379 333.425 395.209 333.01 394.869 332.71C394.529 332.41 394.089 332.26 393.549 332.26C393.019 332.26 392.554 332.39 392.154 332.65C391.754 332.9 391.399 333.29 391.089 333.82L390.099 332.995C390.509 332.315 391.004 331.805 391.584 331.465C392.164 331.115 392.834 330.94 393.594 330.94C394.234 330.94 394.789 331.065 395.259 331.315C395.739 331.565 396.109 331.915 396.369 332.365C396.629 332.815 396.759 333.34 396.759 333.94C396.759 334.37 396.704 334.755 396.594 335.095C396.494 335.435 396.309 335.785 396.039 336.145C395.779 336.495 395.414 336.915 394.944 337.405L391.839 340.6L390.009 340.645ZM390.009 341.5V340.645L391.209 340.24H396.999V341.5H390.009Z" fill="#383838"/>
<g clip-path="url(#clip0_1_768)">
<path d="M499.666 333.334V331.467C499.666 330.721 499.666 330.347 499.521 330.062C499.393 329.811 499.189 329.607 498.938 329.479C498.653 329.334 498.28 329.334 497.533 329.334H492.466C491.72 329.334 491.346 329.334 491.061 329.479C490.81 329.607 490.606 329.811 490.478 330.062C490.333 330.347 490.333 330.721 490.333 331.467V336.534C490.333 337.281 490.333 337.654 490.478 337.939C490.606 338.19 490.81 338.394 491.061 338.522C491.346 338.667 491.72 338.667 492.466 338.667H494.333M496.466 342.667H501.533C502.28 342.667 502.653 342.667 502.938 342.522C503.189 342.394 503.393 342.19 503.521 341.939C503.666 341.654 503.666 341.281 503.666 340.534V335.467C503.666 334.721 503.666 334.347 503.521 334.062C503.393 333.811 503.189 333.607 502.938 333.479C502.653 333.334 502.28 333.334 501.533 333.334H496.466C495.72 333.334 495.346 333.334 495.061 333.479C494.81 333.607 494.606 333.811 494.478 334.062C494.333 334.347 494.333 334.721 494.333 335.467V340.534C494.333 341.281 494.333 341.654 494.478 341.939C494.606 342.19 494.81 342.394 495.061 342.522C495.346 342.667 495.72 342.667 496.466 342.667Z" stroke="#383838" stroke-width="1.5" stroke-linecap="round" stroke-linejoin="round"/>
</g>
</g>
</g>
<defs>
<filter id="filter0_d_1_768" x="0" y="0" width="718" height="508" filterUnits="userSpaceOnUse" color-interpolation-filters="sRGB">
<feFlood flood-opacity="0" result="BackgroundImageFix"/>
<feColorMatrix in="SourceAlpha" type="matrix" values="0 0 0 0 0 0 0 0 0 0 0 0 0 0 0 0 0 0 127 0" result="hardAlpha"/>
<feOffset dy="10"/>
<feGaussianBlur stdDeviation="7.5"/>
<feComposite in2="hardAlpha" operator="out"/>
<feColorMatrix type="matrix" values="0 0 0 0 0.231373 0 0 0 0 0.509804 0 0 0 0 0.964706 0 0 0 0.15 0"/>
<feBlend mode="normal" in2="BackgroundImageFix" result="effect1_dropShadow_1_768"/>
<feBlend mode="normal" in="SourceGraphic" in2="effect1_dropShadow_1_768" result="shape"/>
</filter>
<filter id="filter1_dd_1_768" x="195" y="310" width="328" height="52" filterUnits="userSpaceOnUse" color-interpolation-filters="sRGB">
<feFlood flood-opacity="0" result="BackgroundImageFix"/>
<feColorMatrix in="SourceAlpha" type="matrix" values="0 0 0 0 0 0 0 0 0 0 0 0 0 0 0 0 0 0 127 0" result="hardAlpha"/>
<feMorphology radius="4" operator="dilate" in="SourceAlpha" result="effect1_dropShadow_1_768"/>
<feOffset/>
<feColorMatrix type="matrix" values="0 0 0 0 0.317647 0 0 0 0 0.678431 0 0 0 0 0.968627 0 0 0 0.15 0"/>
<feBlend mode="normal" in2="BackgroundImageFix" result="effect1_dropShadow_1_768"/>
<feColorMatrix in="SourceAlpha" type="matrix" values="0 0 0 0 0 0 0 0 0 0 0 0 0 0 0 0 0 0 127 0" result="hardAlpha"/>
<feOffset dy="1"/>
<feGaussianBlur stdDeviation="1"/>
<feColorMatrix type="matrix" values="0 0 0 0 0.0392157 0 0 0 0 0.0496732 0 0 0 0 0.0705882 0 0 0 0.05 0"/>
<feBlend mode="normal" in2="effect1_dropShadow_1_768" result="effect2_dropShadow_1_768"/>
<feBlend mode="normal" in="SourceGraphic" in2="effect2_dropShadow_1_768" result="shape"/>
</filter>
<linearGradient id="paint0_linear_1_768" x1="321.56" y1="147.164" x2="391.009" y2="214.328" gradientUnits="userSpaceOnUse">
<stop stop-color="#83E2ED"/>
<stop offset="1" stop-color="#0F6FEF"/>
</linearGradient>
<clipPath id="clip0_1_768">
<rect width="16" height="16" fill="white" transform="translate(489 328)"/>
</clipPath>
</defs>
</svg>
